<?xml version="1.0" encoding="UTF-8"?>
<svg id="_Слой_1" data-name=" Слой 1" xmlns="http://www.w3.org/2000/svg" width="116" height="159" viewBox="0 0 116 159">
  <defs>
    <style>
      .cls-1, .cls-2 {
        fill: none;
      }

      .cls-3, .cls-4 {
        fill: #fff;
      }

      .cls-5 {
        fill: #8b8b8b;
      }

      .cls-6 {
        fill: #aaa;
      }

      .cls-4 {
        stroke-miterlimit: 4;
      }

      .cls-4, .cls-2 {
        stroke: #000;
        stroke-width: .98px;
      }

      .cls-2 {
        stroke-miterlimit: 10;
      }
    </style>
  </defs>
  <path class="cls-4" d="m10.72,5.33h94.35c2.17,0,3.93,1.76,3.93,3.94v127.23c0,2.18-1.76,3.94-3.93,3.94H10.72c-2.17,0-3.93-1.76-3.93-3.94V9.28c0-2.18,1.76-3.94,3.93-3.94h0Z"/>
  <path class="cls-1" d="m.02-.08h116v159H.02V-.08Z"/>
  <path class="cls-2" d="m10.95,7.38h93.98c1.11,0,1.99.89,1.99,1.99v127.08c0,1.1-.9,1.99-1.99,1.99H10.95c-1.11,0-1.99-.89-1.99-1.99V9.37c0-1.1.9-1.99,1.99-1.99h0Z"/>
  <g>
    <path d="m41.91,18.56c0-.56-.22-1.02-.64-1.35s-1.01-.5-1.73-.5c-.63,0-1.15.17-1.57.5s-.64.76-.64,1.29h-2.17c0-.69.19-1.3.58-1.84s.91-.96,1.59-1.25,1.42-.45,2.23-.45c1.45,0,2.56.32,3.35.94s1.2,1.5,1.2,2.64c0,.57-.17,1.1-.51,1.58-.35.48-.83.85-1.46,1.13.7.24,1.24.61,1.61,1.11s.55,1.11.55,1.85c0,1.13-.43,2.03-1.29,2.7s-2.02,1.01-3.45,1.01c-.9,0-1.69-.15-2.4-.47s-1.25-.75-1.61-1.3-.55-1.19-.55-1.9h2.17c0,.55.23,1.01.68,1.38.45.37,1.02.56,1.71.56.77,0,1.39-.18,1.85-.55s.7-.84.7-1.42c0-.71-.2-1.22-.61-1.54s-1.02-.48-1.82-.48h-1.47v-1.73h1.39c1.55,0,2.31-.64,2.31-1.89,0,0,0-.03,0-.03Z"/>
    <path d="m56.35,21.76c0,1.24-.22,2.32-.64,3.25s-1.04,1.64-1.83,2.15-1.7.75-2.74.75-1.93-.24-2.72-.75-1.42-1.21-1.85-2.14-.65-1.99-.66-3.2v-.71c0-1.24.22-2.32.65-3.25s1.05-1.67,1.84-2.15,1.7-.75,2.72-.75,1.93.24,2.72.74,1.41,1.2,1.84,2.13c.43.93.65,2,.65,3.24v.7h.01Zm-2.19-.66c0-1.4-.27-2.46-.79-3.21s-1.28-1.11-2.25-1.11-1.69.37-2.21,1.11-.81,1.8-.82,3.15v.73c0,1.39.27,2.46.81,3.21.54.76,1.29,1.13,2.25,1.13s1.71-.37,2.24-1.11.78-1.82.78-3.25v-.66h0Z"/>
    <path d="m68.51,27.74h-2.17v-5.6h-5.61v5.6h-2.19v-12.62h2.19v5.25h5.61v-5.25h2.17v12.62Z"/>
    <path d="m78.3,24.81h-4.87l-1.02,2.94h-2.28l4.74-12.62h1.96l4.76,12.62h-2.29l-1.02-2.94h.03Zm-4.26-1.76h3.64l-1.82-5.24-1.82,5.24h-.01Z"/>
  </g>
  <g>
    <ellipse class="cls-6" cx="59.01" cy="57.73" rx="31.28" ry="15.27"/>
    <ellipse class="cls-3" cx="59.02" cy="57.8" rx="25.95" ry="12"/>
    <path class="cls-6" d="m53.61,57.84l.86-7.96h8.44v2.27h-6.25l-.43,3.77c.72-.41,1.55-.64,2.47-.64,1.5,0,2.66.48,3.49,1.44s1.24,2.24,1.24,3.88-.46,2.88-1.38,3.82-2.19,1.42-3.79,1.42c-1.43,0-2.63-.41-3.57-1.24-.95-.82-1.46-1.9-1.53-3.25h2.53c.1.76.37,1.35.82,1.76s1.02.61,1.75.61c.81,0,1.43-.28,1.88-.87s.68-1.36.68-2.36-.24-1.72-.74-2.28-1.18-.84-2.05-.84c-.47,0-.88.06-1.2.19s-.69.37-1.07.74l-2.08-.52-.03.03-.03.03Z"/>
  </g>
  <path class="cls-6" d="m39.78,112.53c-.7,0-1.36.37-1.71.98l-3.45,5.92c-.18.29-.27.64-.27.98v7.16c0,1.08.88,1.95,1.97,1.95h.98c0-2.69,2.21-4.88,4.94-4.88s4.92,2.19,4.92,4.88h15.78c0-2.69,2.21-4.88,4.92-4.88s4.94,2.19,4.94,4.88h2.95c1.09,0,1.97-.87,1.97-1.95v-7.16c0-.2-.03-.41-.1-.62l-1.99-5.92c-.27-.8-1.02-1.34-1.87-1.33h-34,.03Zm.23,1.38h2.24c.55,0,.98.43.98.98v3.9c0,.55-.43.98-.98.98h-4.53c-.55,0-.98-.43-.98-.98,0-.17.05-.34.13-.5l2.28-3.9c.18-.31.5-.48.86-.48h.01Zm6.19,0h5.92c.55,0,.98.43.98.98v3.9c0,.55-.45.98-.98.98h-5.92c-.55,0-.98-.43-.98-.97h0v-3.9c0-.55.43-.98.98-.98h0Zm9.86,0h5.92c.55,0,.98.43.98.98v3.9c0,.55-.43.98-.98.98h-5.92c-.55,0-.98-.43-.98-.97h0v-3.9c0-.55.43-.98.98-.98h0Zm9.86,0h5.61c.43,0,.82.28.95.7l1.16,3.9c.15.51-.15,1.06-.66,1.21-.09.03-.19.04-.28.04h-6.78c-.55,0-.98-.43-.98-.97h0v-3.9c0-.55.45-.98.98-.98h0Z"/>
  <path class="cls-6" d="m42.23,125.61c-2.17,0-3.95,1.75-3.95,3.9s1.76,3.9,3.95,3.9,3.95-1.75,3.95-3.9-1.76-3.9-3.95-3.9Zm0,1.95c1.09,0,1.97.87,1.97,1.95h0c0,1.08-.9,1.95-1.97,1.95h0c-1.09,0-1.97-.87-1.97-1.95s.9-1.95,1.97-1.95h0Zm25.64-1.95c-2.17,0-3.95,1.75-3.95,3.9s1.76,3.9,3.95,3.9,3.95-1.75,3.95-3.9-1.76-3.9-3.95-3.9Zm0,1.95c1.09,0,1.97.87,1.97,1.95h0c0,1.08-.9,1.95-1.97,1.95h0c-1.09,0-1.97-.87-1.97-1.95s.9-1.95,1.97-1.95h0Z"/>
  <path class="cls-6" d="m38.63,85.28c-.78,0-1.51.38-1.94,1.02l-3.7,5.42c-.27.38-.41.84-.41,1.3v5.62c0,1.29,1.06,2.33,2.35,2.33h2.12c.13-2.59,2.29-4.65,4.92-4.65s4.81,2.07,4.94,4.65h18.36c.09-1.81,1.18-3.43,2.83-4.19h-20.47v-9.18c0-1.29-1.06-2.33-2.35-2.33h-6.66.01Zm.13,1.42h5.36c.65,0,1.18.52,1.18,1.16v3.26c0,.64-.52,1.16-1.18,1.16h-7.58c-.64,0-1.16-.51-1.18-1.16h0c0-.24.06-.46.19-.65l2.23-3.26c.22-.33.59-.51.97-.51h.01Z"/>
  <path class="cls-6" d="m51.4,81.03c-1.29,0-2.34,1.03-2.35,2.32h0v12.57h30.58v-12.57c0-1.29-1.05-2.33-2.35-2.33h-25.87Zm18.81,16.23c-2.21,0-4,1.77-4,3.96s1.79,3.95,4,3.95,4-1.77,4-3.95-1.79-3.96-4-3.96Zm0,1.86c1.16,0,2.12.93,2.12,2.1s-.95,2.1-2.12,2.1-2.12-.93-2.12-2.1h0c0-1.16.95-2.1,2.12-2.1h0Z"/>
  <path class="cls-6" d="m75.15,100.98c-.09-1.85-1.21-3.44-2.83-4.19h7.31v4.19h-4.49Zm-33.16-3.72c-2.21,0-4,1.77-4,3.96s1.79,3.95,4,3.95,4-1.77,4-3.95-1.79-3.96-4-3.96Zm0,1.86c1.16,0,2.12.93,2.12,2.1s-.95,2.1-2.12,2.1-2.12-.93-2.12-2.1h0c0-1.16.95-2.1,2.12-2.1h0Z"/>
  <g>
    <path class="cls-3" d="m60.66,91.79c-.29,0-.58-.04-.81-.13s-.46-.22-.63-.38c-.17-.15-.29-.36-.38-.57s-.13-.46-.13-.7c0-.33.09-.62.26-.89s.42-.48.75-.65v-.03c-.29-.17-.51-.36-.65-.56s-.22-.46-.22-.76c0-.46.17-.83.51-1.12s.77-.46,1.29-.46.98.14,1.32.42.5.65.5,1.1c0,.27-.08.54-.24.8s-.38.46-.68.61v.03c.35.17.61.37.79.59s.27.54.27.89c0,.51-.19.93-.55,1.29s-.84.52-1.39.52h-.01Zm1.13-1.72c0-.24-.05-.45-.15-.59s-.28-.29-.56-.45c-.09-.05-.22-.11-.37-.17s-.33-.13-.51-.2c-.23.15-.4.33-.51.55s-.18.46-.18.74c0,.37.12.66.33.89s.5.36.82.36.61-.1.81-.31.31-.47.31-.83h.03Zm-.12-3c0-.27-.09-.5-.27-.68s-.42-.27-.75-.27c-.29,0-.54.08-.72.24s-.28.37-.28.65c0,.19.05.37.14.5s.24.25.42.37c.08.05.2.11.37.19s.33.15.46.19c.24-.18.4-.37.47-.55s.13-.41.13-.65h.03Z"/>
    <path class="cls-3" d="m69.32,87.82h-1.53v3.82h-.77v-3.82h-1.53v-.66h3.82v.66h.01Z"/>
  </g>
  <g>
    <path class="cls-5" d="m52.49,152.95c0,.41-.06.8-.19,1.16s-.32.66-.55.92c-.24.27-.55.46-.9.62s-.77.23-1.2.23c-.41,0-.81-.05-1.21-.14-.4-.09-.74-.2-1.02-.36v-1.22h.08c.09.06.22.14.37.23.17.08.35.15.55.24.23.08.43.15.63.19s.4.06.64.06.46-.04.68-.13.41-.22.56-.41c.14-.17.24-.37.33-.59s.12-.5.12-.8-.04-.55-.12-.75-.19-.36-.36-.48c-.17-.15-.37-.24-.6-.31s-.5-.09-.81-.09-.63.03-.93.06-.56.09-.75.14v-4.42h4.71v1.02h-3.59v2.28c.14-.03.28-.03.41-.04s.26,0,.37,0c.43,0,.81.04,1.11.11.31.06.59.22.87.42.28.22.5.48.65.8s.23.75.23,1.26h0l-.06-.03Z"/>
    <path class="cls-5" d="m55.57,155.69h-1.38v-1.64h1.38v1.64Z"/>
    <path class="cls-5" d="m59.61,147.91c-.2,0-.41.03-.63.08s-.41.11-.61.19c-.19.08-.35.15-.49.24s-.26.17-.37.24h-.06v-1.22c.24-.14.59-.25,1.02-.37s.83-.17,1.23-.17.72.04,1.02.11.55.19.78.37c.26.19.45.41.58.68s.19.57.19.92c0,.47-.15.89-.46,1.25-.31.36-.68.59-1.11.68v.08c.18.04.37.1.58.18s.4.2.58.37.32.37.43.64c.12.25.17.57.17.94s-.06.75-.19,1.07-.32.61-.56.87c-.24.27-.55.46-.9.59s-.75.2-1.2.2-.86-.05-1.28-.15c-.42-.11-.78-.23-1.07-.37v-1.22h.08c.24.18.56.34.97.51.41.15.81.24,1.21.24.24,0,.46-.04.7-.11s.43-.19.59-.37c.15-.17.27-.36.35-.56s.12-.46.12-.78-.05-.57-.14-.76-.22-.36-.37-.47-.36-.19-.58-.24-.46-.06-.72-.06h-.49v-.96h.37c.51,0,.93-.11,1.27-.37s.49-.6.49-1.07c0-.22-.04-.41-.13-.56s-.19-.28-.33-.37c-.15-.1-.31-.17-.49-.2-.18-.04-.37-.06-.56-.06h.03v.03Z"/>
    <path class="cls-5" d="m66.33,155.89c-.42,0-.81-.06-1.16-.19s-.64-.31-.9-.55c-.24-.23-.42-.5-.55-.82s-.19-.65-.19-1.01c0-.46.12-.89.37-1.29.24-.4.6-.7,1.07-.93v-.04c-.42-.24-.73-.51-.93-.8s-.31-.66-.31-1.1c0-.65.24-1.19.73-1.62s1.11-.65,1.85-.65,1.41.2,1.87.61c.47.41.7.93.7,1.58,0,.38-.12.76-.33,1.15s-.55.68-.97.89v.04c.5.24.88.52,1.14.85s.38.76.38,1.29c0,.74-.27,1.35-.81,1.85-.54.5-1.2.75-1.99.75,0,0,.03-.03.03-.03Zm1.61-2.49c0-.36-.06-.64-.2-.85s-.41-.42-.81-.64c-.13-.06-.31-.15-.52-.24s-.46-.19-.73-.29c-.32.2-.56.47-.73.78s-.26.66-.26,1.07c0,.52.15.94.46,1.29.32.33.7.51,1.18.51s.87-.15,1.16-.43.43-.69.43-1.19v-.03.03Zm-.15-4.31c0-.38-.13-.71-.38-.97s-.61-.38-1.07-.38c-.41,0-.77.11-1.02.34-.27.23-.4.55-.4.93,0,.28.06.52.2.71s.33.37.61.54c.12.06.29.15.55.28s.46.2.66.28c.33-.25.56-.52.68-.8s.18-.59.18-.93h-.01Z"/>
  </g>
  <path class="cls-1" d="m11.5,7.11h93.98c1.11,0,1.99.89,1.99,1.99v127.08c0,1.1-.9,1.99-1.99,1.99H11.5c-1.11,0-1.99-.89-1.99-1.99V9.1c0-1.1.9-1.99,1.99-1.99h0Z"/>
  <g>
    <polygon points="8.94 112.82 93.47 7.74 95.11 7.82 9 115.25 8.94 112.82"/>
    <polygon points="8.72 120.83 99.89 7.06 101.21 7.54 8.78 123.38 8.72 120.83"/>
    <polygon points="8.83 128.19 105.96 7.37 107 8.15 8.83 130.73 8.83 128.19"/>
    <polygon points="8.89 135.7 106.92 13.55 107.31 15.24 9.11 137.8 8.89 135.7"/>
    <polygon points="13.49 138.19 107.19 20.23 107.28 22.17 14.94 138.92 13.49 138.19"/>
  </g>
</svg>