<svg width="90" height="124" viewBox="0 0 90 124" fill="none" xmlns="http://www.w3.org/2000/svg">
<path d="M79 2H11C7.68629 2 5 4.68629 5 8V116C5 119.314 7.68629 122 11 122H79C82.3137 122 85 119.314 85 116V8C85 4.68629 82.3137 2 79 2Z" fill="white"/>
<path d="M79 2.13333H11C7.75993 2.13333 5.13333 4.75993 5.13333 8V116C5.13333 119.24 7.75993 121.867 11 121.867H79C82.2401 121.867 84.8667 119.24 84.8667 116V8C84.8667 4.75993 82.2401 2.13333 79 2.13333Z" stroke="black" stroke-width="0.266667" stroke-miterlimit="10"/>
<path fill-rule="evenodd" clip-rule="evenodd" d="M26.8309 15.8372H27.7067C27.8408 15.8372 27.9748 15.8267 28.1068 15.8057C28.2388 15.7848 28.3645 15.7555 28.484 15.7157C28.6013 15.678 28.7165 15.6319 28.8255 15.5775C28.9344 15.5229 29.0349 15.4601 29.1271 15.3909C29.2213 15.3197 29.3031 15.2464 29.3764 15.1689C29.4476 15.0913 29.5105 15.0076 29.5649 14.9175C29.6195 14.8273 29.6613 14.7352 29.6907 14.6409C29.7179 14.5488 29.7347 14.4503 29.7409 14.3476V14.2848C29.7409 14.1759 29.7305 14.0732 29.7096 13.9747C29.6844 13.8595 29.6467 13.7527 29.5964 13.6479C29.5483 13.5452 29.4875 13.4488 29.4183 13.3608C29.3492 13.2729 29.2717 13.1912 29.1857 13.1179C29.0999 13.0424 29.0097 12.9753 28.9135 12.9188C28.8192 12.8623 28.7207 12.814 28.618 12.7764C28.5175 12.7365 28.4148 12.7051 28.308 12.6821C28.2032 12.6591 28.0984 12.6444 27.9937 12.6401C27.9225 12.6339 27.8492 12.6317 27.7779 12.6317C27.5349 12.6317 27.2981 12.6528 27.0719 12.6947C26.7703 12.7449 26.4895 12.8267 26.2297 12.9335C25.9679 13.0424 25.7289 13.1807 25.5153 13.3461C25.2995 13.5117 25.1131 13.7003 24.9517 13.9119L23.9209 12.3448C24.164 12.106 24.4384 11.8964 24.7423 11.7163C25.0481 11.5361 25.3812 11.3832 25.7436 11.2616C26.1061 11.1401 26.4936 11.048 26.9043 10.9872C27.3149 10.9244 27.7444 10.8929 28.1885 10.8929C28.4525 10.8929 28.706 10.916 28.9491 10.96C29.192 11.004 29.4225 11.0668 29.6404 11.1507C29.8561 11.2323 30.0615 11.3329 30.2521 11.4481C30.4449 11.5655 30.6188 11.6953 30.7759 11.8399C30.9331 11.9844 31.0755 12.1436 31.1991 12.3133C31.3227 12.4852 31.4275 12.6653 31.5133 12.856C31.5992 13.0487 31.6643 13.2477 31.7083 13.4552C31.7521 13.6604 31.7732 13.8741 31.7732 14.09C31.7732 14.3036 31.7564 14.5027 31.7228 14.6891C31.6893 14.8735 31.6412 15.0473 31.5783 15.2087C31.5176 15.3679 31.4443 15.5167 31.3625 15.6549C31.2787 15.7911 31.1865 15.9147 31.086 16.0257C30.9855 16.1389 30.8807 16.2352 30.7675 16.3212C30.6565 16.4071 30.5433 16.4783 30.426 16.5348C30.3108 16.5915 30.1935 16.6353 30.0783 16.6668C29.9609 16.6983 29.8499 16.7129 29.7409 16.7129C29.8499 16.7129 29.9651 16.7255 30.0888 16.7527C30.2144 16.7779 30.3401 16.8197 30.47 16.8763C30.5999 16.9329 30.7277 17.0063 30.8576 17.0943C30.9875 17.1823 31.1111 17.2828 31.2305 17.4001C31.35 17.5175 31.4589 17.6515 31.5595 17.8044C31.66 17.9553 31.748 18.1249 31.8235 18.3072C31.8988 18.4916 31.9575 18.6927 32.0015 18.9085C32.0455 19.1264 32.0685 19.3611 32.0685 19.6145C32.0685 19.8995 32.0351 20.1697 31.9721 20.4232C31.9072 20.6767 31.8151 20.9113 31.6999 21.1292C31.5825 21.3451 31.4443 21.544 31.2851 21.7263C31.1237 21.9065 30.9456 22.072 30.7487 22.2187C30.5517 22.3653 30.3444 22.4952 30.1244 22.6063C29.9044 22.7173 29.676 22.8116 29.4413 22.8869C29.2067 22.9603 28.9659 23.0169 28.7207 23.0525C28.4735 23.0881 28.2325 23.1069 27.9937 23.1069C27.7821 23.1069 27.5684 23.0985 27.3547 23.0839C27.1389 23.0692 26.9252 23.0441 26.7136 23.0105C26.502 22.9771 26.2904 22.9352 26.0809 22.8869C25.8715 22.8367 25.6683 22.7823 25.4692 22.7193C25.2701 22.6565 25.0775 22.5895 24.8952 22.514C24.7108 22.4387 24.5348 22.3569 24.3672 22.2648C24.1996 22.1747 24.0404 22.0783 23.8937 21.9777C23.7449 21.8772 23.6129 21.7703 23.4936 21.6551L24.604 20.0587C24.7423 20.2493 24.9224 20.4253 25.1381 20.5845C25.356 20.7459 25.6075 20.882 25.8945 20.9972C26.1815 21.1104 26.5 21.2005 26.8499 21.2633C27.1997 21.3283 27.5809 21.3617 27.9937 21.3617C28.1027 21.3617 28.2157 21.3513 28.3311 21.3304C28.4483 21.3095 28.5656 21.278 28.6809 21.2381C28.7983 21.1963 28.9113 21.146 29.0224 21.0895C29.1335 21.0329 29.2403 20.9659 29.3408 20.8883C29.4413 20.8108 29.5336 20.7249 29.6152 20.6327C29.6991 20.5384 29.7703 20.44 29.8332 20.3331C29.896 20.2263 29.9441 20.1152 29.9777 19.9959C30.0112 19.8764 30.028 19.7507 30.028 19.6145C30.028 19.4763 30.0112 19.3401 29.9797 19.2081C29.9505 19.0761 29.9044 18.9504 29.8457 18.8268C29.7849 18.7053 29.7137 18.5921 29.6279 18.4832C29.542 18.3743 29.4476 18.2737 29.3451 18.1836C29.2403 18.0936 29.1271 18.0097 29.0035 17.9364C28.8799 17.8609 28.7479 17.7981 28.6076 17.7457C28.4672 17.6933 28.3227 17.6536 28.1739 17.6243C28.0231 17.5971 27.868 17.5824 27.7067 17.5824H26.8309V15.8372Z" fill="black"/>
<path fill-rule="evenodd" clip-rule="evenodd" d="M43.18 15.7707C43.1173 15.3707 43.0293 14.9867 42.912 14.6227C42.7973 14.2573 42.652 13.912 42.4827 13.5867C42.3107 13.26 42.12 12.9587 41.9107 12.6827C41.7014 12.4053 41.472 12.1587 41.2254 11.9387C40.976 11.7187 40.712 11.5293 40.4333 11.3747C40.152 11.22 39.864 11.1 39.56 11.0187C39.2587 10.9347 38.9467 10.8933 38.6254 10.8933C38.3054 10.8933 37.9907 10.9347 37.6867 11.0187C37.3814 11.1 37.0894 11.22 36.8134 11.3747C36.536 11.5293 36.272 11.7187 36.0214 11.9387C35.7694 12.1587 35.54 12.4053 35.3307 12.6827C35.12 12.9587 34.932 13.26 34.764 13.5867C34.5974 13.912 34.452 14.2573 34.3347 14.6227C34.216 14.9867 34.1253 15.3707 34.0627 15.7707C34 16.172 33.968 16.5813 33.968 17C33.968 17.4253 34 17.836 34.0627 18.2333C34.1253 18.632 34.216 19.0133 34.3347 19.3773C34.452 19.744 34.5974 20.088 34.764 20.4147C34.932 20.7413 35.12 21.0413 35.3307 21.3173C35.54 21.596 35.7694 21.844 36.0214 22.064C36.272 22.284 36.536 22.4693 36.8134 22.6267C37.0894 22.7827 37.3814 22.9 37.6867 22.984C37.9907 23.0653 38.3054 23.1067 38.6254 23.1067C38.9467 23.1067 39.2587 23.0653 39.56 22.984C39.864 22.9 40.152 22.7827 40.4333 22.6267C40.712 22.4693 40.976 22.284 41.2254 22.064C41.472 21.844 41.7014 21.596 41.9107 21.3173C42.12 21.0413 42.3107 20.7413 42.4827 20.4147C42.652 20.088 42.7973 19.744 42.912 19.3773C43.0293 19.0133 43.1174 18.632 43.18 18.2333C43.2413 17.836 43.272 17.4253 43.272 17C43.272 16.5813 43.2413 16.172 43.18 15.7707ZM41.1853 17.8773C41.1493 18.1627 41.1 18.4347 41.0347 18.6973C40.9693 18.9573 40.8907 19.204 40.7933 19.436C40.6973 19.6693 40.5907 19.8853 40.4707 20.0853C40.352 20.2853 40.224 20.4627 40.084 20.62C39.9427 20.7773 39.796 20.912 39.6413 21.02C39.4867 21.1293 39.3227 21.2133 39.1533 21.272C38.9813 21.332 38.8053 21.3613 38.6253 21.3613C38.4427 21.3613 38.2667 21.332 38.0973 21.272C37.9253 21.2133 37.7627 21.1293 37.6053 21.02C37.4467 20.912 37.2973 20.7773 37.1587 20.62C37.0187 20.4627 36.888 20.2853 36.772 20.0853C36.652 19.8853 36.5453 19.6693 36.4533 19.436C36.3587 19.204 36.2787 18.9573 36.212 18.6973C36.1453 18.4347 36.0947 18.1627 36.0613 17.8773C36.028 17.5933 36.0107 17.3 36.0107 17C36.0107 16.7 36.028 16.4093 36.0613 16.124C36.0947 15.8387 36.1453 15.5667 36.212 15.3053C36.2787 15.0427 36.3587 14.796 36.4533 14.564C36.5453 14.3307 36.652 14.1147 36.772 13.916C36.888 13.7173 37.0187 13.5387 37.1587 13.38C37.2973 13.2227 37.4467 13.0907 37.6053 12.9813C37.7627 12.872 37.9253 12.7893 38.0973 12.728C38.2667 12.6693 38.4427 12.64 38.6253 12.64C38.8053 12.64 38.9813 12.6693 39.1533 12.728C39.3227 12.7893 39.4867 12.872 39.6413 12.9813C39.796 13.0907 39.9427 13.2227 40.084 13.38C40.224 13.5387 40.352 13.7173 40.4707 13.916C40.5907 14.1147 40.6973 14.3307 40.7933 14.564C40.8907 14.796 40.9693 15.0427 41.0347 15.3053C41.1 15.5667 41.1493 15.8387 41.1853 16.124C41.2213 16.4093 41.24 16.7 41.24 17C41.24 17.3 41.2213 17.5933 41.1853 17.8773Z" fill="black"/>
<path fill-rule="evenodd" clip-rule="evenodd" d="M47.8065 15.8372H52.1747V11.18H54.2068V22.82H52.1747V17.5824H47.8065V22.82H45.7723V11.18H47.8065V15.8372Z" fill="black"/>
<path fill-rule="evenodd" clip-rule="evenodd" d="M62.72 11.18H60.3987L56.6133 22.82H58.9493L59.616 20.5014H63.504L64.1867 22.82H66.5067L62.72 11.18ZM60.1293 18.7387L61.556 13.8027L62.984 18.7387H60.1293Z" fill="black"/>
<path fill-rule="evenodd" clip-rule="evenodd" d="M39.7993 64.4L27.0159 51.6165C21.5753 59.2705 21.5753 69.5293 27.0159 77.1833L39.7993 64.4ZM45 69.6005L32.2165 82.384C39.8705 87.8245 50.1293 87.8245 57.7833 82.384L45 69.6005ZM50.2005 64.4L62.984 77.1833C68.4245 69.5293 68.4245 59.2705 62.984 51.6165L50.2005 64.4ZM45 59.1993L57.7833 46.4158C50.1293 40.9753 39.8705 40.9753 32.2165 46.4158L45 59.1993Z" fill="#7F7F7F"/>
<path fill-rule="evenodd" clip-rule="evenodd" d="M45 35.9C29.2599 35.9 16.5 48.6599 16.5 64.4C16.5 80.1401 29.2599 92.9 45 92.9C60.7401 92.9 73.5 80.14 73.5 64.4C73.5 48.66 60.74 35.9 45 35.9ZM41.0995 64.4L26.9151 50.2156C20.3831 58.5437 20.3831 70.2561 26.9151 78.5843L41.0995 64.4ZM45 68.3004L30.8156 82.4848C39.1437 89.0168 50.8561 89.0168 59.1843 82.4848L45 68.3004ZM48.9004 64.4L63.0848 78.5843C69.6168 70.2561 69.6168 58.5437 63.0848 50.2156L48.9004 64.4ZM45 60.4995L59.1843 46.3151C50.8561 39.7831 39.1437 39.7831 30.8156 46.3151L45 60.4995Z" fill="#7F7F7F"/>
<path fill-rule="evenodd" clip-rule="evenodd" d="M7.66666 7.99999C7.66666 6.15892 9.15892 4.66666 11 4.66666H79C80.8409 4.66666 82.3333 6.15892 82.3333 7.99999V116C82.3333 117.841 80.8409 119.333 79 119.333H11C9.15892 119.333 7.66666 117.841 7.66666 116V7.99999ZM8.99999 7.99999C8.99999 6.89532 9.89532 5.99999 11 5.99999H79C80.1045 5.99999 81 6.89532 81 7.99999V7.86666L8.99999 87.9333V7.99999ZM81 36.0667V116C81 117.105 80.1045 118 79 118H11C9.89532 118 8.99999 117.105 8.99999 116V116.133L81 36.0667ZM81 11V14.1333L8.99999 94.2V91.0667L81 11ZM81 17.2667V20.4L8.99999 100.467V97.3333L81 17.2667ZM81 23.5333V26.6667L8.99999 106.733V103.6L81 23.5333ZM81 29.8V32.9333L8.99999 113V109.867L81 29.8Z" fill="black"/>
</svg>
