<svg width="125" height="61" viewBox="0 0 125 61" fill="none" xmlns="http://www.w3.org/2000/svg">
<path d="M111.375 2H13.625C8.86154 2 5 5.86154 5 10.625V50.875C5 55.6385 8.86154 59.5 13.625 59.5H111.375C116.138 59.5 120 55.6385 120 50.875V10.625C120 5.86154 116.138 2 111.375 2Z" fill="black"/>
<path d="M111.375 3.91667H13.625C9.92008 3.91667 6.91666 6.92009 6.91666 10.625V50.875C6.91666 54.5799 9.92008 57.5833 13.625 57.5833H111.375C115.08 57.5833 118.083 54.5799 118.083 50.875V10.625C118.083 6.92009 115.08 3.91667 111.375 3.91667Z" fill="white"/>
<path fill-rule="evenodd" clip-rule="evenodd" d="M22.4635 38.9437H19.6025V22.5562H29.8373V25.0161H22.4635V38.9437Z" fill="black"/>
<path fill-rule="evenodd" clip-rule="evenodd" d="M43.3561 38.8995V25.0042H38.8669L38.4629 33.9943C38.4393 34.3748 38.3772 34.7317 38.277 35.0709C38.1738 35.4102 38.0381 35.7287 37.867 36.0266C37.696 36.3244 37.4953 36.6046 37.2713 36.8642C37.0442 37.1208 36.8023 37.3567 36.5397 37.5722C36.2773 37.7874 36.003 37.9822 35.7138 38.1562C35.4278 38.3331 35.1357 38.4836 34.8467 38.6104C34.5548 38.7371 34.2627 38.8464 33.9708 38.9319C33.6818 39.0204 33.4044 39.0823 33.1418 39.1176L32.5402 36.5634C32.723 36.5339 32.903 36.4925 33.0799 36.4366C33.2599 36.3835 33.4339 36.3156 33.6049 36.2361C33.7761 36.1535 33.9413 36.0649 34.0975 35.9616C34.2539 35.8585 34.3984 35.7492 34.5341 35.6342C34.6698 35.5164 34.7936 35.3924 34.9117 35.2626C35.0267 35.1328 35.1269 34.9971 35.2124 34.8586C35.295 34.72 35.36 34.5783 35.4071 34.431C35.4543 34.2864 35.4838 34.1419 35.4897 33.9943L36.003 22.5562H46.2171V38.8995H43.3561Z" fill="black"/>
<path fill-rule="evenodd" clip-rule="evenodd" d="M50.691 38.9437L50.2663 36.0709C50.5494 36.2094 50.7942 36.3216 50.9977 36.4101C51.1422 36.4749 51.3546 36.5073 51.6319 36.5073C52.44 36.5073 53.0152 36.2861 53.3573 35.8409C53.5461 35.5871 53.6406 35.3304 53.6406 35.0769C53.6406 34.9531 53.6168 34.8262 53.5637 34.6933L48.2341 22.5562H51.511L55.2038 31.7676L58.4689 22.5562H61.7458L56.4159 36.4956C55.8114 38.0322 54.5018 38.8376 52.4843 38.9112C51.8943 38.9319 51.2958 38.9437 50.691 38.9437Z" fill="black"/>
<path fill-rule="evenodd" clip-rule="evenodd" d="M63.7792 22.5562H67.0797L69.9288 27.6795L72.8046 22.5562H76.0815L71.5687 30.39L76.4738 38.9437H73.1969L69.9288 33.0004L66.6519 38.9437H63.3868L68.2918 30.39L63.7792 22.5562Z" fill="black"/>
<path fill-rule="evenodd" clip-rule="evenodd" d="M79.7119 38.9437V22.5562H82.1688V34.0267L88.3068 22.5562H91.1825V38.9437H88.7227V27.4731L82.5729 38.9437H79.7119Z" fill="black"/>
<path fill-rule="evenodd" clip-rule="evenodd" d="M95.5667 22.5562H105.397V25.0161H98.0235V29.113H104.176V31.5699H98.0235V36.4868H105.397V38.9437H95.5667V22.5562Z" fill="black"/>
</svg>
