<svg width="115" height="71" xmlns="http://www.w3.org/2000/svg"><g transform="translate(8 11)" fill-rule="nonzero" fill="none"><rect fill="#000" y=".166" width="100" height="49.669" rx="6.3"/><rect fill="#FFF" x="1.667" y="1.821" width="96.667" height="46.358" rx="4.9"/><g fill="#000"><path d="M23.434 8.27h4.07v.799h-1.598v4.574h-.87V9.069h-1.602zM29.446 10.96c0 .53.115.984.347 1.36.23.374.512.56.844.56.327 0 .608-.186.842-.56.233-.376.35-.83.35-1.36 0-.53-.117-.983-.35-1.36-.234-.378-.515-.568-.842-.568-.332 0-.613.19-.844.568-.232.377-.347.83-.347 1.36zm-.963-.004c0-.776.209-1.439.627-1.986.42-.547.926-.82 1.516-.82.595 0 1.102.273 1.52.82.42.547.631 1.21.631 1.986 0 .773-.21 1.432-.63 1.98-.419.547-.926.82-1.52.82-.591 0-1.096-.273-1.517-.82-.418-.548-.627-1.207-.627-1.98zM34.933 8.27h3.431v5.373h-.981v-4.54h-1.472l-.044 2.125c-.017.689-.12 1.22-.31 1.594-.249.471-.674.787-1.277.945l-.527-.927c.472-.115.79-.294.952-.539.147-.215.221-.572.221-1.073a14863.382 14863.382 0 0 1 .007-2.957zM41.443 12.833a.778.778 0 0 0 .557-.264.863.863 0 0 0 .232-.605.854.854 0 0 0-.228-.604.725.725 0 0 0-.561-.25h-1.129v1.723h1.129zm-2.096.81V8.27h.967v2.034h1.129c.477 0 .884.157 1.221.47.35.322.524.718.524 1.187 0 .469-.173.867-.52 1.194a1.729 1.729 0 0 1-1.229.488h-2.092zM44.16 8.27h.933v1.986c.293-.012.575-.196.845-.553.239-.33.479-.658.72-.986.317-.364.68-.556 1.092-.575l.276.912a2.24 2.24 0 0 0-.38.052.643.643 0 0 0-.306.234l-.753.964c-.09.12-.16.2-.206.238a.614.614 0 0 1-.28.143c.346.052.63.234.848.546.02.03.291.472.815 1.327.416.682.666 1.043.75 1.085h-1.167c-.105-.11-.298-.417-.579-.92l-.564-.993c-.148-.237-.3-.395-.458-.473-.14-.07-.358-.11-.653-.117v2.503h-.933V8.27zM50.452 10.96c0 .53.115.984.347 1.36.23.374.512.56.844.56.328 0 .608-.186.842-.56.233-.376.35-.83.35-1.36 0-.53-.117-.983-.35-1.36-.234-.378-.514-.568-.842-.568-.332 0-.613.19-.844.568-.232.377-.347.83-.347 1.36zm-.963-.004c0-.776.209-1.439.627-1.986.42-.547.926-.82 1.516-.82.596 0 1.102.273 1.52.82.42.547.631 1.21.631 1.986 0 .773-.21 1.432-.63 1.98-.419.547-.925.82-1.52.82-.59 0-1.096-.273-1.517-.82-.418-.548-.627-1.207-.627-1.98zM62.632 9.12l.003.279c.01 1.2-.2 2.344-.63 3.434h1.885V9.12h-1.258zm2.228-.85v4.563h.668v1.744h-.919v-.934h-3.294v.934h-.919v-1.744h.683c.393-1.334.6-2.855.623-4.563h3.158zM67.688 8.27h3.43v5.373h-.98v-4.54h-1.473l-.044 2.125c-.017.689-.12 1.22-.31 1.594-.248.471-.674.787-1.276.945l-.528-.927c.472-.115.79-.294.952-.539.148-.215.221-.572.221-1.073 0-.396.002-.888.004-1.477l.004-1.48zM74.485 9.084c-.253 0-.451.078-.594.234-.13.144-.195.337-.195.58 0 .239.092.433.276.582.187.147.437.22.75.22h.888V9.084h-1.125zm2.084-.814v5.373h-.959v-2.177h-.76c-.273 0-.499.155-.679.465-.29.57-.579 1.14-.867 1.712h-1.202c.165-.152.307-.336.428-.554l.808-1.44c.15-.269.323-.427.52-.476-.197-.035-.41-.18-.638-.436-.254-.289-.38-.582-.38-.88 0-.462.153-.842.46-1.14.308-.298.703-.447 1.185-.447h2.084z"/></g><g fill="#000"><path d="M25.673 20.61v1.616h1.18c.544 0 .82-.269.827-.807.002-.54-.27-.81-.816-.81h-1.191zm0-2.119v1.316h1.11c.51 0 .764-.237.764-.711a.532.532 0 0 0-.225-.454c-.138-.1-.317-.15-.539-.15h-1.11zm1.468-.839c.369 0 .685.13.948.392.263.26.395.572.395.938 0 .284-.078.546-.232.788-.175.274-.398.42-.668.44.295.01.545.159.749.447.184.26.276.54.276.843 0 .457-.129.826-.387 1.107-.256.278-.611.418-1.066.418h-2.328v-5.373h2.313zM30.762 17.652h3.43v5.373h-.98v-4.541H31.74l-.045 2.126c-.017.689-.12 1.22-.31 1.594-.248.471-.673.786-1.276.945l-.528-.927c.473-.115.79-.294.952-.539.148-.215.222-.573.222-1.073 0-.396 0-.889.003-1.477l.004-1.48zM37.508 18.89l-.683 2.262h1.387l-.704-2.261zm-.546-1.238h1.084l1.742 5.373h-1.03l-.332-1.067h-1.819l-.335 1.067h-1.096l1.786-5.373zM43.006 18.502l.004.279c.01 1.2-.2 2.344-.63 3.434h1.884v-3.713h-1.258zm2.229-.85v4.563h.667v1.744h-.918v-.934h-3.295v.934h-.918v-1.744h.682c.394-1.334.601-2.855.624-4.563h3.158zM47.775 19.793h1.963v.817h-1.963v1.587h2.405v.828h-3.298v-5.373h3.298v.829h-2.405zM52.344 17.652h3.43v5.373h-.98v-4.541H53.32l-.044 2.126c-.017.689-.12 1.22-.31 1.594-.248.471-.674.786-1.276.945l-.528-.927c.472-.115.79-.294.952-.539.147-.215.221-.573.221-1.073a14906.483 14906.483 0 0 1 .007-2.957zM58.853 22.215a.778.778 0 0 0 .557-.264.863.863 0 0 0 .233-.605.854.854 0 0 0-.23-.605.725.725 0 0 0-.56-.249h-1.129v1.723h1.129zm-2.095.81v-5.373h.966v2.034h1.13c.476 0 .883.156 1.22.47.35.322.524.717.524 1.187 0 .469-.173.867-.52 1.194a1.729 1.729 0 0 1-1.229.488h-2.091zM62.548 22.182h1.985v-4.53h.978v4.53h.627v1.642h-.834v-.8H61.57v-5.372h.978zM68.014 19.793h1.962v.817h-1.962v1.587h2.405v.828H67.12v-5.373h3.298v.829h-2.405zM72.247 20.61v1.616h1.18c.544 0 .82-.269.826-.807.003-.54-.269-.81-.815-.81h-1.191zm0-2.119v1.316h1.11c.51 0 .764-.237.764-.711a.532.532 0 0 0-.225-.454c-.138-.1-.318-.15-.539-.15h-1.11zm1.468-.839c.369 0 .685.13.948.392.263.26.395.572.395.938 0 .284-.078.546-.233.788-.174.274-.397.42-.667.44.295.01.544.159.748.447.185.26.277.54.277.843 0 .457-.129.826-.387 1.107-.256.278-.611.418-1.066.418h-2.328v-5.373h2.313z"/></g><g fill="#000"><path d="M25.823 27.034v5.372h-.908v-4.58h-2.05v4.58h-.909v-5.372zM29.13 28.273l-.682 2.26h1.387l-.705-2.26zm-.546-1.239h1.085l1.741 5.373h-1.029l-.332-1.067H28.23l-.335 1.067h-1.096l1.785-5.373zM34.386 27.833h-1.133v1.722h1.133a.723.723 0 0 0 .571-.26.86.86 0 0 0 .218-.597.887.887 0 0 0-.229-.598.71.71 0 0 0-.56-.267zm-1.993-.799h2.092c.477 0 .888.164 1.232.491.347.325.52.723.52 1.195 0 .469-.173.863-.52 1.184a1.746 1.746 0 0 1-1.224.476H33.36v2.027h-.967v-5.373zM37.22 27.034h.934v1.986c.293-.012.574-.196.845-.553.238-.33.478-.659.72-.986.317-.364.68-.556 1.091-.575l.277.912a2.24 2.24 0 0 0-.38.052.643.643 0 0 0-.306.234l-.753.964c-.09.12-.16.2-.206.238a.614.614 0 0 1-.28.143c.346.051.629.233.848.546.02.03.291.472.815 1.327.416.681.665 1.043.749 1.085h-1.166c-.106-.11-.299-.417-.579-.92l-.564-.993c-.148-.237-.3-.395-.458-.473-.14-.071-.358-.11-.653-.117v2.503h-.933v-5.373zM43.513 29.724c0 .53.115.983.346 1.36.232.373.513.56.845.56.327 0 .608-.187.841-.56.234-.377.35-.83.35-1.36 0-.53-.116-.983-.35-1.36-.233-.378-.514-.568-.84-.568-.333 0-.614.19-.846.568-.23.377-.346.83-.346 1.36zm-.963-.004c0-.777.209-1.439.627-1.986.42-.547.926-.821 1.516-.821.595 0 1.102.274 1.52.82.42.548.631 1.21.631 1.987 0 .772-.21 1.432-.63 1.98-.419.547-.926.82-1.52.82-.591 0-1.097-.273-1.517-.82-.418-.548-.627-1.208-.627-1.98zM48.664 29.991v1.617h1.181c.544 0 .82-.27.826-.807.003-.54-.269-.81-.815-.81h-1.192zm0-2.118v1.316h1.111c.51 0 .764-.237.764-.711a.532.532 0 0 0-.225-.455c-.138-.1-.318-.15-.539-.15h-1.11zm1.469-.839c.369 0 .685.13.948.392.263.26.395.572.395.938 0 .284-.078.546-.233.788-.174.274-.397.42-.667.44.295.01.544.159.748.447.185.26.277.54.277.843 0 .457-.129.826-.387 1.107-.256.278-.611.418-1.066.418H47.82v-5.373h2.313zM53.536 29.724c0 .53.116.983.347 1.36.231.373.513.56.845.56.327 0 .607-.187.84-.56.234-.377.351-.83.351-1.36 0-.53-.117-.983-.35-1.36-.234-.378-.514-.568-.841-.568-.332 0-.614.19-.845.568-.231.377-.347.83-.347 1.36zm-.963-.004c0-.777.21-1.439.627-1.986.42-.547.926-.821 1.517-.821.595 0 1.101.274 1.52.82.42.548.63 1.21.63 1.987 0 .772-.21 1.432-.63 1.98-.419.547-.925.82-1.52.82-.59 0-1.096-.273-1.517-.82-.418-.548-.627-1.208-.627-1.98zM57.843 29.185v-2.151h.86v2.144c0 .332.214.498.642.498.371 0 .821-.137 1.35-.41v-2.232h.896v5.373h-.896v-2.328c-.52.24-1.009.36-1.468.36-.419 0-.75-.103-.993-.308-.26-.218-.39-.533-.39-.946zM65.573 27.034h.893v5.38h-.893v-2.467h-2.11v2.467h-.896v-5.38h.896v2.122h2.11zM71.722 27.034h.878v5.373h-.878v-5.373zm-2.21 4.53a.77.77 0 0 0 .557-.264.861.861 0 0 0 .229-.598.857.857 0 0 0-.225-.6.73.73 0 0 0-.561-.246H68.39v1.708h1.122zm-2.073.843v-5.373h.951v2.016h1.122c.475 0 .88.155 1.214.465.346.323.52.715.52 1.176 0 .47-.171.873-.513 1.21a1.68 1.68 0 0 1-1.221.506h-2.073zM73.76 27.034h1.151l.9 1.546.9-1.546h1.151l-1.476 2.528 1.657 2.844H76.9l-1.088-1.854-1.088 1.854H73.58l1.656-2.844z"/></g><g fill="#000"><path d="M27.366 37.215h-1.132v1.722h1.132a.723.723 0 0 0 .572-.26.86.86 0 0 0 .218-.597.887.887 0 0 0-.23-.598.71.71 0 0 0-.56-.267zm-1.992-.8h2.092c.477 0 .888.165 1.232.492.347.325.52.723.52 1.195 0 .469-.173.863-.52 1.183a1.746 1.746 0 0 1-1.225.477H26.34v2.026h-.966v-5.372zM32.533 37.655l-.683 2.26h1.387l-.704-2.26zm-.546-1.24h1.084l1.742 5.373h-1.03l-.332-1.066h-1.818l-.336 1.066H30.2l1.786-5.372zM37.33 38.604v.806a2.67 2.67 0 0 1 .336-.022c.377 0 .67.084.882.253.184.151.277.34.277.568a.769.769 0 0 1-.262.579c-.192.176-.438.264-.738.264-.45 0-.94-.203-1.468-.609l-.561.755c.802.44 1.517.66 2.147.66.558 0 1.002-.167 1.332-.502.292-.293.439-.65.439-1.07 0-.315-.088-.589-.262-.821a1.23 1.23 0 0 0-.779-.476c.623-.23.934-.623.934-1.18 0-.374-.151-.702-.454-.983-.322-.305-.735-.464-1.24-.476-.587-.017-1.216.173-1.885.572l.469.799c.477-.386.92-.58 1.328-.58.366 0 .622.135.767.404.14.263.108.508-.096.733-.23.254-.62.362-1.165.326zM42.689 37.215h-1.133v1.722h1.133a.723.723 0 0 0 .572-.26.86.86 0 0 0 .218-.597.887.887 0 0 0-.23-.598.71.71 0 0 0-.56-.267zm-1.992-.8h2.092c.477 0 .888.165 1.232.492.347.325.52.723.52 1.195 0 .469-.173.863-.52 1.183a1.746 1.746 0 0 1-1.225.477h-1.133v2.026h-.966v-5.372zM46.417 38.556h1.962v.817h-1.962v1.587h2.405v.828h-3.298v-5.372h3.298v.828h-2.405zM52.332 36.416h.893v4.548h1.583v-4.548h.955v5.372h-5.958v-5.372h.956v4.548h1.571zM57.635 38.556h1.963v.817h-1.963v1.587h2.406v.828h-3.298v-5.372h3.298v.828h-2.406zM64.03 36.416h.893v5.38h-.893V39.33h-2.11v2.467h-.896v-5.38h.896v2.122h2.11zM68.828 36.416h.908v5.372h-.864v-3.932l-2.065 3.932H65.9v-5.372h.856v3.8zM73.752 36.416h.907v5.372h-.863v-3.932l-2.066 3.932h-.908v-5.372h.856v3.8l2.074-3.8zm.41-1.576c-.033.415-.177.74-.432.975-.256.234-.586.352-.99.352-.464 0-.832-.115-1.102-.345-.268-.23-.417-.557-.447-.982h.587c.125.442.427.663.904.663.47 0 .767-.22.893-.663h.586z"/></g></g></svg>