<?xml version="1.0" encoding="UTF-8"?>
<svg id="_Слой_1" data-name=" Слой 1" xmlns="http://www.w3.org/2000/svg" width="108" height="159" viewBox="0 0 108 159">
  <defs>
    <style>
      .cls-1, .cls-2 {
        fill: none;
      }

      .cls-3 {
        fill: #fff;
      }

      .cls-4 {
        fill: #8b8b8b;
      }

      .cls-5 {
        fill: #0d69e1;
      }

      .cls-2 {
        stroke: #000;
      }
    </style>
  </defs>
  <g>
    <path class="cls-4" d="m42.88,147.41l-3.77,7.42h-1.25l4-7.7h-4.51v-1.03h5.54v1.31h0Z"/>
    <path class="cls-4" d="m44.95,154.82h-1.4v-1.67h1.4v1.67Z"/>
    <path class="cls-4" d="m51.65,154.82h-4.25v-.89h1.58v-5.85h-1.58v-.8c.6,0,1.04-.08,1.32-.25s.44-.49.48-.96h.91v7.86h1.55v.89h0Z"/>
    <path class="cls-4" d="m58.87,151.82h-1.04v3h-1.12v-3h-3.86v-1.23l3.9-4.49h1.08v4.79h1.04v.94h0Zm-2.16-.96v-3.41l-2.94,3.41h2.94Z"/>
    <path class="cls-4" d="m61.57,154.82h-1.4v-1.67h1.4v1.67Z"/>
    <path class="cls-4" d="m68.27,154.82h-4.25v-.89h1.58v-5.85h-1.58v-.8c.6,0,1.04-.08,1.32-.25s.44-.49.48-.96h.91v7.86h1.55v.89h-.01Z"/>
  </g>
  <path class="cls-1" d="m0,0h108v159H0V0Z"/>
  <path class="cls-3" d="m8.53,2.72h89.96c3.48,0,6.3,2.82,6.3,6.3h0v123.95c0,3.48-2.82,6.3-6.3,6.3H8.53c-3.48,0-6.3-2.82-6.3-6.3h0V9.02c0-3.48,2.82-6.3,6.3-6.3Z"/>
  <path class="cls-5" d="m6.72,4.2h93.67c1.66,0,3,1.34,3,3v127.67c0,1.66-1.34,3-3,3H6.72c-1.66,0-3-1.34-3-3V7.2c0-1.66,1.34-3,3-3Z"/>
  <path class="cls-2" d="m6.01,2.5h95c2.21,0,4,1.79,4,4v129c0,2.21-1.79,4-4,4H6.01c-2.21,0-4-1.79-4-4V6.5c0-2.21,1.79-4,4-4Z"/>
  <rect class="cls-3" x="15.2" y="16.5" width="75.97" height="73.9"/>
  <path d="m28.83,45.31c-1.01,0-1.95.5-2.52,1.33l-4.77,7.02c-.34.5-.52,1.09-.52,1.69v7.29c0,1.67,1.36,3.02,3.04,3.02h2.74c.16-3.36,2.95-6.04,6.37-6.04s6.21,2.68,6.37,6.04h23.72c.11-2.35,1.52-4.44,3.65-5.44h-26.46v-11.89c0-1.67-1.36-3.02-3.04-3.02h-8.6s.02,0,.02,0Zm.16,1.81h6.93c.84,0,1.52.68,1.52,1.51v4.23c0,.83-.68,1.51-1.52,1.51h-9.8c-.83,0-1.51-.67-1.52-1.51h0c0-.3.09-.6.26-.84l2.87-4.23c.28-.42.75-.67,1.26-.67h0Z"/>
  <path d="m45.34,39.79c-1.67,0-3.03,1.34-3.04,3.01h0v16.29h39.51v-16.28c0-1.67-1.36-3.02-3.04-3.02,0,0-33.43,0-33.43,0Zm24.31,21.03c-2.85,0-5.17,2.3-5.17,5.13s2.31,5.13,5.17,5.13,5.17-2.3,5.17-5.13-2.31-5.13-5.17-5.13Zm0,2.42c1.51,0,2.74,1.22,2.74,2.72s-1.23,2.72-2.74,2.72-2.73-1.21-2.74-2.72h0c0-1.51,1.23-2.72,2.74-2.72h0Z"/>
  <path d="m76.02,65.65c-.11-2.41-1.58-4.46-3.66-5.43h9.44v5.43h-5.78Zm-42.84-4.83c-2.85,0-5.17,2.3-5.17,5.13s2.31,5.13,5.17,5.13,5.17-2.3,5.17-5.13-2.31-5.13-5.17-5.13Zm0,2.42c1.51,0,2.74,1.22,2.74,2.72s-1.23,2.72-2.74,2.72-2.73-1.21-2.74-2.72h0c0-1.51,1.23-2.72,2.74-2.72h0Z"/>
  <g>
    <path class="cls-3" d="m18.36,110.53v-7.05h-2.69v-.95h6.43v.95h-2.69v7.05h-1.06Z"/>
    <path class="cls-3" d="m22.05,110.53l2.7-8h1.31l2.7,8h-1.12l-.73-2.23h-3.06l-.73,2.23h-1.07Zm4.56-3.14l-1.24-3.77-1.23,3.77h2.47Z"/>
    <path class="cls-3" d="m36.37,110.53h-1.06v-6.89l-2.08,4.69h-.64l-2.07-4.69v6.89h-.99v-8h1.45l2,4.45,1.93-4.45h1.48v8Z"/>
    <path class="cls-3" d="m43.65,103.45c.3.35.54.79.71,1.31.17.52.25,1.11.25,1.78s-.08,1.23-.25,1.76c-.16.52-.4.96-.71,1.32-.33.37-.71.65-1.14.82-.43.18-.91.27-1.44.27s-1.03-.09-1.46-.27-.81-.46-1.12-.82c-.31-.35-.54-.79-.71-1.31s-.25-1.11-.25-1.76.08-1.26.25-1.77c.17-.51.4-.95.71-1.31.31-.35.68-.62,1.11-.81.43-.18.92-.28,1.46-.28s1.03.09,1.47.29c.44.19.81.46,1.11.8Zm-.15,3.08c0-.53-.06-1-.17-1.41s-.28-.75-.48-1.01c-.21-.28-.47-.48-.77-.62-.3-.14-.63-.21-1.01-.21s-.72.07-1.01.2c-.29.13-.54.34-.77.63-.21.27-.37.61-.49,1.03-.11.41-.17.88-.17,1.4,0,1.05.22,1.85.66,2.41s1.03.83,1.77.83,1.33-.28,1.77-.83c.44-.56.66-1.36.66-2.41Z"/>
    <path class="cls-3" d="m54.87,110.53h-1.31l-2.66-3.68h-.52v3.68h-1.05v-3.68h-.53l-2.66,3.68h-1.25l3.02-4.12c-.23-.15-.44-.34-.61-.57-.17-.23-.34-.61-.51-1.13-.14-.46-.3-.78-.46-.96-.16-.18-.47-.26-.93-.26h-.21v-.95h.27c.6,0,1.06.12,1.39.34.33.23.6.65.82,1.27.05.16.11.31.16.46s.1.27.14.37c.16.38.35.67.57.85.22.18.48.29.79.32v-3.61h1.05v3.62c.33-.03.61-.14.83-.31.22-.18.42-.47.58-.87.06-.16.12-.31.17-.46.05-.14.09-.27.13-.37.21-.61.49-1.03.82-1.26.33-.23.79-.35,1.39-.35h.27v.95h-.21c-.46,0-.77.09-.94.27-.17.18-.32.5-.46.95-.15.48-.32.83-.52,1.07s-.4.43-.63.57l3.06,4.19Z"/>
    <path class="cls-3" d="m55.61,110.53v-8h5v.95h-3.94v2.19h3.67v.95h-3.67v2.97h3.94v.95h-5Z"/>
    <path class="cls-3" d="m67.58,110.53h-1.06v-3.92h-3.68v3.92h-1.06v-8h1.06v3.14h3.68v-3.14h1.06v8Z"/>
    <path class="cls-3" d="m75.01,110.53h-1.06v-3.92h-3.68v3.92h-1.06v-8h1.06v3.14h3.68v-3.14h1.06v8Z"/>
    <path class="cls-3" d="m81.91,108.05c0,.39-.08.74-.23,1.05-.15.32-.35.57-.61.77-.3.24-.62.4-.97.5s-.79.15-1.33.15h-2.14v-8h1.06v3.14h1.11c.54,0,.99.03,1.33.09s.67.21.97.45c.27.21.47.47.6.78s.19.66.19,1.06Zm-1.11.02c0-.27-.04-.5-.13-.71-.09-.2-.23-.37-.42-.49-.2-.13-.42-.21-.68-.24s-.62-.04-1.09-.04h-.78v3.03h.75c.48,0,.84-.02,1.1-.07s.48-.14.67-.27c.2-.14.35-.3.44-.49.09-.19.14-.43.14-.72Zm2.89,2.46h-1.06v-8h1.06v8Z"/>
    <path class="cls-3" d="m91.06,110.53h-1.06v-6.35l-3.61,6.35h-1.07v-8h1.06v6.25l3.57-6.25h1.12v8Zm-.79-10.39c-.01.54-.18.97-.51,1.3-.33.33-.82.49-1.48.49s-1.15-.16-1.48-.49c-.33-.33-.5-.76-.51-1.3h.96c0,.4.1.69.27.87.17.18.43.27.76.27s.59-.09.76-.26c.17-.17.26-.46.27-.87h.96Z"/>
    <path class="cls-3" d="m32.51,123.73h-1.35l-2.83-3.66h-.67v3.66h-1.06v-8h1.06v3.6c.42-.01.75-.12,1-.32.25-.2.44-.48.6-.85.06-.16.12-.31.17-.46.05-.14.09-.27.13-.37.21-.61.49-1.03.82-1.26.33-.23.79-.35,1.39-.35h.33v.95h-.27c-.44,0-.74.08-.92.25s-.34.49-.48.96-.31.82-.49,1.04c-.18.22-.4.41-.66.58l3.24,4.21Z"/>
    <path class="cls-3" d="m38.88,116.65c.3.35.54.79.71,1.31.17.52.25,1.11.25,1.78s-.08,1.23-.25,1.76c-.16.52-.4.96-.71,1.32-.33.37-.71.65-1.14.82-.43.18-.91.27-1.44.27s-1.03-.09-1.46-.27-.81-.46-1.12-.82c-.31-.35-.54-.79-.71-1.31s-.25-1.11-.25-1.76.08-1.26.25-1.77c.17-.51.4-.95.71-1.31.31-.35.68-.62,1.11-.81.43-.18.92-.28,1.46-.28s1.03.09,1.47.29c.44.19.81.46,1.11.8Zm-.15,3.08c0-.53-.06-1-.17-1.41s-.28-.75-.48-1.01c-.21-.28-.47-.48-.77-.62-.3-.14-.63-.21-1.01-.21s-.72.07-1.01.2c-.29.13-.54.34-.77.63-.21.27-.37.61-.49,1.03-.11.41-.17.88-.17,1.4,0,1.05.22,1.85.66,2.41s1.03.83,1.77.83,1.33-.28,1.77-.83c.44-.56.66-1.36.66-2.41Z"/>
    <path class="cls-3" d="m46.82,123.73h-1.06v-3.92h-3.68v3.92h-1.06v-8h1.06v3.14h3.68v-3.14h1.06v8Z"/>
    <path class="cls-3" d="m50.31,123.73v-7.05h-2.69v-.95h6.43v.95h-2.69v7.05h-1.06Z"/>
    <path class="cls-3" d="m59.91,118.14c0,.35-.06.68-.19.99-.12.31-.29.57-.51.79-.28.27-.6.48-.97.62-.37.14-.84.21-1.41.21h-.9v2.98h-1.06v-8h2.01c.47,0,.88.04,1.21.12.33.08.63.21.88.38.3.2.53.46.7.78.17.31.25.69.25,1.14Zm-1.11.03c0-.28-.05-.52-.14-.72-.09-.2-.24-.37-.43-.5-.17-.11-.36-.19-.59-.24s-.5-.07-.83-.07h-.88v3.2h.72c.43,0,.78-.04,1.04-.1.27-.07.49-.19.66-.37.16-.16.27-.34.34-.53.07-.19.11-.41.11-.67Z"/>
    <path class="cls-3" d="m66.58,116.65c.3.35.54.79.71,1.31.17.52.25,1.11.25,1.78s-.08,1.23-.25,1.76c-.16.52-.4.96-.71,1.32-.33.37-.71.65-1.14.82-.43.18-.91.27-1.44.27s-1.03-.09-1.46-.27c-.43-.18-.81-.46-1.12-.82-.31-.35-.54-.79-.71-1.31-.17-.52-.25-1.11-.25-1.76s.08-1.26.25-1.77c.17-.51.4-.95.71-1.31.31-.35.68-.62,1.12-.81.43-.18.92-.28,1.46-.28s1.03.09,1.47.29c.44.19.81.46,1.11.8Zm-.15,3.08c0-.53-.06-1-.17-1.41-.11-.41-.28-.75-.48-1.01-.21-.28-.47-.48-.76-.62-.3-.14-.63-.21-1.01-.21s-.72.07-1.01.2c-.29.13-.54.34-.77.63-.21.27-.37.61-.49,1.03-.11.41-.17.88-.17,1.4,0,1.05.22,1.85.66,2.41s1.03.83,1.77.83,1.33-.28,1.77-.83c.44-.56.66-1.36.66-2.41Z"/>
    <path class="cls-3" d="m74.54,123.73h-1.06v-7.05h-2.7c-.01.41-.03.8-.04,1.18-.02.38-.03.73-.04,1.03-.03.76-.07,1.38-.14,1.88-.06.49-.14.91-.24,1.24-.1.33-.21.59-.34.79-.13.2-.27.37-.43.51-.16.15-.33.26-.52.33s-.4.11-.64.11c-.08,0-.15,0-.23,0-.08,0-.14,0-.18,0v-1.03h.08s.07,0,.09.01c.03,0,.06,0,.11,0,.13,0,.25-.02.36-.06.11-.04.21-.1.29-.18.24-.24.42-.67.53-1.28.11-.61.19-1.44.24-2.48.02-.35.04-.81.05-1.39.02-.58.03-1.11.05-1.59h4.76v8Z"/>
    <path class="cls-3" d="m81.56,121.25c0,.39-.08.74-.23,1.05-.15.32-.35.57-.61.77-.3.24-.62.4-.97.5s-.79.15-1.33.15h-2.26v-8h1.06v3.14h1.23c.54,0,.99.03,1.33.09s.67.21.97.45c.27.21.47.47.6.78s.19.66.19,1.06Zm-1.11.02c0-.27-.04-.5-.13-.71-.09-.2-.23-.37-.42-.49-.2-.13-.42-.21-.68-.24s-.62-.04-1.09-.04h-.9v3.03h.87c.48,0,.84-.02,1.1-.07.26-.05.48-.14.67-.27.2-.14.35-.3.44-.49.09-.19.14-.43.14-.72Z"/>
  </g>
</svg>