<svg width="100" height="86" viewBox="0 0 100 86" fill="none" xmlns="http://www.w3.org/2000/svg">
<path d="M84.8571 3H15.1429C12.3025 3 10 5.30254 10 8.14286V77.8571C10 80.6975 12.3025 83 15.1429 83H84.8571C87.6975 83 90 80.6975 90 77.8571V8.14286C90 5.30254 87.6975 3 84.8571 3Z" fill="white"/>
<path d="M84.8571 3.11429H15.1429C12.3657 3.11429 10.1143 5.36566 10.1143 8.14286V77.8571C10.1143 80.6343 12.3657 82.8857 15.1429 82.8857H84.8571C87.6343 82.8857 89.8857 80.6343 89.8857 77.8571V8.14286C89.8857 5.36566 87.6343 3.11429 84.8571 3.11429Z" stroke="black"/>
<path fill-rule="evenodd" clip-rule="evenodd" d="M12.2857 8.14286C12.2857 6.56481 13.5648 5.28572 15.1428 5.28572H84.8571C86.4351 5.28572 87.7143 6.56481 87.7143 8.14286V77.8571C87.7143 79.4351 86.4351 80.7143 84.8571 80.7143H54V77.6666C54 76.2266 55.2266 74.7066 56.7999 72.76L74.2133 52.4933C77.0933 49.32 79.2 45.9066 79.2 42.4666V29.6666H85.9199L75.2 11L64.6666 29.6666H71.2266L71.2532 41.3999C71.2532 43.3466 70.24 45.56 68.32 48.04L54 64.6266V29.6666H60.7732L50 11L39.2266 29.6666H46V64.6266L31.68 48.04C29.76 45.56 28.7466 43.3466 28.7466 41.3999L28.7732 29.6666H35.3332L24.8 11L14.08 29.6666H20.8V42.4666C20.8 45.9066 22.9066 49.32 25.7866 52.4933L43.2 72.76C44.7732 74.7066 46 76.2266 46 77.6666V80.7143H15.1428C13.5648 80.7143 12.2857 79.4351 12.2857 77.8571V8.14286Z" fill="#0D69E1"/>
<path fill-rule="evenodd" clip-rule="evenodd" d="M24.6666 33.1828C18.3611 33.1828 13.2495 38.2944 13.2495 44.6C13.2495 50.9056 18.3611 56.0171 24.6666 56.0171C30.9721 56.0171 36.0838 50.9055 36.0838 44.6C36.0838 38.2945 30.9721 33.1828 24.6666 33.1828Z" fill="white"/>
<path fill-rule="evenodd" clip-rule="evenodd" d="M18.0403 47.3522C17.7476 47.3522 17.4759 47.0944 17.4759 46.7808V44.4466L18.7021 42.3703C18.8276 42.1612 18.9739 42.0357 19.1481 42.0357H21.329C21.6147 42.0357 21.8865 42.3215 21.8865 42.5584V46.0492H27.8927C27.4258 46.3001 27.1123 46.7877 27.1123 47.3522H21.6287C21.6287 46.537 20.9667 45.882 20.1585 45.882C19.3432 45.882 18.6883 46.537 18.6883 47.3522H18.0403ZM18.7509 44.2515C18.4514 44.2515 18.2911 43.8613 18.5001 43.5547L19.1481 42.5584H20.8483C21.0016 42.5584 21.113 42.7395 21.113 42.8788V43.8404C21.113 44.0704 20.89 44.2515 20.7507 44.2515H18.7509ZM30.0527 47.3522C30.0527 46.7877 29.7391 46.3001 29.2723 46.0562L31.3696 46.0492V47.3522H30.0527ZM22.2627 45.5893V40.7676C22.2627 40.3914 22.5763 40.0708 22.9247 40.0708H30.5891C31.0003 40.0708 31.3696 40.3984 31.3696 40.7676V45.5893H22.2627ZM20.1585 46.2234C19.5384 46.2234 19.0297 46.7251 19.0297 47.3522C19.0297 47.9723 19.5384 48.474 20.1585 48.474C20.7786 48.474 21.2872 47.9723 21.2872 47.3522C21.2872 46.7251 20.7786 46.2234 20.1585 46.2234ZM20.1585 46.7738C19.8379 46.7738 19.5801 47.0316 19.5801 47.3522C19.5801 47.6728 19.8379 47.9305 20.1585 47.9305C20.4791 47.9305 20.7368 47.6727 20.7368 47.3522C20.7368 47.0317 20.4789 46.7738 20.1585 46.7738ZM28.5825 46.2234C27.9624 46.2234 27.4537 46.7251 27.4537 47.3522C27.4537 47.9723 27.9624 48.474 28.5825 48.474C29.2026 48.474 29.7112 47.9723 29.7112 47.3522C29.7112 46.7251 29.2026 46.2234 28.5825 46.2234ZM28.5825 46.7738C28.2619 46.7738 28.0041 47.0316 28.0041 47.3522C28.0041 47.6728 28.2619 47.9305 28.5825 47.9305C28.9031 47.9305 29.1608 47.6727 29.1608 47.3522C29.1608 47.0317 28.9029 46.7738 28.5825 46.7738Z" fill="black"/>
<path fill-rule="evenodd" clip-rule="evenodd" d="M24.6666 33.8C18.7019 33.8 13.8666 38.6353 13.8666 44.6C13.8666 50.5647 18.7019 55.4 24.6666 55.4C30.6313 55.4 35.4666 50.5645 35.4666 44.6C35.4666 38.6354 30.6313 33.8 24.6666 33.8ZM24.6666 35.8903C19.8563 35.8903 15.9569 39.7897 15.9569 44.6C15.9569 49.4103 19.8563 53.3096 24.6666 53.3096C29.4769 53.3096 33.3763 49.4101 33.3763 44.6C33.3763 39.7898 29.4768 35.8903 24.6666 35.8903Z" fill="#FF0000"/>
</svg>
