<svg width="100" height="86" viewBox="0 0 100 86" fill="none" xmlns="http://www.w3.org/2000/svg">
<path d="M84.8571 3H15.1429C12.3025 3 10 5.30254 10 8.14286V77.8571C10 80.6975 12.3025 83 15.1429 83H84.8571C87.6975 83 90 80.6975 90 77.8571V8.14286C90 5.30254 87.6975 3 84.8571 3Z" fill="white"/>
<path d="M84.8571 3.11429H15.1429C12.3657 3.11429 10.1143 5.36566 10.1143 8.14286V77.8571C10.1143 80.6343 12.3657 82.8857 15.1429 82.8857H84.8571C87.6343 82.8857 89.8857 80.6343 89.8857 77.8571V8.14286C89.8857 5.36566 87.6343 3.11429 84.8571 3.11429Z" stroke="black"/>
<path fill-rule="evenodd" clip-rule="evenodd" d="M12.2857 8.14286C12.2857 6.56481 13.5648 5.28572 15.1429 5.28572H84.8572C86.4351 5.28572 87.7143 6.56481 87.7143 8.14286V77.8571C87.7143 79.4351 86.4351 80.7143 84.8572 80.7143H54V77.6666C54 76.2266 55.2266 74.7066 56.7999 72.76L74.2133 52.4933C77.0933 49.32 79.2 45.9066 79.2 42.4666V29.6666H85.9199L75.2 11L64.6667 29.6666H71.2266L71.2533 41.3999C71.2533 43.3466 70.24 45.56 68.32 48.04L54 64.6266V29.6666H60.7733L50 11L39.2267 29.6666H46V64.6266L31.68 48.04C29.76 45.56 28.7467 43.3466 28.7467 41.3999L28.7733 29.6666H35.3333L24.8 11L14.08 29.6666H20.8V42.4666C20.8 45.9066 22.9066 49.32 25.7866 52.4933L43.2 72.76C44.7733 74.7066 46 76.2266 46 77.6666V80.7143H15.1429C13.5648 80.7143 12.2857 79.4351 12.2857 77.8571V8.14286Z" fill="#0D69E1"/>
<path fill-rule="evenodd" clip-rule="evenodd" d="M75.3333 33.1828C69.0278 33.1828 63.9161 38.2944 63.9161 44.6C63.9161 50.9056 69.0278 56.0171 75.3333 56.0171C81.6388 56.0171 86.7504 50.9055 86.7504 44.6C86.7504 38.2945 81.6388 33.1828 75.3333 33.1828Z" fill="white"/>
<path fill-rule="evenodd" clip-rule="evenodd" d="M69.9051 40.7677H74.3086L73.925 41.9182H71.0543V43.8343C71.1536 43.7626 71.2543 43.7033 71.3578 43.655C71.4626 43.6081 71.5674 43.5695 71.6751 43.5405C71.7827 43.5115 71.8903 43.4895 71.9965 43.4757C72.1041 43.4632 72.2145 43.4536 72.3262 43.4509H72.3828C72.4918 43.4509 72.6036 43.4591 72.7193 43.4757C72.8532 43.5005 72.9842 43.535 73.1153 43.5805C73.2478 43.6274 73.376 43.6867 73.5016 43.7598C73.6271 43.8329 73.7457 43.9171 73.8561 44.0122C73.9678 44.1074 74.07 44.2165 74.1637 44.3392C74.2575 44.4619 74.3375 44.5958 74.4038 44.7407C74.47 44.8855 74.5224 45.0427 74.5624 45.2111C74.601 45.3793 74.6204 45.5587 74.6204 45.7504C74.6204 45.9822 74.5969 46.2001 74.5486 46.4043C74.5017 46.6085 74.4354 46.8002 74.35 46.9782C74.2645 47.1575 74.1637 47.3217 74.0464 47.4721C73.9278 47.621 73.7996 47.7576 73.6575 47.8805C73.5167 48.0032 73.3664 48.1107 73.2077 48.2018C73.049 48.2943 72.8863 48.3715 72.7193 48.4322C72.5525 48.4943 72.3841 48.5398 72.2145 48.5729C72.0434 48.6047 71.8751 48.6211 71.7082 48.6211C71.5965 48.6211 71.4861 48.6157 71.3785 48.6061C71.2709 48.5963 71.1661 48.5825 71.0626 48.5647C70.9577 48.5481 70.8584 48.5274 70.7632 48.5039C70.668 48.4805 70.5757 48.4543 70.4873 48.4253C70.3991 48.3963 70.3149 48.3646 70.2362 48.3329C70.159 48.2998 70.0873 48.268 70.0224 48.2363C69.9576 48.2032 69.8983 48.1714 69.8459 48.1384C69.7935 48.1066 69.7479 48.0749 69.7106 48.0446L69.6445 46.8995C69.7397 46.9409 69.8445 46.9824 69.9576 47.0279C70.0721 47.072 70.1949 47.112 70.326 47.1493C70.4571 47.1879 70.5991 47.2183 70.7523 47.2445C70.9068 47.2706 71.0695 47.2831 71.2434 47.2831C71.3247 47.2831 71.4158 47.2747 71.5138 47.2597C71.6131 47.2445 71.7151 47.2224 71.8213 47.1934C71.9262 47.1645 72.0324 47.1272 72.14 47.0831C72.2476 47.0389 72.3498 46.9865 72.4491 46.9245C72.5484 46.8637 72.6407 46.7934 72.7277 46.7161C72.8146 46.6375 72.8891 46.5491 72.9525 46.4526C73.016 46.356 73.0656 46.2485 73.1029 46.1312C73.1402 46.0126 73.1595 45.8856 73.1595 45.7504C73.1595 45.6415 73.1499 45.5394 73.1291 45.4429C73.1084 45.3477 73.0795 45.2593 73.0422 45.1779C73.005 45.0966 72.9595 45.0193 72.9084 44.9475C72.8574 44.8759 72.8008 44.8123 72.7373 44.7558C72.6752 44.6993 72.6077 44.6496 72.5359 44.6055C72.4641 44.5614 72.3897 44.5241 72.3111 44.4951C72.2325 44.4662 72.1524 44.4455 72.0683 44.4317C71.9855 44.4178 71.9028 44.411 71.8213 44.411C71.7124 44.411 71.609 44.4192 71.511 44.4371C71.4144 44.4537 71.3192 44.4841 71.2254 44.5282C71.1316 44.5737 71.0391 44.633 70.9495 44.7075C70.8598 44.7821 70.766 44.8745 70.6709 44.9834L69.9052 44.6L69.9051 40.7677ZM77.5941 46.825C77.6657 46.923 77.7416 47.0045 77.8216 47.0706C77.9017 47.1368 77.9845 47.1893 78.0713 47.2265C78.1583 47.2638 78.2493 47.2831 78.3445 47.2831C78.4369 47.2831 78.5266 47.2638 78.6135 47.2265C78.7003 47.1893 78.7832 47.1368 78.8632 47.0706C78.9432 47.0045 79.0191 46.923 79.0908 46.825C79.1625 46.7286 79.2287 46.6182 79.2895 46.4954C79.3516 46.3726 79.4054 46.2402 79.4536 46.0967C79.5018 45.9546 79.542 45.8029 79.5764 45.6429C79.6109 45.4829 79.637 45.3159 79.655 45.1421C79.6743 44.9682 79.684 44.7875 79.684 44.6C79.684 44.4165 79.6743 44.2371 79.655 44.0619C79.637 43.8854 79.6109 43.7184 79.5764 43.5584C79.542 43.3984 79.5018 43.2466 79.4536 43.1032C79.4054 42.9598 79.3516 42.8287 79.2895 42.7073C79.2287 42.5858 79.1625 42.4769 79.0908 42.3803C79.0191 42.2838 78.9432 42.201 78.8632 42.132C78.7832 42.0645 78.7003 42.012 78.6135 41.9761C78.5266 41.9402 78.4369 41.9223 78.3445 41.9223C78.2493 41.9223 78.1583 41.9402 78.0713 41.9761C77.9845 42.012 77.9017 42.0645 77.8216 42.132C77.7416 42.201 77.6657 42.2838 77.5941 42.3803C77.5223 42.4769 77.4561 42.5858 77.3941 42.7073C77.3333 42.8287 77.2782 42.9598 77.2312 43.1032C77.183 43.2466 77.143 43.3984 77.1085 43.5584C77.0739 43.7184 77.0478 43.8854 77.0298 44.0619C77.0105 44.2371 77.0008 44.4165 77.0008 44.6C77.0008 44.7875 77.0105 44.9682 77.0298 45.1421C77.0478 45.3159 77.0739 45.4829 77.1085 45.6429C77.143 45.8029 77.183 45.9546 77.2312 46.0967C77.2782 46.2402 77.3333 46.3726 77.3941 46.4954C77.4561 46.6182 77.5223 46.7286 77.5941 46.825ZM78.3445 48.6211C78.1569 48.6211 77.9761 48.5936 77.8009 48.5398C77.6257 48.4846 77.4575 48.4073 77.2975 48.3053C77.1374 48.2018 76.9857 48.0791 76.8422 47.9342C76.7001 47.7894 76.5677 47.6266 76.4463 47.4431C76.3263 47.261 76.2173 47.0638 76.1193 46.8486C76.0228 46.6334 75.94 46.4071 75.8725 46.1657C75.8034 45.9256 75.7524 45.6746 75.7166 45.4125C75.6807 45.1504 75.6628 44.88 75.6628 44.6C75.6628 44.324 75.6807 44.0551 75.7166 43.7929C75.7524 43.5309 75.8034 43.2784 75.8725 43.0369C75.94 42.7955 76.0228 42.5665 76.1193 42.3527C76.2173 42.1375 76.3263 41.9389 76.4463 41.7568C76.5677 41.5747 76.7001 41.4119 76.8422 41.2671C76.9857 41.1222 77.1374 40.9981 77.2975 40.896C77.4575 40.7939 77.6257 40.7153 77.8009 40.6615C77.9761 40.6063 78.1569 40.5787 78.3445 40.5787C78.5294 40.5787 78.7087 40.6063 78.8839 40.6615C79.0591 40.7153 79.2273 40.7939 79.3874 40.896C79.5474 40.9981 79.6992 41.1222 79.8413 41.2671C79.9847 41.4119 80.1171 41.5747 80.2385 41.7568C80.3585 41.9389 80.4676 42.1375 80.5655 42.3527C80.6621 42.5665 80.7448 42.7955 80.8125 43.0369C80.8814 43.2784 80.9325 43.5309 80.9684 43.7929C81.0041 44.0551 81.0221 44.324 81.0221 44.6C81.0221 44.88 81.0041 45.1504 80.9684 45.4125C80.9325 45.6746 80.8814 45.9256 80.8125 46.1657C80.7448 46.4071 80.6621 46.6334 80.5655 46.8486C80.4676 47.0638 80.3585 47.261 80.2385 47.4431C80.1171 47.6266 79.9847 47.7894 79.8413 47.9342C79.6992 48.0791 79.5474 48.2018 79.3874 48.3053C79.2273 48.4073 79.0591 48.4846 78.8839 48.5398C78.7087 48.5936 78.5294 48.6211 78.3445 48.6211ZM75.3333 33.8C69.3686 33.8 64.5333 38.6353 64.5333 44.6C64.5333 50.5647 69.3686 55.4 75.3333 55.4C81.298 55.4 86.1333 50.5646 86.1333 44.6C86.1333 38.6354 81.298 33.8 75.3333 33.8Z" fill="#0D69E1"/>
<path fill-rule="evenodd" clip-rule="evenodd" d="M50 33.1828C43.6944 33.1828 38.5829 38.2944 38.5829 44.6C38.5829 50.9056 43.6944 56.0171 50 56.0171C56.3056 56.0171 61.4171 50.9055 61.4171 44.6C61.4171 38.2945 56.3055 33.1828 50 33.1828Z" fill="white"/>
<path fill-rule="evenodd" clip-rule="evenodd" d="M46.3725 43.655C46.4897 43.7295 46.6194 43.7929 46.7629 43.844C46.9064 43.7929 47.036 43.7295 47.1533 43.655C47.2719 43.5805 47.3727 43.4936 47.4582 43.3943C47.5423 43.2963 47.6086 43.1873 47.6541 43.0673C47.7009 42.9487 47.7231 42.8217 47.7231 42.6894C47.7231 42.5569 47.6982 42.4328 47.6472 42.3169C47.5961 42.201 47.5272 42.0989 47.4402 42.012C47.3534 41.9251 47.2512 41.8561 47.1353 41.805C47.0196 41.7541 46.8953 41.7291 46.7629 41.7291C46.6305 41.7291 46.5063 41.7541 46.3904 41.805C46.2745 41.8561 46.1725 41.9251 46.0856 42.012C45.9986 42.0989 45.9297 42.201 45.8786 42.3169C45.8276 42.4328 45.8028 42.5569 45.8028 42.6894C45.8028 42.8217 45.8248 42.9487 45.8718 43.0673C45.9173 43.1873 45.9834 43.2963 46.0677 43.3943C46.1532 43.4936 46.2552 43.5805 46.3725 43.655ZM49.2557 46.3326C49.2557 46.4789 49.2418 46.6223 49.2129 46.7643C49.1839 46.9051 49.1412 47.0431 49.0832 47.1783C49.0253 47.312 48.9536 47.4417 48.8708 47.5631C48.7866 47.6859 48.6914 47.8017 48.5839 47.908C48.4776 48.0155 48.3576 48.1135 48.2265 48.2018C48.0956 48.2915 47.9534 48.3659 47.8004 48.4266C47.6472 48.4888 47.4844 48.5357 47.3119 48.5702C47.1396 48.6047 46.9588 48.6211 46.7685 48.6211C46.574 48.6211 46.3904 48.6047 46.2194 48.5702C46.047 48.5357 45.8841 48.4888 45.7311 48.4266C45.578 48.3659 45.4358 48.2915 45.3048 48.2018C45.1737 48.1135 45.0524 48.0155 44.9433 47.908C44.8344 47.8017 44.7392 47.6859 44.655 47.5631C44.5722 47.4417 44.502 47.312 44.444 47.1783C44.3861 47.0431 44.3418 46.9051 44.3129 46.7643C44.2839 46.6223 44.2702 46.4789 44.2702 46.3326C44.2702 46.1685 44.2895 45.9974 44.3309 45.8167C44.3722 45.636 44.437 45.4594 44.5281 45.287C44.6178 45.1159 44.7322 44.9518 44.873 44.7944C45.0124 44.6371 45.1792 44.5034 45.3737 44.3903C45.2137 44.2744 45.0758 44.1447 44.9599 43.9999C44.844 43.855 44.7488 43.7074 44.6757 43.5557C44.6026 43.4039 44.5488 43.2536 44.5143 43.1032C44.4813 42.9528 44.4633 42.8149 44.4633 42.6894C44.4633 42.5942 44.4729 42.4906 44.4922 42.3776C44.5102 42.2658 44.5406 42.1513 44.5833 42.0354C44.6261 41.9195 44.6813 41.8023 44.7474 41.685C44.8137 41.5678 44.8924 41.4546 44.9847 41.3457C45.0772 41.2367 45.182 41.136 45.2992 41.0435C45.4165 40.9526 45.5489 40.8712 45.698 40.8008C45.8455 40.7318 46.0084 40.6767 46.1849 40.6381C46.3629 40.5994 46.5574 40.5787 46.7685 40.5787C46.9753 40.5787 47.1685 40.5994 47.345 40.6381C47.523 40.6767 47.6858 40.7318 47.8334 40.8008C47.981 40.8712 48.1149 40.9526 48.2321 41.0435C48.3494 41.136 48.4528 41.2367 48.5439 41.3457C48.6335 41.4546 48.7121 41.5678 48.7784 41.685C48.8446 41.8023 48.8998 41.9195 48.9425 42.0354C48.9853 42.1513 49.0157 42.2658 49.0364 42.3776C49.057 42.4906 49.0666 42.5942 49.0666 42.6894C49.0666 42.8149 49.0502 42.9528 49.0157 43.1032C48.9825 43.2536 48.9287 43.4039 48.8557 43.5557C48.7825 43.7074 48.6873 43.855 48.5714 43.9999C48.4556 44.1447 48.3176 44.2744 48.1576 44.3903C48.3521 44.5034 48.519 44.6371 48.6583 44.7944C48.7977 44.9518 48.9121 45.1159 49.0005 45.287C49.0887 45.4594 49.1536 45.636 49.195 45.8167C49.2364 45.9974 49.2557 46.1685 49.2557 46.3326ZM47.2361 45.2111C47.094 45.12 46.9367 45.0482 46.7629 44.9931C46.589 45.0482 46.4318 45.12 46.2897 45.2111C46.149 45.3007 46.0277 45.407 45.927 45.5297C45.8276 45.6525 45.7489 45.7933 45.6952 45.9519C45.64 46.1105 45.6138 46.2843 45.6138 46.4761C45.6138 46.5464 45.6221 46.6154 45.6386 46.683C45.6566 46.7493 45.68 46.8127 45.7132 46.8734C45.7448 46.9354 45.7848 46.9934 45.8304 47.0472C45.8759 47.1024 45.927 47.152 45.9807 47.1961C46.0359 47.2403 46.0938 47.2817 46.1545 47.319C46.2166 47.3562 46.2815 47.3865 46.349 47.4099C46.4167 47.4349 46.4856 47.4528 46.556 47.4665C46.6263 47.4803 46.6953 47.4872 46.7629 47.4872C46.8305 47.4872 46.8994 47.4803 46.9698 47.4665C47.0402 47.4528 47.1092 47.4349 47.1768 47.4099C47.2444 47.3865 47.3092 47.3562 47.3713 47.319C47.432 47.2817 47.49 47.2403 47.545 47.1961C47.5989 47.152 47.65 47.1024 47.6954 47.0472C47.7409 46.9934 47.781 46.9354 47.8127 46.8734C47.8458 46.8127 47.8706 46.7493 47.8872 46.683C47.9038 46.6154 47.912 46.5464 47.912 46.4761C47.912 46.2843 47.8858 46.1105 47.8306 45.9519C47.7768 45.7933 47.6982 45.6525 47.5989 45.5297C47.4982 45.407 47.3768 45.3007 47.2361 45.2111ZM52.3017 46.825C52.3734 46.923 52.4493 47.0045 52.5293 47.0706C52.6093 47.1368 52.6921 47.1893 52.779 47.2265C52.866 47.2638 52.9569 47.2831 53.0521 47.2831C53.1446 47.2831 53.2342 47.2638 53.3212 47.2265C53.408 47.1893 53.4909 47.1368 53.5709 47.0706C53.6509 47.0045 53.7268 46.923 53.7984 46.825C53.8702 46.7286 53.9364 46.6182 53.9972 46.4954C54.0592 46.3726 54.1129 46.2402 54.1613 46.0967C54.2095 45.9546 54.2495 45.8029 54.284 45.6429C54.3185 45.4829 54.3447 45.3159 54.3626 45.1421C54.382 44.9682 54.3917 44.7875 54.3917 44.6C54.3917 44.4165 54.382 44.2371 54.3626 44.0619C54.3447 43.8854 54.3185 43.7184 54.284 43.5584C54.2495 43.3984 54.2095 43.2466 54.1613 43.1032C54.1129 42.9598 54.0592 42.8287 53.9972 42.7073C53.9364 42.5858 53.8702 42.4769 53.7984 42.3803C53.7268 42.2838 53.6509 42.201 53.5709 42.132C53.4909 42.0645 53.408 42.012 53.3212 41.9761C53.2342 41.9402 53.1446 41.9223 53.0521 41.9223C52.9569 41.9223 52.866 41.9402 52.779 41.9761C52.6921 42.012 52.6093 42.0645 52.5293 42.132C52.4493 42.201 52.3734 42.2838 52.3017 42.3803C52.23 42.4769 52.1638 42.5858 52.1016 42.7073C52.0409 42.8287 51.9858 42.9598 51.9389 43.1032C51.8906 43.2466 51.8506 43.3984 51.8161 43.5584C51.7816 43.7184 51.7554 43.8854 51.7375 44.0619C51.7182 44.2371 51.7085 44.4165 51.7085 44.6C51.7085 44.7875 51.7182 44.9682 51.7375 45.1421C51.7554 45.3159 51.7816 45.4829 51.8161 45.6429C51.8506 45.8029 51.8906 45.9546 51.9389 46.0967C51.9858 46.2402 52.0409 46.3726 52.1016 46.4954C52.1638 46.6182 52.23 46.7286 52.3017 46.825ZM53.0521 48.6211C52.8646 48.6211 52.6838 48.5936 52.5086 48.5398C52.3334 48.4846 52.1652 48.4073 52.0052 48.3053C51.845 48.2018 51.6934 48.0791 51.5498 47.9342C51.4078 47.7894 51.2753 47.6266 51.154 47.4431C51.034 47.261 50.9249 47.0638 50.827 46.8486C50.7304 46.6334 50.6477 46.4071 50.5801 46.1657C50.5111 45.9256 50.46 45.6746 50.4242 45.4125C50.3884 45.1504 50.3704 44.88 50.3704 44.6C50.3704 44.324 50.3884 44.0551 50.4242 43.7929C50.46 43.5309 50.5111 43.2784 50.5801 43.0369C50.6477 42.7955 50.7304 42.5665 50.827 42.3527C50.9249 42.1375 51.034 41.9389 51.154 41.7568C51.2753 41.5747 51.4078 41.4119 51.5498 41.2671C51.6934 41.1222 51.845 40.9981 52.0052 40.896C52.1652 40.7939 52.3334 40.7153 52.5086 40.6615C52.6838 40.6063 52.8646 40.5787 53.0521 40.5787C53.237 40.5787 53.4164 40.6063 53.5916 40.6615C53.7668 40.7153 53.935 40.7939 54.0951 40.896C54.2551 40.9981 54.4069 41.1222 54.5489 41.2671C54.6924 41.4119 54.8248 41.5747 54.9462 41.7568C55.0662 41.9389 55.1752 42.1375 55.2732 42.3527C55.3697 42.5665 55.4525 42.7955 55.5201 43.0369C55.589 43.2784 55.6401 43.5309 55.676 43.7929C55.7118 44.0551 55.7297 44.324 55.7297 44.6C55.7297 44.88 55.7118 45.1504 55.676 45.4125C55.6401 45.6746 55.589 45.9256 55.5201 46.1657C55.4525 46.4071 55.3697 46.6334 55.2732 46.8486C55.1752 47.0638 55.0662 47.261 54.9462 47.4431C54.8248 47.6266 54.6924 47.7894 54.5489 47.9342C54.4069 48.0791 54.2551 48.2018 54.0951 48.3053C53.935 48.4073 53.7668 48.4846 53.5916 48.5398C53.4164 48.5936 53.237 48.6211 53.0521 48.6211ZM50 33.8C44.0353 33.8 39.2 38.6353 39.2 44.6C39.2 50.5647 44.0353 55.4 50 55.4C55.9647 55.4 60.8 50.5646 60.8 44.6C60.8 38.6354 55.9646 33.8 50 33.8Z" fill="#0D69E1"/>
<path fill-rule="evenodd" clip-rule="evenodd" d="M24.6666 33.1828C18.3611 33.1828 13.2495 38.2944 13.2495 44.6C13.2495 50.9056 18.3611 56.0171 24.6666 56.0171C30.9721 56.0171 36.0838 50.9055 36.0838 44.6C36.0838 38.2945 30.9721 33.1828 24.6666 33.1828Z" fill="white"/>
<path fill-rule="evenodd" clip-rule="evenodd" d="M19.7946 40.7677H21.1327V48.4322H19.7946V42.3003L18.6441 43.0673L18.2606 42.4906L19.7946 40.7677ZM23.4716 40.7677H24.8097V48.4322H23.4716V42.3003L22.3211 43.0673L21.9376 42.4906L23.4716 40.7677ZM27.6445 46.825C27.7162 46.923 27.7921 47.0045 27.8721 47.0706C27.9521 47.1368 28.0349 47.1893 28.1218 47.2265C28.2088 47.2638 28.2997 47.2831 28.3949 47.2831C28.4874 47.2831 28.577 47.2638 28.664 47.2265C28.7508 47.1893 28.8337 47.1368 28.9137 47.0706C28.9937 47.0045 29.0696 46.923 29.1412 46.825C29.213 46.7286 29.2792 46.6182 29.34 46.4954C29.402 46.3726 29.4557 46.2402 29.5041 46.0967C29.5523 45.9546 29.5923 45.8029 29.6268 45.6429C29.6614 45.4829 29.6875 45.3159 29.7055 45.1421C29.7248 44.9682 29.7345 44.7875 29.7345 44.6C29.7345 44.4165 29.7248 44.2371 29.7055 44.0619C29.6875 43.8854 29.6614 43.7184 29.6268 43.5584C29.5923 43.3984 29.5523 43.2466 29.5041 43.1032C29.4557 42.9598 29.402 42.8287 29.34 42.7073C29.2792 42.5858 29.213 42.4769 29.1412 42.3803C29.0696 42.2838 28.9937 42.201 28.9137 42.132C28.8337 42.0645 28.7508 42.012 28.664 41.9761C28.577 41.9402 28.4874 41.9223 28.3949 41.9223C28.2997 41.9223 28.2088 41.9402 28.1218 41.9761C28.0349 42.012 27.9521 42.0645 27.8721 42.132C27.7921 42.201 27.7162 42.2838 27.6445 42.3803C27.5728 42.4769 27.5066 42.5858 27.4444 42.7073C27.3838 42.8287 27.3287 42.9598 27.2817 43.1032C27.2335 43.2466 27.1935 43.3984 27.159 43.5584C27.1244 43.7184 27.0983 43.8854 27.0803 44.0619C27.061 44.2371 27.0513 44.4165 27.0513 44.6C27.0513 44.7875 27.061 44.9682 27.0803 45.1421C27.0983 45.3159 27.1244 45.4829 27.159 45.6429C27.1935 45.8029 27.2335 45.9546 27.2817 46.0967C27.3287 46.2402 27.3838 46.3726 27.4444 46.4954C27.5066 46.6182 27.5728 46.7286 27.6445 46.825ZM28.3949 48.6211C28.2074 48.6211 28.0266 48.5936 27.8514 48.5398C27.6762 48.4846 27.508 48.4073 27.348 48.3053C27.1879 48.2018 27.0362 48.0791 26.8927 47.9342C26.7506 47.7894 26.6181 47.6266 26.4968 47.4431C26.3768 47.261 26.2677 47.0638 26.1698 46.8486C26.0732 46.6334 25.9905 46.4071 25.923 46.1657C25.8539 45.9256 25.8028 45.6746 25.7671 45.4125C25.7312 45.1504 25.7132 44.88 25.7132 44.6C25.7132 44.324 25.7312 44.0551 25.7671 43.7929C25.8028 43.5309 25.8539 43.2784 25.923 43.0369C25.9905 42.7955 26.0732 42.5665 26.1698 42.3527C26.2677 42.1375 26.3768 41.9389 26.4968 41.7568C26.6181 41.5747 26.7506 41.4119 26.8927 41.2671C27.0362 41.1222 27.1879 40.9981 27.348 40.896C27.508 40.7939 27.6762 40.7153 27.8514 40.6615C28.0266 40.6063 28.2074 40.5787 28.3949 40.5787C28.5799 40.5787 28.7592 40.6063 28.9344 40.6615C29.1096 40.7153 29.2778 40.7939 29.4379 40.896C29.5979 40.9981 29.7497 41.1222 29.8917 41.2671C30.0352 41.4119 30.1676 41.5747 30.289 41.7568C30.409 41.9389 30.518 42.1375 30.616 42.3527C30.7126 42.5665 30.7953 42.7955 30.8629 43.0369C30.9319 43.2784 30.9829 43.5309 31.0188 43.7929C31.0546 44.0551 31.0725 44.324 31.0725 44.6C31.0725 44.88 31.0546 45.1504 31.0188 45.4125C30.9829 45.6746 30.9319 45.9256 30.8629 46.1657C30.7953 46.4071 30.7126 46.6334 30.616 46.8486C30.518 47.0638 30.409 47.261 30.289 47.4431C30.1676 47.6266 30.0352 47.7894 29.8917 47.9342C29.7497 48.0791 29.5979 48.2018 29.4379 48.3053C29.2778 48.4073 29.1096 48.4846 28.9344 48.5398C28.7592 48.5936 28.5799 48.6211 28.3949 48.6211ZM24.6666 33.8C18.7019 33.8 13.8666 38.6353 13.8666 44.6C13.8666 50.5647 18.7019 55.4 24.6666 55.4C30.6313 55.4 35.4666 50.5646 35.4666 44.6C35.4666 38.6354 30.6313 33.8 24.6666 33.8Z" fill="#0D69E1"/>
</svg>
