<svg width="125" height="61" viewBox="0 0 125 61" fill="none" xmlns="http://www.w3.org/2000/svg">
<path d="M111.375 2H13.625C8.86154 2 5 5.86154 5 10.625V50.875C5 55.6385 8.86154 59.5 13.625 59.5H111.375C116.138 59.5 120 55.6385 120 50.875V10.625C120 5.86154 116.138 2 111.375 2Z" fill="black"/>
<path d="M111.375 3.91666H13.625C9.92008 3.91666 6.91666 6.92009 6.91666 10.625V50.875C6.91666 54.5799 9.92008 57.5833 13.625 57.5833H111.375C115.08 57.5833 118.083 54.5799 118.083 50.875V10.625C118.083 6.92009 115.08 3.91666 111.375 3.91666Z" fill="white"/>
<path d="M41 45H6V50C6 54.4183 9.58172 58 14 58H111.5C115.366 58 118.5 54.866 118.5 51H41V45Z" fill="black"/>
<path d="M81 13V26.75H88.3252L77.5 47L66.6748 26.75H74V20H41V13H81Z" fill="black"/>
</svg>
