<svg width="110" height="80" viewBox="0 0 110 80" fill="none" xmlns="http://www.w3.org/2000/svg">
<g clip-path="url(#clip0_10_73)">
<path d="M98.7 5H11.3C7.82061 5 5 7.82061 5 11.3V48.7C5 52.1794 7.82061 55 11.3 55H98.7C102.179 55 105 52.1794 105 48.7V11.3C105 7.82061 102.179 5 98.7 5Z" fill="black"/>
<path d="M98.672 6.429H11.329C8.62282 6.429 6.42902 8.62281 6.42902 11.329V48.672C6.42902 51.3782 8.62282 53.572 11.329 53.572H98.672C101.378 53.572 103.572 51.3782 103.572 48.672V11.329C103.572 8.62281 101.378 6.429 98.672 6.429Z" fill="white"/>
<path d="M43.4637 13.4087C42.5518 13.4087 41.5767 14.105 41.2795 14.9678L40.1782 18.1714L37.8914 24.8065C37.8886 24.812 37.8896 24.8194 37.8877 24.8249L37.3554 26.3694C37.0461 26.3684 36.7397 26.4286 36.4537 26.5466C36.1677 26.6646 35.9079 26.838 35.689 27.0568C35.4702 27.2757 35.2966 27.5357 35.1784 27.8219C35.0602 28.1081 34.9995 28.4149 35 28.7246V38.1483C34.9997 38.4582 35.0603 38.765 35.1786 39.0513C35.2969 39.3376 35.4704 39.5977 35.6891 39.8168C35.9079 40.0358 36.1677 40.2095 36.4537 40.3278C36.7396 40.4461 37.046 40.5068 37.3554 40.5063H72.6446C72.954 40.5068 73.2604 40.4461 73.5464 40.3278C73.8323 40.2095 74.0921 40.0358 74.3109 39.8168C74.5297 39.5977 74.7031 39.3376 74.8214 39.0513C74.9397 38.765 75.0004 38.4582 75 38.1483V28.7246C75 27.4192 73.9481 26.3703 72.6446 26.3703L72.1132 24.8249C72.1104 24.8194 72.1114 24.812 72.1086 24.8065L69.8218 18.1714L68.7205 14.9678C68.4233 14.104 67.4491 13.4087 66.5363 13.4087H61.4348L59.8377 10.8H55H50.1624L48.5652 13.4087H43.4637ZM44.1818 15.7676H65.8182C66.2756 15.7676 66.7604 16.1157 66.9085 16.5463L70.293 26.3694H39.7062L43.0915 16.5472C43.2406 16.1148 43.7254 15.7676 44.1818 15.7676ZM69.1157 28.6064C70.0517 28.6064 70.9492 28.9788 71.611 29.6416C72.2729 30.3044 72.6446 31.2033 72.6446 32.1407C72.6446 33.078 72.2729 33.977 71.611 34.6397C70.9492 35.3025 70.0517 35.6749 69.1157 35.6749C68.1797 35.6749 67.2822 35.3025 66.6204 34.6397C65.9586 33.977 65.5868 33.078 65.5868 32.1407C65.5868 31.2033 65.9586 30.3044 66.6204 29.6416C67.2822 28.9788 68.1797 28.6064 69.1157 28.6064ZM40.8843 28.7246C41.8203 28.7246 42.7178 29.097 43.3797 29.7597C44.0414 30.4225 44.4132 31.3215 44.4132 32.2589C44.4132 33.1962 44.0414 34.0951 43.3797 34.7579C42.7178 35.4207 41.8203 35.793 40.8843 35.793C39.9484 35.793 39.0508 35.4207 38.389 34.7579C37.7271 34.0951 37.3554 33.1962 37.3554 32.2589C37.3554 31.3215 37.7271 30.4225 38.389 29.7597C39.0508 29.097 39.9484 28.7246 40.8843 28.7246ZM37.3554 41.6834V46.3957C37.3554 47.333 37.7271 48.232 38.389 48.8948C39.0508 49.5577 39.9484 49.93 40.8843 49.93C41.8203 49.93 42.7178 49.5577 43.3797 48.8948C44.0414 48.232 44.4132 47.333 44.4132 46.3957V41.6834H37.3554ZM65.5868 41.6834V46.3957C65.5868 47.3332 65.9586 48.2323 66.6205 48.8951C67.2824 49.558 68.1801 49.9304 69.1162 49.9304C70.0522 49.9304 70.9499 49.558 71.6118 48.8951C72.2737 48.2323 72.6456 47.3332 72.6456 46.3957V41.6834H65.5858H65.5868Z" fill="black"/>
<path d="M39.8992 71.4922C39.8992 72.2461 39.6043 72.873 39.0145 73.373C38.4285 73.873 37.6902 74.123 36.7996 74.123C35.8543 74.123 35.1004 73.8789 34.5379 73.3906C33.9793 72.9023 33.7 72.2773 33.7 71.5156C33.7 71.0312 33.8406 70.5938 34.1219 70.2031C34.4031 69.8086 34.7996 69.4961 35.3113 69.2656V69.2305C34.8426 68.9805 34.4949 68.707 34.2684 68.4102C34.0457 68.1133 33.9344 67.7422 33.9344 67.2969C33.9344 66.6406 34.2039 66.0938 34.743 65.6562C35.282 65.2188 35.9676 65 36.7996 65C37.6707 65 38.366 65.209 38.8856 65.627C39.4051 66.0449 39.6649 66.5762 39.6649 67.2207C39.6649 67.6152 39.5418 68.0039 39.2957 68.3867C39.0496 68.7656 38.6883 69.0625 38.2117 69.2773V69.3125C38.7586 69.5469 39.1766 69.8359 39.4656 70.1797C39.7547 70.5234 39.8992 70.9609 39.8992 71.4922ZM38.5106 67.2324C38.5106 66.8145 38.3484 66.4824 38.0242 66.2363C37.7039 65.9863 37.2938 65.8613 36.7938 65.8613C36.3016 65.8613 35.8973 65.9785 35.5809 66.2129C35.2684 66.4473 35.1121 66.7637 35.1121 67.1621C35.1121 67.4434 35.1902 67.6875 35.3465 67.8945C35.5067 68.0977 35.7469 68.2793 36.0672 68.4395C36.2117 68.5098 36.4188 68.6016 36.6883 68.7148C36.9617 68.8281 37.2274 68.9219 37.4852 68.9961C37.8719 68.7383 38.1395 68.4707 38.2879 68.1934C38.4363 67.916 38.5106 67.5957 38.5106 67.2324ZM38.6922 71.6035C38.6922 71.2441 38.6121 70.957 38.452 70.7422C38.2957 70.5234 37.9871 70.3047 37.5262 70.0859C37.3426 70 37.1414 69.9199 36.9227 69.8457C36.7039 69.7715 36.4129 69.668 36.0496 69.5352C35.6981 69.7266 35.4149 69.9863 35.2 70.3145C34.9891 70.6426 34.8836 71.0137 34.8836 71.4277C34.8836 71.9551 35.0652 72.3906 35.4285 72.7344C35.7918 73.0781 36.2527 73.25 36.8113 73.25C37.3817 73.25 37.8367 73.1035 38.1766 72.8105C38.5203 72.5176 38.6922 72.1152 38.6922 71.6035Z" fill="#8B8B8B"/>
<path d="M43.4969 73.9238H42.0965V72.2539H43.4969V73.9238Z" fill="#8B8B8B"/>
<path d="M52.034 71.4688H50.7391V73.9238H49.6141V71.4688H45.4363V70.1211L49.6609 65.1992H50.7391V70.5312H52.034V71.4688ZM49.6141 70.5312V66.5938L46.2332 70.5312H49.6141Z" fill="#8B8B8B"/>
<path d="M55.4969 73.9238H54.0965V72.2539H55.4969V73.9238Z" fill="#8B8B8B"/>
<path d="M63.0672 69.7227C63.2547 69.8906 63.409 70.1016 63.5301 70.3555C63.6512 70.6094 63.7117 70.9375 63.7117 71.3398C63.7117 71.7383 63.6395 72.1035 63.4949 72.4355C63.3504 72.7676 63.1473 73.0566 62.8856 73.3027C62.5926 73.5762 62.2469 73.7793 61.8484 73.9121C61.4539 74.041 61.0203 74.1055 60.5477 74.1055C60.0633 74.1055 59.5867 74.0469 59.118 73.9297C58.6492 73.8164 58.2645 73.6914 57.9637 73.5547V72.3301H58.0516C58.3836 72.5488 58.7742 72.7305 59.2234 72.875C59.6727 73.0195 60.1063 73.0918 60.5242 73.0918C60.7703 73.0918 61.032 73.0508 61.3094 72.9688C61.5867 72.8867 61.8113 72.7656 61.9832 72.6055C62.1629 72.4336 62.2957 72.2441 62.3817 72.0371C62.4715 71.8301 62.5164 71.5684 62.5164 71.252C62.5164 70.9395 62.4656 70.6816 62.3641 70.4785C62.2664 70.2715 62.1297 70.1094 61.9539 69.9922C61.7781 69.8711 61.5652 69.7891 61.3152 69.7461C61.0652 69.6992 60.7957 69.6758 60.5067 69.6758H59.9793V68.7031H60.3895C60.9832 68.7031 61.4559 68.5801 61.8074 68.334C62.1629 68.084 62.3406 67.7207 62.3406 67.2441C62.3406 67.0332 62.2957 66.8496 62.2059 66.6934C62.116 66.5332 61.991 66.4023 61.8309 66.3008C61.6629 66.1992 61.4832 66.1289 61.2918 66.0898C61.1004 66.0508 60.8836 66.0312 60.6414 66.0312C60.2703 66.0312 59.8758 66.0977 59.4578 66.2305C59.0399 66.3633 58.6453 66.5508 58.2742 66.793H58.2156V65.5684C58.493 65.4316 58.8621 65.3066 59.3231 65.1934C59.7879 65.0762 60.2371 65.0176 60.6707 65.0176C61.0965 65.0176 61.4715 65.0566 61.7957 65.1348C62.1199 65.2129 62.4129 65.3379 62.6746 65.5098C62.9559 65.6973 63.1688 65.9238 63.3133 66.1895C63.4578 66.4551 63.5301 66.7656 63.5301 67.1211C63.5301 67.6055 63.3582 68.0293 63.0145 68.3926C62.6746 68.752 62.2723 68.9785 61.8074 69.0723V69.1543C61.9949 69.1855 62.2098 69.252 62.452 69.3535C62.6942 69.4512 62.8992 69.5742 63.0672 69.7227Z" fill="#8B8B8B"/>
<path d="M67.4969 73.9238H66.0965V72.2539H67.4969V73.9238Z" fill="#8B8B8B"/>
<path d="M75.0672 69.7227C75.2547 69.8906 75.409 70.1016 75.5301 70.3555C75.6512 70.6094 75.7117 70.9375 75.7117 71.3398C75.7117 71.7383 75.6395 72.1035 75.4949 72.4355C75.3504 72.7676 75.1473 73.0566 74.8856 73.3027C74.5926 73.5762 74.2469 73.7793 73.8484 73.9121C73.4539 74.041 73.0203 74.1055 72.5477 74.1055C72.0633 74.1055 71.5867 74.0469 71.118 73.9297C70.6492 73.8164 70.2645 73.6914 69.9637 73.5547V72.3301H70.0516C70.3836 72.5488 70.7742 72.7305 71.2234 72.875C71.6727 73.0195 72.1063 73.0918 72.5242 73.0918C72.7703 73.0918 73.032 73.0508 73.3094 72.9688C73.5867 72.8867 73.8113 72.7656 73.9832 72.6055C74.1629 72.4336 74.2957 72.2441 74.3817 72.0371C74.4715 71.8301 74.5164 71.5684 74.5164 71.252C74.5164 70.9395 74.4656 70.6816 74.3641 70.4785C74.2664 70.2715 74.1297 70.1094 73.9539 69.9922C73.7781 69.8711 73.5652 69.7891 73.3152 69.7461C73.0652 69.6992 72.7957 69.6758 72.5067 69.6758H71.9793V68.7031H72.3895C72.9832 68.7031 73.4559 68.5801 73.8074 68.334C74.1629 68.084 74.3406 67.7207 74.3406 67.2441C74.3406 67.0332 74.2957 66.8496 74.2059 66.6934C74.116 66.5332 73.991 66.4023 73.8309 66.3008C73.6629 66.1992 73.4832 66.1289 73.2918 66.0898C73.1004 66.0508 72.8836 66.0312 72.6414 66.0312C72.2703 66.0312 71.8758 66.0977 71.4578 66.2305C71.0399 66.3633 70.6453 66.5508 70.2742 66.793H70.2156V65.5684C70.493 65.4316 70.8621 65.3066 71.3231 65.1934C71.7879 65.0762 72.2371 65.0176 72.6707 65.0176C73.0965 65.0176 73.4715 65.0566 73.7957 65.1348C74.1199 65.2129 74.4129 65.3379 74.6746 65.5098C74.9559 65.6973 75.1688 65.9238 75.3133 66.1895C75.4578 66.4551 75.5301 66.7656 75.5301 67.1211C75.5301 67.6055 75.3582 68.0293 75.0145 68.3926C74.6746 68.752 74.2723 68.9785 73.8074 69.0723V69.1543C73.9949 69.1855 74.2098 69.252 74.452 69.3535C74.6942 69.4512 74.8992 69.5742 75.0672 69.7227Z" fill="#8B8B8B"/>
</g>
<defs>
<clipPath id="clip0_10_73">
<rect width="110" height="80" fill="white"/>
</clipPath>
</defs>
</svg>
