<svg width="110" height="80" viewBox="0 0 110 80" fill="none" xmlns="http://www.w3.org/2000/svg">
<g clip-path="url(#clip0_10_28)">
<path d="M98.7 5H11.3C7.82061 5 5 7.82061 5 11.3V48.7C5 52.1794 7.82061 55 11.3 55H98.7C102.179 55 105 52.1794 105 48.7V11.3C105 7.82061 102.179 5 98.7 5Z" fill="black"/>
<path d="M98.672 6.429H11.329C8.62282 6.429 6.42902 8.62281 6.42902 11.329V48.672C6.42902 51.3782 8.62282 53.572 11.329 53.572H98.672C101.378 53.572 103.572 51.3782 103.572 48.672V11.329C103.572 8.62281 101.378 6.429 98.672 6.429Z" fill="white"/>
<path d="M57.677 39.065C57.892 39.228 58.154 39.316 58.423 39.316H64.401C64.7193 41.61 65.7575 43.7438 67.3661 45.4101C68.9747 47.0763 71.0707 48.1889 73.3521 48.5876C75.6336 48.9863 77.9827 48.6506 80.0611 47.6288C82.1395 46.6069 83.8399 44.9518 84.9174 42.9017C85.9949 40.8516 86.3938 38.5124 86.0568 36.221C85.7197 33.9296 84.664 31.8044 83.0418 30.1515C81.4195 28.4985 79.3145 27.4031 77.0299 27.0232C74.7452 26.6432 72.399 26.9981 70.329 28.037L66.286 22.263L67.346 19.766H67.988C68.4232 19.766 68.8406 19.5931 69.1484 19.2854C69.4561 18.9776 69.629 18.5602 69.629 18.125C69.629 17.6898 69.4561 17.2724 69.1484 16.9646C68.8406 16.6569 68.4232 16.484 67.988 16.484H60.468C60.0328 16.484 59.6154 16.6569 59.3076 16.9646C58.9999 17.2724 58.827 17.6898 58.827 18.125C58.827 18.5602 58.9999 18.9776 59.3076 19.2854C59.6154 19.5931 60.0328 19.766 60.468 19.766H65.267L64.629 21.27H45.774C45.9899 20.4796 45.9367 19.6399 45.6228 18.8831C45.3088 18.1263 44.752 17.4955 44.04 17.09L43.319 16.68C43.0036 16.5013 42.7562 16.2232 42.6156 15.8891C42.475 15.555 42.4491 15.1837 42.5419 14.8333C42.6346 14.4828 42.8409 14.173 43.1284 13.9522C43.4159 13.7315 43.7685 13.6122 44.131 13.613H49.531C49.8153 13.6044 50.0851 13.4854 50.2831 13.2813C50.4812 13.0772 50.5919 12.8039 50.5919 12.5195C50.5919 12.2351 50.4812 11.9618 50.2831 11.7577C50.0851 11.5536 49.8153 11.4346 49.531 11.426H44.131C43.2861 11.4256 42.4649 11.7048 41.7953 12.2199C41.1256 12.735 40.6452 13.4572 40.4289 14.2739C40.2126 15.0906 40.2726 15.956 40.5994 16.735C40.9263 17.5141 41.5017 18.1631 42.236 18.581L42.957 18.991C43.637 19.379 43.907 20.224 43.576 20.934L40.146 28.29C38.5046 27.3625 36.6513 26.8751 34.766 26.875C28.725 26.875 23.828 31.772 23.828 37.813C23.828 43.853 28.725 48.75 34.766 48.75C40.806 48.75 45.703 43.853 45.703 37.813C45.703 34.655 44.339 31.652 41.96 29.575L42.815 27.743L57.677 39.065ZM34.766 47.109C33.3381 47.1092 31.9293 46.7805 30.6489 46.1484C29.3686 45.5163 28.251 44.5978 27.3829 43.464C26.5148 42.3303 25.9196 41.0118 25.6433 39.6109C25.367 38.21 25.4171 36.7643 25.7897 35.3858C26.1623 34.0074 26.8475 32.7333 27.792 31.6624C28.7365 30.5915 29.915 29.7526 31.236 29.2106C32.5571 28.6687 33.9853 28.4383 35.4097 28.5374C36.8342 28.6365 38.2167 29.0624 39.45 29.782L37.076 34.873C36.933 35.178 36.701 35.433 36.409 35.601L34.219 36.865C33.9677 37.0101 33.7843 37.249 33.7092 37.5293C33.6341 37.8096 33.6734 38.1082 33.8185 38.3595C33.9636 38.6108 34.2025 38.7942 34.4828 38.8693C34.7631 38.9444 35.0617 38.9051 35.313 38.76L37.503 37.495C38.1832 37.1023 38.7261 36.5098 39.058 35.798L41.233 31.134C42.5628 32.422 43.4777 34.0777 43.8607 35.889C44.2436 37.7002 44.0771 39.5846 43.3824 41.3006C42.6877 43.0166 41.4965 44.4862 39.9614 45.521C38.4264 46.5558 36.6173 47.1087 34.766 47.109ZM75.234 47.109C73.0291 47.1089 70.896 46.3251 69.2156 44.8976C67.5351 43.4701 66.4167 41.4919 66.06 39.316H75.505C75.78 39.3159 76.0498 39.2404 76.2849 39.0977C76.52 38.955 76.7115 38.7506 76.8385 38.5066C76.9656 38.2627 77.0233 37.9886 77.0054 37.7141C76.9875 37.4397 76.8946 37.1754 76.737 36.95L71.408 29.34C72.8239 28.7012 74.3773 28.4273 75.9263 28.5433C77.4753 28.6593 78.9706 29.1614 80.2756 30.0039C81.5806 30.8464 82.6538 32.0024 83.3971 33.3663C84.1404 34.7303 84.5303 36.2587 84.531 37.812C84.531 40.2777 83.5515 42.6424 81.808 44.386C80.0644 46.1295 77.6997 47.109 75.234 47.109ZM65.987 36.855C66.2384 34.4272 67.4345 32.1956 69.317 30.642L73.667 36.855H65.987ZM60.687 36.855L65.648 25.165L68.48 29.21C67.3038 30.1335 66.3294 31.2884 65.6172 32.6033C64.9049 33.9183 64.4699 35.3653 64.339 36.855H60.687ZM58.214 36.38L44.122 25.645L45.098 23.73H63.584L58.214 36.38Z" fill="black"/>
<path d="M39.8992 71.4922C39.8992 72.2461 39.6043 72.873 39.0145 73.373C38.4285 73.873 37.6902 74.123 36.7996 74.123C35.8543 74.123 35.1004 73.8789 34.5379 73.3906C33.9793 72.9023 33.7 72.2773 33.7 71.5156C33.7 71.0312 33.8406 70.5938 34.1219 70.2031C34.4031 69.8086 34.7996 69.4961 35.3113 69.2656V69.2305C34.8426 68.9805 34.4949 68.707 34.2684 68.4102C34.0457 68.1133 33.9344 67.7422 33.9344 67.2969C33.9344 66.6406 34.2039 66.0938 34.743 65.6562C35.282 65.2188 35.9676 65 36.7996 65C37.6707 65 38.366 65.209 38.8856 65.627C39.4051 66.0449 39.6649 66.5762 39.6649 67.2207C39.6649 67.6152 39.5418 68.0039 39.2957 68.3867C39.0496 68.7656 38.6883 69.0625 38.2117 69.2773V69.3125C38.7586 69.5469 39.1766 69.8359 39.4656 70.1797C39.7547 70.5234 39.8992 70.9609 39.8992 71.4922ZM38.5106 67.2324C38.5106 66.8145 38.3484 66.4824 38.0242 66.2363C37.7039 65.9863 37.2938 65.8613 36.7938 65.8613C36.3016 65.8613 35.8973 65.9785 35.5809 66.2129C35.2684 66.4473 35.1121 66.7637 35.1121 67.1621C35.1121 67.4434 35.1902 67.6875 35.3465 67.8945C35.5067 68.0977 35.7469 68.2793 36.0672 68.4395C36.2117 68.5098 36.4188 68.6016 36.6883 68.7148C36.9617 68.8281 37.2274 68.9219 37.4852 68.9961C37.8719 68.7383 38.1395 68.4707 38.2879 68.1934C38.4363 67.916 38.5106 67.5957 38.5106 67.2324ZM38.6922 71.6035C38.6922 71.2441 38.6121 70.957 38.452 70.7422C38.2957 70.5234 37.9871 70.3047 37.5262 70.0859C37.3426 70 37.1414 69.9199 36.9227 69.8457C36.7039 69.7715 36.4129 69.668 36.0496 69.5352C35.6981 69.7266 35.4149 69.9863 35.2 70.3145C34.9891 70.6426 34.8836 71.0137 34.8836 71.4277C34.8836 71.9551 35.0652 72.3906 35.4285 72.7344C35.7918 73.0781 36.2527 73.25 36.8113 73.25C37.3817 73.25 37.8367 73.1035 38.1766 72.8105C38.5203 72.5176 38.6922 72.1152 38.6922 71.6035Z" fill="#8B8B8B"/>
<path d="M43.4969 73.9238H42.0965V72.2539H43.4969V73.9238Z" fill="#8B8B8B"/>
<path d="M52.034 71.4688H50.7391V73.9238H49.6141V71.4688H45.4363V70.1211L49.6609 65.1992H50.7391V70.5312H52.034V71.4688ZM49.6141 70.5312V66.5938L46.2332 70.5312H49.6141Z" fill="#8B8B8B"/>
<path d="M55.4969 73.9238H54.0965V72.2539H55.4969V73.9238Z" fill="#8B8B8B"/>
<path d="M63.8582 66.5059L59.909 73.9238H58.6551L62.8563 66.2246H57.8875V65.1992H63.8582V66.5059Z" fill="#8B8B8B"/>
<path d="M67.4969 73.9238H66.0965V72.2539H67.4969V73.9238Z" fill="#8B8B8B"/>
<path d="M75.3367 73.9238H70.6141V73.0332H72.4305V67.1855H70.6141V66.3887C70.8602 66.3887 71.1238 66.3691 71.4051 66.3301C71.6863 66.2871 71.8992 66.2266 72.0438 66.1484C72.2234 66.0508 72.3641 65.9277 72.4656 65.7793C72.5711 65.627 72.6317 65.4238 72.6473 65.1699H73.5555V73.0332H75.3367V73.9238Z" fill="#8B8B8B"/>
</g>
<defs>
<clipPath id="clip0_10_28">
<rect width="110" height="80" fill="white"/>
</clipPath>
</defs>
</svg>
