<svg width="100" height="86" viewBox="0 0 100 86" fill="none" xmlns="http://www.w3.org/2000/svg">
<path d="M84 3H16C12.6863 3 10 5.68629 10 9V77C10 80.3137 12.6863 83 16 83H84C87.3137 83 90 80.3137 90 77V9C90 5.68629 87.3137 3 84 3Z" fill="white"/>
<path d="M84 3.13333H16C12.7599 3.13333 10.1333 5.75993 10.1333 9V77C10.1333 80.2401 12.7599 82.8667 16 82.8667H84C87.2401 82.8667 89.8667 80.2401 89.8667 77V9C89.8667 5.75993 87.2401 3.13333 84 3.13333Z" stroke="black"/>
<path d="M84 5.66666H16C14.1591 5.66666 12.6667 7.15904 12.6667 8.99999V77C12.6667 78.8409 14.1591 80.3333 16 80.3333H84C85.8409 80.3333 87.3333 78.8409 87.3333 77V8.99999C87.3333 7.15904 85.8409 5.66666 84 5.66666Z" fill="#0D69E1"/>
<path fill-rule="evenodd" clip-rule="evenodd" d="M50 13.6667H28.6667V72.3334H36.6667V51H50C60.32 51 68.6667 42.6534 68.6667 32.3334C68.6667 22.0134 60.32 13.6667 50 13.6667ZM50 43.0267L36.6667 43V21.6667H50C55.92 21.64 60.6933 26.4134 60.6933 32.3334C60.6933 38.2534 55.92 43.0267 50 43.0267Z" fill="white"/>
<path fill-rule="evenodd" clip-rule="evenodd" d="M40.6667 72.3333V70.3333H62V68.3333H82V72.3333H40.6667Z" fill="white"/>
<path fill-rule="evenodd" clip-rule="evenodd" d="M53.8607 66.4103C53.0348 66.5633 52.2865 66.0791 52.2131 65.6833L51.4828 61.7429C51.384 61.2096 51.8612 60.2312 52.6871 60.0781L53.2281 55.3148C53.3421 54.7775 53.6747 54.5557 54.2597 54.4472L62.9493 52.8368C63.5688 52.7219 64.0576 52.8627 64.2921 53.2641L66.5387 57.5109C67.3475 57.3611 68.0563 58.2085 68.1392 58.6559L68.8695 62.5963C68.9396 62.9748 68.5211 63.6932 67.7295 63.8399L53.8607 66.4103ZM53.5404 59.6887L54.0108 56.2732C54.0643 55.8895 54.3027 55.5428 54.5091 55.5045L63.1471 53.9036C63.3879 53.8589 63.8035 54.0845 63.9909 54.4235L65.5852 57.4563L53.5404 59.6887ZM54.0552 67.4599L56.6707 66.9752L56.9577 68.5237C57.098 69.2809 56.4927 69.8559 55.8732 69.9707C55.2193 70.0919 54.4825 69.7656 54.3423 69.0085L54.0552 67.4599ZM65.2741 65.3807L67.8896 64.8959L68.1799 66.4617C68.3201 67.2188 67.7148 67.7937 67.0781 67.9117C66.4415 68.0297 65.7047 67.7036 65.5644 66.9464L65.2741 65.3807Z" fill="white"/>
</svg>
