<svg width="100" height="86" xmlns="http://www.w3.org/2000/svg"><g transform="translate(10 3)" fill="none" fill-rule="evenodd"><rect fill="#FFF" fill-rule="nonzero" width="80" height="80" rx="6"/><rect stroke="#000" x=".5" y=".5" width="79" height="79" rx="6"/><path d="M6.145 3.256a2.775 2.775 0 0 0-2.779 2.783v67.915a2.775 2.775 0 0 0 2.779 2.783H73.94a2.775 2.775 0 0 0 2.778-2.783V6.039a2.775 2.775 0 0 0-2.778-2.783H6.145zm33.898 5.567l10.374 18.186h-6.484v12.988h-7.78V27.009h-6.485L40.043 8.823zm-7.78 33.773h15.56a3.885 3.885 0 0 1 3.89 3.896v18.183c0 .72-.578 1.301-1.296 1.301H29.668a1.296 1.296 0 0 1-1.295-1.301V46.492a3.885 3.885 0 0 1 3.89-3.896zm-.778 1.687c-.718 0-1.296.578-1.296 1.298v6.106c0 .72.578 1.298 1.296 1.298H48.86c.718 0 1.296-.578 1.296-1.298V45.58c0-.72-.578-1.298-1.296-1.298H31.485zm-2.074 22.99h3.112v2.339c0 .86-.696 1.559-1.556 1.559-.859 0-1.556-.698-1.556-1.559v-2.338zm18.151 0h3.112v2.339c0 .86-.697 1.559-1.556 1.559-.86 0-1.556-.698-1.556-1.559v-2.338z" fill="#0D69E1" fill-rule="nonzero"/><path d="M70.669 3.256L3.366 70.676v3.278a2.775 2.775 0 0 0 2.779 2.783h3.272l67.302-67.42V6.039a2.775 2.775 0 0 0-2.778-2.783h-3.272z" fill="red" fill-rule="nonzero"/></g></svg>