<svg width="115" height="71" xmlns="http://www.w3.org/2000/svg"><g transform="translate(8 11)" fill-rule="nonzero" fill="none"><rect fill="#000" y=".166" width="100" height="49.669" rx="6.3"/><rect fill="#FFF" x="1.667" y="1.821" width="96.667" height="46.358" rx="4.9"/><g fill="#000"><path d="M14.408 14.171l1.384 3.084c.717-.627 1.415-1.082 2.095-1.365.68-.284 1.527-.423 2.543-.418a2.811 2.811 0 0 1 1.8.682c.519.44.791.992.819 1.658-.033.813-.491 1.594-1.375 2.341-.884.748-1.996 1.268-3.338 1.56v2.862c.266-.125.557-.2.874-.228.317-.027.637-.037.959-.032 1.643.071 2.686.467 3.128 1.189.441.721.633 1.34.575 1.858-.056 1.2-.515 2.078-1.375 2.633-.86.555-1.898.83-3.114.822a15.33 15.33 0 0 1-2.805-.255c-.977-.176-1.8-.475-2.469-.897l.449 3.642c.092.037.722.186 1.889.446s2.32.408 3.46.446c2.497-.087 4.403-.824 5.718-2.211 1.315-1.387 1.977-2.905 1.987-4.552-.038-1.124-.381-2.055-1.028-2.794-.647-.738-1.366-1.303-2.158-1.695-.792-.392-1.426-.63-1.9-.713 1.09-.152 2.05-.693 2.88-1.625.828-.932 1.265-2.125 1.308-3.577-.07-1.448-.678-2.592-1.823-3.432-1.146-.84-2.408-1.269-3.787-1.287-1.114.029-2.328.241-3.643.637-1.314.395-2.332.802-3.053 1.221zM38.18 12.61c-2.128.055-3.83 1.052-5.106 2.992-1.277 1.94-1.931 4.497-1.964 7.673.033 3.175.687 5.733 1.964 7.672 1.276 1.94 2.978 2.937 5.105 2.992 2.128-.055 3.83-1.052 5.106-2.992 1.277-1.94 1.931-4.497 1.964-7.672-.033-3.03-.687-5.545-1.964-7.548-1.276-2.003-2.978-3.041-5.106-3.116zm0 3.233c1.025-.015 1.845.573 2.459 1.765.614 1.192.929 3.081.944 5.667-.015 2.585-.33 4.474-.944 5.666-.614 1.192-1.434 1.78-2.46 1.765-1.025.015-1.845-.573-2.459-1.765-.614-1.192-.929-3.081-.944-5.666.015-2.586.33-4.475.944-5.667.614-1.192 1.434-1.78 2.46-1.765z"/></g><g fill="#000"><path d="M52.031 33.688h2.209l.553-7.132 2.945 5.852 2.945-5.852.552 7.132h2.21l-.921-10.24h-2.209l-2.577 5.12-2.577-5.12h-2.209zM66.577 23.447v10.241l2.393.004 4.234-6.953v6.95h2.209V23.446H73.02l-4.234 6.95v-6.95zM78.915 23.447v10.241h2.209V29.3h3.865v4.39h2.209V23.446h-2.209v3.841h-3.865v-3.84z"/></g></g></svg>