<svg width="65" height="156" viewBox="0 0 65 156" fill="none" xmlns="http://www.w3.org/2000/svg">
<path d="M53.65 7H11.35C6.34392 7 2.28571 11.0582 2.28571 16.0643V138.936C2.28571 143.942 6.34392 148 11.35 148H53.65C58.6561 148 62.7143 143.942 62.7143 138.936V16.0643C62.7143 11.0582 58.6561 7 53.65 7Z" fill="white"/>
<path d="M53.65 7.20142H11.35C6.45519 7.20142 2.48715 11.1695 2.48715 16.0643V138.936C2.48715 143.831 6.45519 147.799 11.35 147.799H53.65C58.5448 147.799 62.5129 143.831 62.5129 138.936V16.0643C62.5129 11.1695 58.5448 7.20142 53.65 7.20142Z" stroke="black"/>
<path fill-rule="evenodd" clip-rule="evenodd" d="M53.65 9.01428H11.35C7.45637 9.01428 4.29999 12.1707 4.29999 16.0643V138.936C4.29999 142.829 7.45637 145.986 11.35 145.986H53.65C57.5436 145.986 60.7 142.829 60.7 138.936V16.0643C60.7 12.1707 57.5436 9.01428 53.65 9.01428ZM58.6857 138.936C58.6857 141.717 56.4317 143.971 53.65 143.971H11.35C8.56826 143.971 6.31427 141.717 6.31427 138.936V16.0643C6.31427 13.2826 8.56826 11.0286 11.35 11.0286H53.65C56.4317 11.0286 58.6857 13.2826 58.6857 16.0643V138.936Z" fill="black"/>
<path fill-rule="evenodd" clip-rule="evenodd" d="M32.9909 19.2685C32.5072 19.2685 32.0384 19.3573 31.5941 19.54C31.15 19.7226 30.7354 19.9743 30.3504 20.2903C29.9653 20.6062 29.615 20.9861 29.299 21.4254C28.9831 21.8648 28.6918 22.3436 28.4303 22.8617C28.1686 23.38 27.9367 23.9181 27.7394 24.4856C27.537 25.0533 27.369 25.6258 27.2457 26.2034C27.1173 26.7858 27.0137 27.3583 26.9397 27.9211C26.8706 28.4887 26.8311 29.0315 26.8311 29.5401C26.8311 30.0533 26.8706 30.5914 26.9397 31.1589C27.0137 31.7265 27.1173 32.2991 27.2457 32.8767C27.369 33.459 27.537 34.0316 27.7394 34.5943C27.9367 35.162 28.1686 35.7048 28.4303 36.2231C28.6918 36.7414 28.9831 37.2202 29.299 37.6595C29.615 38.0987 29.9653 38.4738 30.3504 38.7897C30.7354 39.1105 31.15 39.3573 31.5941 39.54C32.0384 39.7226 32.5072 39.8164 32.9909 39.8164C33.687 39.8164 34.3138 39.6881 34.8667 39.4313C35.4195 39.1747 35.9279 38.7897 36.3918 38.2813C36.8559 37.7681 37.2851 37.1263 37.6751 36.3515C38.0652 35.5766 38.4353 34.6781 38.7857 33.6565L42.9566 35.5913C42.8233 36.0307 42.6504 36.4897 42.4431 36.9634C42.2359 37.4373 41.9939 37.9161 41.7126 38.39C41.4314 38.8637 41.1154 39.3327 40.76 39.7868C40.4096 40.2458 40.0197 40.6802 39.6002 41.085C39.1805 41.4947 38.7264 41.8697 38.2378 42.2201C37.7541 42.5656 37.2358 42.8668 36.6879 43.1234C36.1351 43.38 35.5577 43.5776 34.9407 43.7206C34.3237 43.8588 33.6772 43.9279 32.9909 43.9279C32.3 43.9279 31.609 43.8342 30.9278 43.6467C30.2466 43.454 29.5803 43.1876 28.9338 42.8322C28.2872 42.4769 27.6703 42.0474 27.0779 41.544C26.4856 41.0356 25.9377 40.4629 25.4243 39.8164C24.9111 39.1698 24.4472 38.464 24.0324 37.7039C23.6229 36.9436 23.2625 36.1294 22.9664 35.2655C22.6653 34.3968 22.4383 33.4837 22.2803 32.5212C22.1223 31.5588 22.0432 30.5665 22.0432 29.5401C22.0432 28.5183 22.1223 27.5261 22.2803 26.5636C22.4383 25.6011 22.6653 24.6831 22.9664 23.8193C23.2625 22.9555 23.6229 22.1412 24.0324 21.3809C24.4472 20.616 24.9111 19.915 25.4145 19.2685C25.9229 18.6219 26.4707 18.0443 27.0582 17.5409C27.6505 17.0325 28.2724 16.603 28.914 16.2527C29.5605 15.8974 30.227 15.6259 30.918 15.4382C31.6041 15.2507 32.3 15.152 32.9909 15.152C33.5537 15.152 34.1016 15.2062 34.6397 15.31C35.1727 15.4135 35.691 15.5666 36.1945 15.7641C36.6928 15.9665 37.1767 16.2082 37.6455 16.4895C38.1145 16.771 38.5635 17.0918 38.9979 17.4571C39.4322 17.8223 39.837 18.222 40.2221 18.6564C40.6071 19.0858 40.9674 19.5548 41.3029 20.0532C41.6386 20.5518 41.9397 21.075 42.2161 21.6278C42.4876 22.1756 42.7344 22.7482 42.9566 23.3454L38.7857 25.4285C38.4353 24.4018 38.0701 23.5034 37.6899 22.7335C37.3149 21.9586 36.9003 21.3169 36.4462 20.8035C35.997 20.2903 35.4935 19.9052 34.9307 19.6486C34.3682 19.3969 33.7265 19.2685 32.9909 19.2685Z" fill="black"/>
<path fill-rule="evenodd" clip-rule="evenodd" d="M34.9037 75.2186H30.0961V51.9115H22.2333V47.795H42.7665V51.9115H34.9037V75.2186Z" fill="black"/>
<path fill-rule="evenodd" clip-rule="evenodd" d="M43.2424 90.5756C43.0955 89.634 42.8881 88.7297 42.6101 87.8704C42.34 87.013 41.9994 86.1987 41.6001 85.4334C41.1949 84.6622 40.7447 83.9516 40.2514 83.2998C39.7581 82.6499 39.2198 82.0666 38.6385 81.5479C38.0493 81.0292 37.4288 80.5868 36.7711 80.2208C36.1114 79.8547 35.4283 79.5748 34.7138 79.381C34.0033 79.1833 33.2673 79.0855 32.5117 79.0855C31.7562 79.0855 31.0163 79.1833 30.3018 79.381C29.5795 79.5748 28.8944 79.8547 28.2426 80.2208C27.5908 80.5868 26.9703 81.0292 26.3772 81.5479C25.7841 82.0666 25.2419 82.6499 24.7486 83.2998C24.2553 83.9516 23.811 84.6622 23.4156 85.4334C23.0202 86.1987 22.6796 87.013 22.4036 87.8704C22.1217 88.7297 21.9103 89.634 21.7616 90.5756C21.6148 91.523 21.5404 92.486 21.5404 93.4725C21.5404 94.4747 21.6148 95.4437 21.7616 96.3813C21.9103 97.3189 22.1217 98.2173 22.4036 99.0747C22.6796 99.9399 23.0202 100.748 23.4156 101.52C23.811 102.289 24.2553 102.995 24.7486 103.645C25.2419 104.303 25.7841 104.884 26.3772 105.403C26.9703 105.922 27.5908 106.36 28.2426 106.732C28.8944 107.096 29.5795 107.372 30.3018 107.57C31.0163 107.762 31.7562 107.862 32.5117 107.862C33.2673 107.862 34.0033 107.762 34.7138 107.57C35.4283 107.372 36.1114 107.096 36.7711 106.732C37.4288 106.36 38.0493 105.922 38.6385 105.403C39.2198 104.884 39.7581 104.303 40.2514 103.645C40.7447 102.995 41.1949 102.289 41.6001 101.52C41.9994 100.748 42.34 99.9399 42.6101 99.0747C42.8881 98.2173 43.0955 97.3189 43.2424 96.3813C43.3852 95.4437 43.4596 94.4747 43.4596 93.4725C43.4596 92.486 43.3852 91.523 43.2424 90.5756ZM38.5445 95.5415C38.4604 96.2129 38.341 96.855 38.1883 97.4716C38.0356 98.0842 37.8477 98.6656 37.6206 99.2137C37.3936 99.7618 37.1411 100.271 36.8612 100.744C36.5793 101.212 36.2778 101.633 35.947 102.003C35.6162 102.373 35.2717 102.688 34.9057 102.945C34.5416 103.203 34.156 103.399 33.7567 103.538C33.3515 103.681 32.9365 103.749 32.5118 103.749C32.0831 103.749 31.6681 103.681 31.2688 103.538C30.8636 103.399 30.478 103.203 30.108 102.945C29.7342 102.688 29.3838 102.373 29.0569 102.003C28.7261 101.633 28.4207 101.212 28.1447 100.744C27.8629 100.271 27.6103 99.7618 27.3931 99.2137C27.1719 98.6656 26.984 98.0842 26.8254 97.4716C26.6688 96.855 26.5494 96.2129 26.4711 95.5415C26.3909 94.8701 26.3517 94.1792 26.3517 93.4725C26.3517 92.7679 26.3909 92.0808 26.4711 91.4094C26.5494 90.738 26.6688 90.0979 26.8254 89.4814C26.984 88.8628 27.1719 88.2815 27.3931 87.7334C27.6103 87.1853 27.8629 86.6763 28.1447 86.2085C28.4207 85.7387 28.7261 85.3198 29.0569 84.944C29.3838 84.5741 29.7342 84.2628 30.108 84.0064C30.478 83.75 30.8636 83.5523 31.2688 83.4094C31.6681 83.2704 32.0831 83.2019 32.5118 83.2019C32.9365 83.2019 33.3515 83.2704 33.7567 83.4094C34.156 83.5523 34.5416 83.75 34.9057 84.0064C35.2717 84.2628 35.6162 84.5741 35.947 84.944C36.2778 85.3198 36.5793 85.7388 36.8612 86.2085C37.1411 86.6763 37.3936 87.1853 37.6206 87.7334C37.8477 88.2814 38.0356 88.8628 38.1883 89.4814C38.341 90.0979 38.4604 90.738 38.5445 91.4094C38.6267 92.0808 38.6718 92.7679 38.6718 93.4725C38.6718 94.1792 38.6267 94.8701 38.5445 95.5415Z" fill="black"/>
<path fill-rule="evenodd" clip-rule="evenodd" d="M22.9021 111.728H42.0976V139.152H37.9861V115.845H27.0137V139.152H22.9021V111.728Z" fill="black"/>
</svg>
