<svg width="100" height="86" viewBox="0 0 100 86" fill="none" xmlns="http://www.w3.org/2000/svg">
<path d="M84.8571 3H15.1429C12.3025 3 10 5.30254 10 8.14286V77.8571C10 80.6975 12.3025 83 15.1429 83H84.8571C87.6975 83 90 80.6975 90 77.8571V8.14286C90 5.30254 87.6975 3 84.8571 3Z" fill="white"/>
<path d="M84.8571 3.11429H15.1429C12.3657 3.11429 10.1143 5.36566 10.1143 8.14286V77.8571C10.1143 80.6343 12.3657 82.8857 15.1429 82.8857H84.8571C87.6343 82.8857 89.8857 80.6343 89.8857 77.8571V8.14286C89.8857 5.36566 87.6343 3.11429 84.8571 3.11429Z" stroke="black"/>
<path fill-rule="evenodd" clip-rule="evenodd" d="M12.2857 8.14286C12.2857 6.56481 13.5648 5.28572 15.1428 5.28572H84.8571C86.4351 5.28572 87.7143 6.56481 87.7143 8.14286V77.8571C87.7143 79.4351 86.4351 80.7143 84.8571 80.7143H54V77.6666C54 76.2266 55.2266 74.7066 56.7999 72.76L74.2133 52.4933C77.0933 49.32 79.2 45.9066 79.2 42.4666V29.6666H85.9199L75.2 11L64.6666 29.6666H71.2266L71.2532 41.3999C71.2532 43.3466 70.24 45.56 68.32 48.04L54 64.6266V29.6666H60.7732L50 11L39.2266 29.6666H46V64.6266L31.68 48.04C29.76 45.56 28.7466 43.3466 28.7466 41.3999L28.7732 29.6666H35.3332L24.8 11L14.08 29.6666H20.8V42.4666C20.8 45.9066 22.9066 49.32 25.7866 52.4933L43.2 72.76C44.7732 74.7066 46 76.2266 46 77.6666V80.7143H15.1428C13.5648 80.7143 12.2857 79.4351 12.2857 77.8571V8.14286Z" fill="#0D69E1"/>
</svg>
