<svg width="125" height="61" viewBox="0 0 125 61" fill="none" xmlns="http://www.w3.org/2000/svg">
<path d="M111.375 2H13.625C8.86154 2 5 5.86154 5 10.625V50.875C5 55.6385 8.86154 59.5 13.625 59.5H111.375C116.138 59.5 120 55.6385 120 50.875V10.625C120 5.86154 116.138 2 111.375 2Z" fill="black"/>
<path d="M111.375 3.91666H13.625C9.92009 3.91666 6.91666 6.92009 6.91666 10.625V50.875C6.91666 54.5799 9.92009 57.5833 13.625 57.5833H111.375C115.08 57.5833 118.083 54.5799 118.083 50.875V10.625C118.083 6.92009 115.08 3.91666 111.375 3.91666Z" fill="white"/>
<path d="M37.6668 40.0881H33.85V41.728H37.6668V40.0881Z" fill="black"/>
<path fill-rule="evenodd" clip-rule="evenodd" d="M46.8504 43.7028C46.7872 43.6817 46.7297 43.6472 46.676 43.6012C46.6223 43.5552 46.5782 43.4977 46.5399 43.4287C46.5054 43.3617 46.4862 43.2831 46.4862 43.1892V39.9193C46.4862 39.6759 46.4613 39.4497 46.4096 39.237C46.3598 39.0262 46.2869 38.8287 46.1911 38.6409C46.0953 38.455 45.9841 38.2844 45.8518 38.1292C45.7215 37.9739 45.5758 37.8302 45.4187 37.7017C45.2615 37.5733 45.0947 37.4602 44.9165 37.3644C44.7382 37.2647 44.5562 37.1823 44.3683 37.1153C44.1767 37.0463 43.985 36.9964 43.7914 36.9619C43.5959 36.9293 43.4062 36.9121 43.2164 36.9121C42.9538 36.9121 42.6951 36.9294 42.4402 36.9658C42.1852 37.0022 41.9323 37.0616 41.6831 37.1421C41.4339 37.2207 41.1905 37.3242 40.9509 37.4507C40.7133 37.5753 40.4813 37.7286 40.259 37.9088L41.0314 39.0952C41.1924 38.9399 41.3611 38.8115 41.5374 38.7023C41.7138 38.5969 41.8978 38.5125 42.0856 38.4493C42.2773 38.386 42.4651 38.34 42.6548 38.317C42.8446 38.294 43.0324 38.2806 43.2164 38.2806C43.318 38.2806 43.4196 38.2921 43.5212 38.3132C43.6247 38.3343 43.7224 38.3669 43.8163 38.4033C43.9103 38.4435 44.0042 38.4914 44.0904 38.5489C44.1767 38.6084 44.2591 38.6735 44.3377 38.7464C44.4143 38.8211 44.4852 38.8997 44.5485 38.9879C44.6117 39.0741 44.6654 39.1661 44.7095 39.2639C44.7517 39.3616 44.7862 39.4632 44.8111 39.5744C44.836 39.6817 44.8475 39.7986 44.8475 39.9194L42.1239 40.4579C42.007 40.4829 41.8901 40.5135 41.7693 40.5538C41.6524 40.5921 41.5355 40.6381 41.4243 40.6899C41.3132 40.7454 41.2058 40.8068 41.1023 40.8777C41.0027 40.9486 40.9068 41.0272 40.8167 41.1173C40.7267 41.2074 40.6423 41.3051 40.5676 41.4124C40.4928 41.5179 40.4315 41.6367 40.3797 41.7632C40.328 41.8878 40.2897 42.0239 40.259 42.1695C40.2303 42.3152 40.2168 42.4743 40.2168 42.6429C40.2168 42.779 40.2283 42.9189 40.2513 43.0627C40.2743 43.2064 40.3127 43.3464 40.3625 43.4882C40.4085 43.6281 40.4698 43.7661 40.5427 43.9003C40.6155 44.0325 40.7017 44.159 40.8014 44.2779C40.9011 44.3967 41.0142 44.5079 41.1407 44.6094C41.2672 44.711 41.4071 44.7992 41.5623 44.8663C41.7176 44.9372 41.8882 44.9947 42.0722 45.0369C42.2581 45.0771 42.4555 45.0963 42.6702 45.0963C42.7775 45.0963 42.8868 45.0886 42.996 45.0714C43.1091 45.056 43.2183 45.033 43.3295 45.0024C43.4387 44.9736 43.5461 44.9353 43.6534 44.8912C43.7588 44.8433 43.8643 44.7915 43.962 44.734C44.0617 44.6746 44.1575 44.6094 44.2476 44.5366C44.3358 44.4638 44.4182 44.3852 44.4948 44.3028C44.5696 44.2204 44.6367 44.1322 44.698 44.0364C44.7593 43.9424 44.8072 43.8428 44.8475 43.7335C44.8475 43.9386 44.8897 44.1264 44.9797 44.2932C45.066 44.46 45.1829 44.6037 45.3324 44.7225C45.48 44.8414 45.6525 44.9334 45.8518 44.9985C46.0531 45.0637 46.262 45.0963 46.4862 45.0963L47.0325 43.7335C46.975 43.7374 46.9137 43.7239 46.8504 43.7028ZM44.8475 42.0967C44.8475 42.204 44.8322 42.3056 44.7958 42.4033C44.7632 42.4992 44.7153 42.5893 44.6539 42.6736C44.5926 42.756 44.5217 42.8327 44.4354 42.9055C44.3511 42.9783 44.2572 43.0435 44.1518 43.101C44.0463 43.1604 43.9371 43.2122 43.8163 43.2543C43.6994 43.2984 43.5748 43.3348 43.4483 43.3674C43.3238 43.4 43.1934 43.4211 43.0631 43.4383C42.9309 43.4517 42.8005 43.4594 42.6702 43.4594C42.5782 43.4594 42.4881 43.4422 42.398 43.4077C42.306 43.3751 42.2236 43.3233 42.1489 43.2543C42.0741 43.1873 42.0089 43.101 41.9572 42.9994C41.9035 42.8978 41.8671 42.779 41.8537 42.6429C41.8479 42.6007 41.846 42.5586 41.846 42.5183C41.846 42.4129 41.8671 42.3133 41.9054 42.2213C41.9591 42.0948 42.0358 41.9855 42.1354 41.8897C42.2332 41.7938 42.3539 41.7172 42.4919 41.6558C42.628 41.5945 42.7775 41.5504 42.9309 41.5217L44.8475 41.1345L44.8475 42.0967Z" fill="black"/>
<path fill-rule="evenodd" clip-rule="evenodd" d="M49.1063 37.1808H55.1155V44.8279H53.4775V38.5493H50.7462V44.8279H49.1063V37.1808Z" fill="black"/>
<path fill-rule="evenodd" clip-rule="evenodd" d="M64.4627 40.1819C64.4147 39.9136 64.3458 39.6587 64.2557 39.4133C64.1675 39.168 64.0583 38.9361 63.9337 38.7176C63.8053 38.4991 63.6615 38.2978 63.4986 38.1119C63.3357 37.9279 63.1593 37.7631 62.9715 37.6136C62.7798 37.466 62.5805 37.3395 62.3697 37.236C62.1588 37.1306 61.9365 37.0501 61.7027 36.9964C61.4707 36.9389 61.2331 36.9121 60.9897 36.9121C60.8306 36.9121 60.6658 36.937 60.5009 36.9887C60.3361 37.0386 60.1712 37.1114 60.0064 37.2053C59.8397 37.3012 59.6806 37.4162 59.5253 37.5522C59.3701 37.6883 59.2206 37.8417 59.0826 38.0103L58.8123 37.1881H57.4419V48.0977H59.0826V43.998C59.2206 44.1667 59.3701 44.32 59.5253 44.4561C59.6806 44.5922 59.8397 44.7072 60.0064 44.803C60.1712 44.8969 60.3361 44.9697 60.5009 45.0215C60.6658 45.0713 60.8306 45.0962 60.9897 45.0962C61.2331 45.0962 61.4707 45.0694 61.7027 45.0138C61.9365 44.9582 62.1588 44.8777 62.3697 44.7723C62.5805 44.6688 62.7798 44.5423 62.9715 44.3947C63.1593 44.2452 63.3357 44.0804 63.4986 43.8964C63.6615 43.7105 63.8053 43.5112 63.9337 43.2927C64.0583 43.0742 64.1675 42.8422 64.2557 42.595C64.3458 42.3497 64.4147 42.0947 64.4627 41.8264C64.5125 41.56 64.5355 41.2859 64.5355 41.0061C64.5355 40.7224 64.5125 40.4483 64.4627 40.1819ZM62.73 41.5236C62.7051 41.6942 62.6706 41.8532 62.6208 42.0066C62.5728 42.1599 62.5134 42.3037 62.4425 42.4397C62.3716 42.5739 62.293 42.7023 62.2067 42.8173C62.1186 42.9342 62.0228 43.0377 61.9174 43.1317C61.8139 43.2237 61.7046 43.3022 61.5915 43.3693C61.4765 43.4345 61.3577 43.4824 61.2293 43.5169C61.1028 43.5514 60.9724 43.5668 60.8364 43.5668C60.6428 43.5668 60.4569 43.5323 60.2748 43.4594C60.0965 43.3866 59.9317 43.2831 59.7803 43.1489C59.6308 43.0148 59.4947 42.8576 59.3759 42.6736C59.257 42.4877 59.1593 42.2845 59.0826 42.0679V39.9423C59.1593 39.7238 59.257 39.5207 59.3759 39.3367C59.4947 39.1527 59.6308 38.9936 59.7803 38.8594C59.9317 38.7272 60.0965 38.6237 60.2748 38.5489C60.4569 38.4761 60.6428 38.4416 60.8364 38.4416C60.9724 38.4416 61.1028 38.4589 61.2293 38.4914C61.3577 38.5259 61.4765 38.5738 61.5915 38.6409C61.7046 38.7061 61.8139 38.7847 61.9174 38.8767C62.0228 38.9706 62.1186 39.0741 62.2067 39.191C62.293 39.3079 62.3716 39.4344 62.4425 39.5705C62.5134 39.7047 62.5728 39.8503 62.6208 40.0056C62.6706 40.1608 62.7051 40.3238 62.73 40.4905C62.7549 40.6592 62.7664 40.8298 62.7664 41.0061C62.7664 41.1843 62.7549 41.3568 62.73 41.5236Z" fill="black"/>
<path fill-rule="evenodd" clip-rule="evenodd" d="M73.3387 40.1819C73.2889 39.9136 73.2199 39.6587 73.1298 39.4133C73.0398 39.168 72.9305 38.9361 72.8021 38.7176C72.6737 38.4991 72.5299 38.2978 72.3689 38.1119C72.2098 37.9279 72.0335 37.7631 71.8457 37.6136C71.654 37.466 71.4547 37.3395 71.2438 37.236C71.033 37.1306 70.8107 37.0501 70.5807 36.9964C70.3507 36.9389 70.1111 36.9121 69.8638 36.9121C69.6204 36.9121 69.3828 36.9389 69.1489 36.9964C68.917 37.0501 68.6947 37.1306 68.4819 37.236C68.273 37.3395 68.0718 37.466 67.8839 37.6136C67.6923 37.7631 67.5178 37.9279 67.3587 38.1119C67.1977 38.2978 67.054 38.4991 66.9256 38.7176C66.7952 38.9361 66.6879 39.168 66.5978 39.4133C66.5058 39.6587 66.4388 39.9136 66.3889 40.1819C66.341 40.4483 66.3161 40.7224 66.3161 41.0061C66.3161 41.2859 66.341 41.5619 66.3889 41.8322C66.4388 42.1005 66.5058 42.3554 66.5978 42.6007C66.6879 42.8422 66.7953 43.0742 66.9256 43.2927C67.054 43.5112 67.1978 43.7124 67.3587 43.9002C67.5178 44.0862 67.6923 44.2529 67.8839 44.4005C68.0718 44.55 68.273 44.6746 68.4819 44.7762C68.6947 44.8797 68.917 44.9582 69.1489 45.0138C69.3828 45.0694 69.6204 45.0962 69.8638 45.0962C70.1648 45.0962 70.4523 45.056 70.7302 44.9736C71.0081 44.8912 71.2687 44.7742 71.5179 44.6228C71.7652 44.4733 71.9932 44.2932 72.2002 44.0804C72.4092 43.8696 72.597 43.6338 72.7618 43.3712L71.4068 42.6142C71.3205 42.7847 71.2189 42.9381 71.1078 43.0761C70.9985 43.216 70.8758 43.3329 70.7436 43.4287C70.6152 43.5265 70.4752 43.6032 70.3257 43.6568C70.1782 43.7086 70.0248 43.7373 69.8638 43.7335C69.6358 43.7373 69.4173 43.6798 69.2083 43.5667C68.9994 43.4575 68.8135 43.3042 68.6487 43.1087C68.4819 42.9151 68.3439 42.6851 68.2289 42.4167C68.1158 42.1503 68.0353 41.8609 67.9913 41.5504H73.3809C73.3905 41.4642 73.3982 41.3722 73.402 41.2802C73.4078 41.1882 73.4097 41.0981 73.4097 41.0061C73.4097 40.7224 73.3867 40.4483 73.3387 40.1819ZM68.043 40.1896C68.1043 39.9117 68.1963 39.6567 68.3113 39.4248C68.4283 39.191 68.5643 38.9897 68.7234 38.8192C68.8825 38.6486 69.0569 38.5183 69.2524 38.4243C69.446 38.3266 69.6492 38.2806 69.8638 38.2806C70.0785 38.2806 70.2797 38.3266 70.4752 38.4243C70.6688 38.5183 70.8452 38.6486 71.0043 38.8192C71.1614 38.9897 71.2994 39.191 71.4183 39.4248C71.5371 39.6567 71.6253 39.9117 71.6847 40.1896H68.043Z" fill="black"/>
<path fill-rule="evenodd" clip-rule="evenodd" d="M82.1658 37.1808V44.8279H80.5278V38.5493H78.3491L78.2034 41.0053C78.1898 41.253 78.1503 41.4989 78.0915 41.7446C78.0306 41.9884 77.9499 42.2264 77.8496 42.4583C77.7513 42.6885 77.6373 42.9107 77.5075 43.123C77.3797 43.3373 77.242 43.5378 77.0966 43.7247C76.9509 43.9116 76.7976 44.0846 76.6345 44.2418C76.4712 44.3992 76.3081 44.5387 76.1467 44.6568C75.9836 44.7767 75.8224 44.873 75.661 44.9477C75.5017 45.0225 75.3484 45.0736 75.2029 45.0972L74.9256 43.4592C75.1498 43.3668 75.3603 43.2409 75.5569 43.0838C75.7536 42.9264 75.9285 42.7435 76.08 42.5331C76.2333 42.3248 76.3571 42.0907 76.4516 41.8312C76.5459 41.5715 76.6009 41.2963 76.6166 41.0053L76.8409 37.1808H82.1658Z" fill="black"/>
<path fill-rule="evenodd" clip-rule="evenodd" d="M90.0942 41.8456C90.0579 41.6769 90.0061 41.5198 89.9371 41.3722C89.87 41.2227 89.7857 41.0847 89.6879 40.9543C89.5883 40.8221 89.4752 40.7052 89.3506 40.5959C89.228 40.4905 89.0938 40.3947 88.9481 40.3084C88.8025 40.2241 88.6472 40.1513 88.4843 40.0957C88.3233 40.0363 88.1527 39.9903 87.9706 39.9596C87.7924 39.927 87.6103 39.9117 87.4244 39.9117H85.3716V37.1804H83.7329V44.8279H87.4244C87.6103 44.8279 87.7924 44.8126 87.9706 44.78C88.1527 44.7493 88.3233 44.7033 88.4843 44.6478C88.6472 44.5883 88.8024 44.5174 88.9481 44.435C89.0938 44.3526 89.2279 44.2548 89.3506 44.1475C89.4752 44.0363 89.5883 43.9175 89.6879 43.7853C89.7857 43.6568 89.87 43.5169 89.9371 43.3674C90.0061 43.2198 90.0578 43.0627 90.0942 42.8959C90.1306 42.7273 90.1498 42.5509 90.1498 42.365C90.1498 42.1868 90.1307 42.0143 90.0942 41.8456ZM88.2868 42.8135C88.2332 42.9477 88.1546 43.0646 88.0549 43.1604C87.9552 43.2563 87.8402 43.3329 87.7099 43.3866C87.5777 43.4403 87.4377 43.4671 87.2863 43.4652H85.3716V41.2802H87.2863C87.4377 41.2802 87.5777 41.3051 87.7099 41.3568C87.8402 41.4086 87.9552 41.4833 88.0549 41.5792C88.1546 41.6769 88.2332 41.7919 88.2868 41.9261C88.3443 42.0603 88.3712 42.2059 88.3712 42.365C88.3712 42.5318 88.3443 42.6813 88.2868 42.8135Z" fill="black"/>
<path fill-rule="evenodd" clip-rule="evenodd" d="M30.4982 27.8568C30.2563 27.8568 30.0184 27.8292 29.7844 27.7742C29.5523 27.7173 29.3302 27.6366 29.1197 27.5323C28.9074 27.4282 28.7069 27.3023 28.5181 27.1547C28.3293 27.0054 28.1543 26.8402 27.9931 26.6554C27.8338 26.4705 27.6884 26.27 27.5605 26.0517C27.4327 25.8334 27.3227 25.6014 27.2322 25.3555C27.1436 25.1098 27.0729 24.8541 27.0256 24.5868C26.9765 24.3194 26.9529 24.0461 26.9529 23.7649C26.9529 23.4816 26.9765 23.2083 27.0256 22.9409C27.0729 22.6735 27.1436 22.4179 27.2322 22.1721C27.3227 21.9283 27.4327 21.6962 27.5605 21.4779C27.6884 21.2596 27.8338 21.0553 27.9931 20.8684C28.1543 20.6816 28.3293 20.5144 28.5181 20.367C28.7069 20.2194 28.9074 20.0937 29.1197 19.9914C29.3302 19.8892 29.5523 19.8104 29.7844 19.7554C30.0184 19.6985 30.2563 19.6709 30.4982 19.6709C30.8541 19.6709 31.1924 19.728 31.5148 19.838C31.8374 19.9502 32.1362 20.1075 32.4114 20.312C32.6847 20.5163 32.9325 20.7603 33.1528 21.0434C33.3749 21.3286 33.5558 21.6431 33.6956 21.9872L32.2542 22.6716C32.1814 22.4297 32.085 22.2074 31.9671 22.0088C31.8471 21.8103 31.7114 21.6372 31.5581 21.4917C31.4067 21.3463 31.2415 21.2341 31.0626 21.1534C30.8855 21.0729 30.6989 21.0336 30.4982 21.0336C30.3684 21.0336 30.2406 21.0513 30.1168 21.0867C29.993 21.1241 29.8749 21.1772 29.7589 21.2479C29.6449 21.3187 29.5387 21.4032 29.4364 21.5036C29.3342 21.6019 29.2397 21.712 29.1513 21.8339C29.0647 21.9558 28.9861 22.0895 28.9192 22.239C28.8504 22.3864 28.7933 22.5417 28.7442 22.705C28.695 22.8662 28.6578 23.0373 28.6302 23.2142C28.6047 23.3911 28.5909 23.5742 28.5909 23.7649C28.5909 23.9537 28.6047 24.1365 28.6302 24.3134C28.6578 24.4904 28.695 24.6615 28.7442 24.8246C28.7933 24.986 28.8504 25.1413 28.9192 25.2867C28.9861 25.4322 29.0647 25.566 29.1513 25.6898C29.2397 25.8138 29.3342 25.9257 29.4364 26.0262C29.5387 26.1245 29.6449 26.209 29.7589 26.2759C29.8749 26.3447 29.993 26.3978 30.1168 26.4371C30.2406 26.4764 30.3684 26.4961 30.4982 26.494C30.6989 26.4961 30.8855 26.4547 31.0626 26.3742C31.2415 26.2955 31.4067 26.1814 31.5581 26.036C31.7114 25.8905 31.8471 25.7174 31.9671 25.5148C32.085 25.3143 32.1814 25.0941 32.2542 24.8562L33.6956 25.5405C33.5558 25.8865 33.3749 26.2012 33.1528 26.4843C32.9325 26.7674 32.6847 27.0133 32.4114 27.2159C32.1362 27.4202 31.8374 27.5775 31.5148 27.6897C31.1924 27.8018 30.8541 27.8568 30.4982 27.8568Z" fill="black"/>
<path fill-rule="evenodd" clip-rule="evenodd" d="M42.3846 22.9415C42.3367 22.6732 42.2677 22.4183 42.1776 22.1729C42.0894 21.9276 41.9783 21.6957 41.8498 21.4772C41.7214 21.2606 41.5777 21.0574 41.4167 20.8715C41.2557 20.6875 41.0813 20.5227 40.8934 20.3732C40.7018 20.2256 40.5024 20.0991 40.2916 19.9956C40.0808 19.8921 39.8584 19.8097 39.6284 19.756C39.3984 19.6985 39.1588 19.6717 38.9116 19.6717C38.6682 19.6717 38.4305 19.6985 38.1967 19.756C37.9648 19.8097 37.7424 19.8921 37.5297 19.9956C37.3208 20.0991 37.1195 20.2256 36.9317 20.3732C36.74 20.5227 36.5656 20.6875 36.4065 20.8715C36.2436 21.0574 36.1018 21.2606 35.9733 21.4772C35.843 21.6957 35.7357 21.9276 35.6456 22.1729C35.5536 22.4183 35.4846 22.6732 35.4367 22.9415C35.3888 23.2079 35.3638 23.482 35.3638 23.7657C35.3638 24.0455 35.3888 24.3215 35.4367 24.5898C35.4846 24.8601 35.5536 25.115 35.6456 25.3603C35.7357 25.6018 35.843 25.8338 35.9733 26.0523C36.1018 26.2708 36.2436 26.472 36.4065 26.6598C36.5656 26.8458 36.74 27.0125 36.9317 27.1601C37.1195 27.3096 37.3208 27.4342 37.5297 27.5358C37.7424 27.6393 37.9648 27.7178 38.1967 27.7734C38.4305 27.829 38.6682 27.8559 38.9116 27.8559C39.2125 27.8559 39.5 27.8156 39.7779 27.7332C40.0558 27.6508 40.3165 27.5339 40.5638 27.3824C40.8129 27.2329 41.041 27.0528 41.248 26.84C41.4569 26.6292 41.6448 26.3934 41.8096 26.1309L40.4545 25.3738C40.3683 25.5444 40.2686 25.6977 40.1555 25.8357C40.0463 25.9756 39.9236 26.0925 39.7913 26.1903C39.6629 26.2861 39.523 26.3628 39.3735 26.4164C39.2259 26.4682 39.0726 26.4969 38.9116 26.4931C38.6835 26.4969 38.465 26.4394 38.2561 26.3264C38.0472 26.2171 37.8613 26.0638 37.6964 25.8683C37.5296 25.6747 37.3917 25.4447 37.2767 25.1764C37.1636 24.9099 37.0812 24.6205 37.039 24.31H42.4287C42.4383 24.2238 42.4459 24.1318 42.4498 24.0398C42.4555 23.9478 42.4574 23.8577 42.4574 23.7657C42.4574 23.482 42.4344 23.2079 42.3846 22.9415ZM37.0907 22.9492C37.1521 22.6713 37.2441 22.4163 37.3591 22.1844C37.476 21.9506 37.6121 21.7493 37.7712 21.5788C37.9303 21.4082 38.1047 21.2778 38.3002 21.182C38.4938 21.0862 38.6969 21.0402 38.9116 21.0402C39.1243 21.0402 39.3275 21.0862 39.523 21.182C39.7166 21.2778 39.8929 21.4082 40.052 21.5788C40.2092 21.7493 40.3453 21.9506 40.466 22.1844C40.5848 22.4163 40.673 22.6713 40.7324 22.9492H37.0907Z" fill="black"/>
<path fill-rule="evenodd" clip-rule="evenodd" d="M44.5849 19.9404H46.2248V22.9409H48.9561V19.9404H50.594V27.5875H48.9561V24.3094H46.2248V27.5875H44.5849V19.9404Z" fill="black"/>
<path fill-rule="evenodd" clip-rule="evenodd" d="M52.5975 19.9404H58.6067V21.3089H56.4221V27.5875H54.7822V21.3089H52.5975V19.9404Z" fill="black"/>
<path fill-rule="evenodd" clip-rule="evenodd" d="M63.6481 19.94C63.4737 19.94 63.3012 19.9534 63.1344 19.9802C62.9658 20.0071 62.8086 20.0473 62.6572 20.0972C62.5058 20.1489 62.362 20.2122 62.224 20.2869C62.0841 20.3617 61.9595 20.4479 61.8445 20.5457C61.7314 20.6415 61.6279 20.7488 61.5359 20.8619C61.4439 20.9769 61.3653 21.0996 61.2983 21.2337C61.2331 21.366 61.1852 21.5079 61.1488 21.6554C61.1162 21.8049 61.097 21.9602 61.097 22.125C61.097 22.3588 61.1334 22.5773 61.2043 22.7824C61.2752 22.9837 61.373 23.1715 61.4995 23.3382C61.6241 23.505 61.7755 23.6545 61.9518 23.7867C62.1263 23.9171 62.3179 24.0244 62.5326 24.1068H62.5038C62.4559 24.1068 62.4099 24.1164 62.3658 24.1337C62.3064 24.1605 62.2508 24.195 62.1914 24.241C62.132 24.2889 62.0745 24.3407 62.017 24.4058C61.9576 24.4691 61.9001 24.5381 61.8407 24.6167C61.7851 24.6933 61.7257 24.7777 61.6663 24.8677C61.6088 24.9559 61.5493 25.0479 61.4918 25.1418C61.4343 25.2338 61.3768 25.3258 61.3193 25.4197C61.2657 25.5156 61.2082 25.6095 61.1488 25.7015C61.0529 25.8567 60.959 26.0139 60.8689 26.1749C60.7788 26.334 60.6888 26.4931 60.5968 26.6522C60.5048 26.8093 60.4089 26.9684 60.3112 27.1256C60.2153 27.2827 60.1137 27.438 60.0064 27.5875H61.8196C61.8982 27.4706 61.9768 27.346 62.0592 27.2118C62.1416 27.0777 62.224 26.9416 62.3026 26.8017C62.3831 26.6617 62.4655 26.518 62.546 26.3723C62.6303 26.2267 62.7128 26.0848 62.7952 25.9487C62.9504 25.6919 63.098 25.4753 63.236 25.3009C63.3759 25.1246 63.5158 24.9866 63.6615 24.8773C63.8072 24.7719 63.9586 24.6952 64.1177 24.6492C64.2748 24.6032 64.455 24.5783 64.6524 24.5783H65.1987V27.5875H66.8374V19.94L63.6481 19.94ZM65.1987 23.2175H63.6998C63.5638 23.2175 63.4372 23.1945 63.3242 23.1504C63.2092 23.1025 63.1095 23.0373 63.0213 22.953C62.9351 22.8667 62.8661 22.7652 62.8143 22.6502C62.7626 22.5332 62.7377 22.4029 62.7377 22.2572C62.7377 22.1154 62.7626 21.987 62.8143 21.872C62.8661 21.7532 62.9351 21.6535 63.0213 21.5692C63.1095 21.4829 63.2092 21.4177 63.3242 21.3717C63.4372 21.3238 63.5638 21.3027 63.6998 21.3027H65.1987V23.2175Z" fill="black"/>
<path fill-rule="evenodd" clip-rule="evenodd" d="M75.1998 22.1729C75.1155 21.9391 75.012 21.7168 74.8912 21.5098C74.7686 21.3028 74.6306 21.1168 74.4792 20.9443C74.3258 20.7757 74.1591 20.6243 73.9808 20.4901C73.8007 20.3578 73.6109 20.2428 73.4077 20.1528C73.2084 20.0608 72.9956 19.9898 72.7752 19.94C72.5548 19.8921 72.3267 19.8672 72.0948 19.8672C71.9108 19.8672 71.7287 19.894 71.5524 19.9438C71.3741 19.9956 71.2036 20.0665 71.0387 20.1585C70.8739 20.2505 70.7167 20.3655 70.5691 20.4958C70.4196 20.63 70.2855 20.7833 70.1628 20.9539V20.8792C70.1628 20.7546 70.1743 20.6243 70.1935 20.4958C70.2165 20.3387 70.2548 20.1834 70.3008 20.0282C70.3506 19.8729 70.412 19.7196 70.4848 19.5682C70.5576 19.4187 70.642 19.2749 70.7397 19.1446C70.8356 19.0104 70.9467 18.8858 71.0656 18.7766C71.1882 18.6635 71.3205 18.5677 71.4642 18.4872C71.608 18.4067 71.7613 18.3434 71.9261 18.2993C72.091 18.2514 72.2692 18.2303 72.459 18.2303C72.6679 18.2342 72.8711 18.2399 73.0742 18.2438C73.2736 18.2495 73.4767 18.2514 73.6818 18.2514C73.8869 18.2514 74.092 18.2457 74.3009 18.2342C74.5098 18.2188 74.7264 18.1978 74.9487 18.1633L75.4586 16.3923C75.2937 16.4478 75.0944 16.4862 74.8606 16.5111C74.6286 16.5341 74.3795 16.5533 74.115 16.5628C73.8505 16.5724 73.5764 16.5763 73.2927 16.5763H72.459C72.1523 16.5763 71.8591 16.6127 71.5773 16.6874C71.2936 16.7641 71.0291 16.8753 70.78 17.0209C70.5289 17.1666 70.2951 17.3448 70.0785 17.5557C69.8657 17.7665 69.6683 18.008 69.4901 18.2763C69.3118 18.5466 69.1546 18.8418 69.0128 19.1657C68.871 19.4877 68.7541 19.8346 68.6601 20.2026C68.5643 20.5706 68.4934 20.9654 68.4416 21.3794C68.3899 21.7953 68.365 22.2247 68.365 22.6713C68.365 22.9722 68.388 23.2788 68.434 23.5893C68.48 23.8998 68.5471 24.2046 68.6333 24.5055C68.7215 24.8083 68.8307 25.0997 68.9591 25.3814C69.0876 25.6632 69.2332 25.9277 69.3942 26.1749C69.5591 26.4241 69.7392 26.6502 69.9366 26.8553C70.1379 27.0623 70.3506 27.2387 70.5749 27.3862C70.8011 27.5357 71.0406 27.6507 71.2956 27.7332C71.5524 27.8156 71.8169 27.8558 72.0948 27.8558C72.3037 27.8558 72.5088 27.8328 72.7158 27.7888C72.9228 27.7408 73.126 27.6718 73.3215 27.5798C73.5189 27.4898 73.7067 27.3748 73.8907 27.2406C74.0709 27.1083 74.2415 26.955 74.3986 26.7787C74.5558 26.6043 74.7015 26.4087 74.8318 26.1979C74.9641 25.9833 75.0752 25.7513 75.1691 25.4964C75.2611 25.2453 75.332 24.9732 75.3819 24.6857C75.4336 24.3963 75.4585 24.0896 75.4585 23.7657C75.4585 23.4724 75.4375 23.1945 75.3915 22.9262C75.3493 22.6598 75.2861 22.4087 75.1998 22.1729ZM73.8428 24.31C73.8179 24.4806 73.7815 24.6435 73.7374 24.7988C73.6895 24.954 73.6358 25.0997 73.5707 25.2396C73.5093 25.3776 73.4384 25.506 73.3579 25.621C73.2774 25.7379 73.1873 25.8433 73.0915 25.9373C72.9957 26.0312 72.8941 26.1136 72.7848 26.1768C72.6794 26.2439 72.5663 26.2938 72.4513 26.3263C72.3344 26.3628 72.2156 26.3781 72.0948 26.3781C71.9722 26.3781 71.8533 26.3628 71.7364 26.3263C71.6214 26.2938 71.5083 26.2439 71.4029 26.1768C71.2937 26.1136 71.194 26.0312 71.1001 25.9373C71.0062 25.8433 70.918 25.7379 70.8375 25.621C70.757 25.506 70.6842 25.3776 70.619 25.2396C70.5538 25.0997 70.4983 24.954 70.4503 24.7988C70.4063 24.6435 70.3717 24.4806 70.3507 24.31C70.3277 24.1394 70.3181 23.965 70.3181 23.7868C70.3181 23.6047 70.3277 23.4322 70.3507 23.2616C70.3717 23.0929 70.4063 22.93 70.4503 22.7748C70.4983 22.6176 70.5538 22.4719 70.619 22.3339C70.6842 22.194 70.757 22.0675 70.8375 21.9506C70.918 21.8337 71.0062 21.7283 71.1001 21.6324C71.194 21.5385 71.2937 21.458 71.4029 21.3928C71.5083 21.3296 71.6214 21.2778 71.7364 21.2395C71.8533 21.205 71.9722 21.1858 72.0948 21.1858C72.2156 21.1858 72.3344 21.205 72.4513 21.2395C72.5663 21.2778 72.6794 21.3296 72.7848 21.3928C72.8941 21.458 72.9957 21.5385 73.0915 21.6324C73.1873 21.7283 73.2774 21.8337 73.3579 21.9506C73.4384 22.0675 73.5093 22.194 73.5707 22.3339C73.6358 22.4719 73.6895 22.6176 73.7374 22.7748C73.7815 22.93 73.8179 23.0929 73.8428 23.2616C73.8658 23.4322 73.8773 23.6047 73.8773 23.7868C73.8773 23.965 73.8658 24.1394 73.8428 24.31Z" fill="black"/>
<path fill-rule="evenodd" clip-rule="evenodd" d="M84.2637 22.9415C84.2158 22.6732 84.1468 22.4183 84.0567 22.1729C83.9686 21.9276 83.8593 21.6957 83.7328 21.4772C83.6063 21.2606 83.4626 21.0574 83.2997 20.8715C83.1368 20.6875 82.9604 20.5227 82.7726 20.3732C82.5809 20.2256 82.3816 20.0991 82.1708 19.9956C81.9599 19.8921 81.7376 19.8097 81.5038 19.756C81.2718 19.6985 81.0342 19.6717 80.7908 19.6717C80.6317 19.6717 80.4669 19.6966 80.302 19.7483C80.1372 19.7982 79.9724 19.871 79.8075 19.9668C79.6408 20.0608 79.4817 20.1758 79.3264 20.3118C79.1712 20.4479 79.0217 20.6013 78.8837 20.7699L78.6134 19.9477H77.243V30.8573H78.8837V26.7576C79.0217 26.9263 79.1712 27.0796 79.3264 27.2157C79.4817 27.3518 79.6408 27.4668 79.8075 27.5626C79.9724 27.6565 80.1372 27.7293 80.302 27.7811C80.4669 27.8309 80.6317 27.8558 80.7908 27.8558C81.0342 27.8558 81.2718 27.829 81.5038 27.7734C81.7376 27.7178 81.9599 27.6373 82.1708 27.5319C82.3816 27.4284 82.5809 27.3019 82.7726 27.1543C82.9604 27.0048 83.1368 26.84 83.2997 26.656C83.4626 26.4701 83.6063 26.2708 83.7328 26.0523C83.8593 25.8338 83.9686 25.6018 84.0567 25.3565C84.1468 25.1093 84.2158 24.8543 84.2637 24.586C84.3136 24.3196 84.3366 24.0455 84.3366 23.7657C84.3366 23.482 84.3136 23.2079 84.2637 22.9415ZM82.5311 24.2832C82.5062 24.4538 82.4717 24.6128 82.4218 24.7662C82.372 24.9195 82.3145 25.0633 82.2436 25.1993C82.1727 25.3335 82.0941 25.4619 82.0078 25.5769C81.9197 25.6938 81.8238 25.7973 81.7184 25.8912C81.6149 25.9832 81.5057 26.0618 81.3926 26.1289C81.2776 26.1941 81.1587 26.242 81.0303 26.2765C80.9038 26.311 80.7735 26.3263 80.6374 26.3263C80.4438 26.3263 80.2579 26.2918 80.0758 26.219C79.8976 26.1462 79.7327 26.0426 79.5813 25.9085C79.4318 25.7743 79.2958 25.6172 79.1769 25.4312C79.0581 25.2472 78.9603 25.0441 78.8837 24.8275V22.7C78.9603 22.4834 79.0581 22.2802 79.1769 22.0962C79.2958 21.9122 79.4318 21.7532 79.5813 21.619C79.7327 21.4867 79.8976 21.3832 80.0758 21.3085C80.2579 21.2357 80.4438 21.2012 80.6374 21.2012C80.7735 21.2012 80.9038 21.2184 81.0303 21.251C81.1587 21.2855 81.2776 21.3334 81.3926 21.4005C81.5057 21.4657 81.6149 21.5442 81.7184 21.6382C81.8238 21.7302 81.9197 21.8337 82.0078 21.9506C82.0941 22.0675 82.1727 22.194 82.2436 22.3301C82.3145 22.4643 82.372 22.6099 82.4218 22.7652C82.4717 22.9204 82.5062 23.0833 82.5311 23.2501C82.556 23.4188 82.5675 23.5893 82.5675 23.7657C82.5675 23.9439 82.556 24.1164 82.5311 24.2832Z" fill="black"/>
<path fill-rule="evenodd" clip-rule="evenodd" d="M92.5303 24.6052C92.4939 24.4365 92.4422 24.2793 92.3732 24.1318C92.3061 23.9823 92.2218 23.8443 92.124 23.7139C92.0243 23.5817 91.9112 23.4648 91.7867 23.3555C91.664 23.2501 91.5298 23.1523 91.3842 23.068C91.2385 22.9837 91.0833 22.9108 90.9203 22.8553C90.7593 22.7958 90.5888 22.7498 90.4067 22.7192C90.2284 22.6866 90.0444 22.6713 89.8604 22.6713H87.8076V19.94H86.1689V27.5875H89.8604C90.0444 27.5875 90.2284 27.5722 90.4067 27.5396C90.5887 27.5089 90.7593 27.4629 90.9203 27.4073C91.0833 27.3479 91.2385 27.277 91.3842 27.1946C91.5298 27.1122 91.664 27.0144 91.7867 26.9071C91.9112 26.7959 92.0243 26.6771 92.124 26.5448C92.2218 26.4164 92.3061 26.2765 92.3732 26.127C92.4422 25.9794 92.4939 25.8223 92.5303 25.6555C92.5668 25.4868 92.5859 25.3105 92.5859 25.1246C92.5859 24.9463 92.5668 24.7738 92.5303 24.6052ZM90.7229 25.5731C90.6693 25.7073 90.5907 25.8242 90.491 25.92C90.3913 26.0158 90.2763 26.0925 90.146 26.1462C90.0138 26.1998 89.8738 26.2267 89.7224 26.2248H87.8076V24.0398H89.7224C89.8738 24.0398 90.0138 24.0647 90.146 24.1164C90.2763 24.1682 90.3913 24.2429 90.491 24.3388C90.5907 24.4365 90.6693 24.5515 90.7229 24.6857C90.7804 24.8198 90.8092 24.9655 90.8092 25.1246C90.8092 25.2913 90.7804 25.4408 90.7229 25.5731Z" fill="black"/>
<path d="M99.0469 22.8477H95.2302V24.4876H99.0469V22.8477Z" fill="black"/>
</svg>
