<svg width="110" height="80" viewBox="0 0 110 80" fill="none" xmlns="http://www.w3.org/2000/svg">
<g clip-path="url(#clip0_10_3)">
<path d="M98.7 6H11.3C7.82061 6 5 8.82061 5 12.3V49.7C5 53.1794 7.82061 56 11.3 56H98.7C102.179 56 105 53.1794 105 49.7V12.3C105 8.82061 102.179 6 98.7 6Z" fill="black"/>
<path d="M98.672 7.429H11.329C8.62282 7.429 6.42902 9.62281 6.42902 12.329V49.672C6.42902 52.3782 8.62282 54.572 11.329 54.572H98.672C101.378 54.572 103.572 52.3782 103.572 49.672V12.329C103.572 9.62281 101.378 7.429 98.672 7.429Z" fill="white"/>
<path d="M25.313 43.188C25.3022 44.0499 25.4613 44.9055 25.7812 45.7059C26.1011 46.5063 26.5755 47.2359 27.1774 47.853C27.7793 48.47 28.4968 48.9624 29.289 49.3022C30.0812 49.6419 30.9326 49.8222 31.7945 49.8328C32.6564 49.8435 33.512 49.6842 34.3123 49.3642C35.1127 49.0441 35.8422 48.5695 36.4591 47.9675C37.076 47.3655 37.5683 46.6479 37.9079 45.8556C38.2474 45.0633 38.4276 44.2119 38.438 43.35C38.4591 41.6097 37.7882 39.9323 36.5727 38.6867C35.3572 37.4411 33.6968 36.7293 31.9565 36.7078C30.2162 36.6863 28.5387 37.357 27.2929 38.5722C26.047 39.7874 25.3348 41.4477 25.313 43.188ZM27.969 43.188C27.969 42.1521 28.3805 41.1586 29.1131 40.426C29.8456 39.6935 30.8391 39.282 31.875 39.282C32.911 39.282 33.9045 39.6935 34.637 40.426C35.3695 41.1586 35.781 42.1521 35.781 43.188C35.781 44.2239 35.3695 45.2174 34.637 45.95C33.9045 46.6825 32.911 47.094 31.875 47.094C30.8391 47.094 29.8456 46.6825 29.1131 45.95C28.3805 45.2174 27.969 44.2239 27.969 43.188ZM69.375 43.188C69.3642 44.0499 69.5233 44.9055 69.8432 45.7059C70.1631 46.5063 70.6375 47.2359 71.2394 47.853C71.8413 48.47 72.5588 48.9624 73.351 49.3022C74.1432 49.6419 74.9946 49.8222 75.8565 49.8328C76.7184 49.8435 77.574 49.6842 78.3743 49.3642C79.1747 49.0441 79.9042 48.5695 80.5211 47.9675C81.138 47.3655 81.6303 46.6479 81.9698 45.8556C82.3094 45.0633 82.4896 44.2119 82.5 43.35C82.5211 41.6097 81.8502 39.9323 80.6347 38.6867C79.4192 37.4411 77.7588 36.7293 76.0185 36.7078C74.2782 36.6863 72.6007 37.357 71.3549 38.5722C70.109 39.7874 69.3968 41.4477 69.375 43.188ZM72.031 43.188C72.031 42.1519 72.4426 41.1583 73.1752 40.4257C73.9078 39.6931 74.9014 39.2815 75.9375 39.2815C76.9736 39.2815 77.9672 39.6931 78.6998 40.4257C79.4324 41.1583 79.844 42.1519 79.844 43.188C79.844 44.2241 79.4324 45.2177 78.6998 45.9503C77.9672 46.6829 76.9736 47.0945 75.9375 47.0945C74.9014 47.0945 73.9078 46.6829 73.1752 45.9503C72.4426 45.2177 72.031 44.2241 72.031 43.188Z" fill="black"/>
<path d="M68.047 43.188C68.0441 41.1854 68.8028 39.2567 70.1693 37.7928C71.5358 36.3289 73.4078 35.4393 75.4058 35.3045C77.4038 35.1697 79.3784 35.7997 80.9291 37.0668C82.4799 38.3338 83.4908 40.1432 83.757 42.128L85.333 41.715C85.7855 41.5937 86.1949 41.3478 86.5144 41.0051C86.8338 40.6624 87.0506 40.2369 87.14 39.777L88.69 31.802C88.7754 31.3635 88.7606 30.9114 88.6469 30.4794C88.5331 30.0473 88.3233 29.6466 88.033 29.307L77.023 16.416C76.7442 16.0899 76.3981 15.828 76.0085 15.6485C75.6189 15.469 75.195 15.376 74.766 15.376H54.219C53.395 15.376 52.609 15.717 52.048 16.319L41.71 27.404C41.2461 27.9014 40.6255 28.2244 39.952 28.319L24.14 30.54C23.4224 30.6412 22.7666 31.0012 22.296 31.5522C21.8254 32.1033 21.5725 32.8074 21.585 33.532L21.683 39.156C21.6943 39.8045 21.9572 40.4233 22.4163 40.8815C22.8753 41.3398 23.4944 41.6017 24.143 41.612C24.5314 39.6939 25.6189 37.9886 27.1942 36.8273C28.7695 35.666 30.7202 35.1316 32.6674 35.3279C34.6146 35.5242 36.4193 36.4372 37.7311 37.8895C39.043 39.3419 39.7682 41.2299 39.766 43.187H68.046L68.047 43.188ZM47.992 28.5C47.6267 28.5 47.2693 28.3933 46.9639 28.193C46.6584 27.9927 46.4181 27.7075 46.2725 27.3725C46.1268 27.0375 46.0822 26.6672 46.1442 26.3072C46.2061 25.9472 46.3718 25.6131 46.621 25.346L53.177 18.315C53.532 17.935 54.029 17.719 54.549 17.719H74.924C76.076 17.719 77.058 18.557 77.238 19.696L78.204 25.79C78.2569 26.1246 78.2366 26.4667 78.1446 26.7927C78.0526 27.1187 77.891 27.4209 77.671 27.6785C77.4509 27.936 77.1777 28.1429 76.8701 28.2847C76.5624 28.4265 76.2277 28.5 75.889 28.5H47.992Z" fill="black"/>
<path d="M39.8992 71.4922C39.8992 72.2461 39.6043 72.873 39.0145 73.373C38.4285 73.873 37.6902 74.123 36.7996 74.123C35.8543 74.123 35.1004 73.8789 34.5379 73.3906C33.9793 72.9023 33.7 72.2773 33.7 71.5156C33.7 71.0312 33.8406 70.5938 34.1219 70.2031C34.4031 69.8086 34.7996 69.4961 35.3113 69.2656V69.2305C34.8426 68.9805 34.4949 68.707 34.2684 68.4102C34.0457 68.1133 33.9344 67.7422 33.9344 67.2969C33.9344 66.6406 34.2039 66.0938 34.743 65.6562C35.282 65.2188 35.9676 65 36.7996 65C37.6707 65 38.366 65.209 38.8856 65.627C39.4051 66.0449 39.6649 66.5762 39.6649 67.2207C39.6649 67.6152 39.5418 68.0039 39.2957 68.3867C39.0496 68.7656 38.6883 69.0625 38.2117 69.2773V69.3125C38.7586 69.5469 39.1766 69.8359 39.4656 70.1797C39.7547 70.5234 39.8992 70.9609 39.8992 71.4922ZM38.5106 67.2324C38.5106 66.8145 38.3484 66.4824 38.0242 66.2363C37.7039 65.9863 37.2938 65.8613 36.7938 65.8613C36.3016 65.8613 35.8973 65.9785 35.5809 66.2129C35.2684 66.4473 35.1121 66.7637 35.1121 67.1621C35.1121 67.4434 35.1902 67.6875 35.3465 67.8945C35.5067 68.0977 35.7469 68.2793 36.0672 68.4395C36.2117 68.5098 36.4188 68.6016 36.6883 68.7148C36.9617 68.8281 37.2274 68.9219 37.4852 68.9961C37.8719 68.7383 38.1395 68.4707 38.2879 68.1934C38.4363 67.916 38.5106 67.5957 38.5106 67.2324ZM38.6922 71.6035C38.6922 71.2441 38.6121 70.957 38.452 70.7422C38.2957 70.5234 37.9871 70.3047 37.5262 70.0859C37.3426 70 37.1414 69.9199 36.9227 69.8457C36.7039 69.7715 36.4129 69.668 36.0496 69.5352C35.6981 69.7266 35.4149 69.9863 35.2 70.3145C34.9891 70.6426 34.8836 71.0137 34.8836 71.4277C34.8836 71.9551 35.0652 72.3906 35.4285 72.7344C35.7918 73.0781 36.2527 73.25 36.8113 73.25C37.3817 73.25 37.8367 73.1035 38.1766 72.8105C38.5203 72.5176 38.6922 72.1152 38.6922 71.6035Z" fill="#8B8B8B"/>
<path d="M43.4969 73.9238H42.0965V72.2539H43.4969V73.9238Z" fill="#8B8B8B"/>
<path d="M52.034 71.4688H50.7391V73.9238H49.6141V71.4688H45.4363V70.1211L49.6609 65.1992H50.7391V70.5312H52.034V71.4688ZM49.6141 70.5312V66.5938L46.2332 70.5312H49.6141Z" fill="#8B8B8B"/>
<path d="M55.4969 73.9238H54.0965V72.2539H55.4969V73.9238Z" fill="#8B8B8B"/>
<path d="M63.0672 69.7227C63.2547 69.8906 63.409 70.1016 63.5301 70.3555C63.6512 70.6094 63.7117 70.9375 63.7117 71.3398C63.7117 71.7383 63.6395 72.1035 63.4949 72.4355C63.3504 72.7676 63.1473 73.0566 62.8856 73.3027C62.5926 73.5762 62.2469 73.7793 61.8484 73.9121C61.4539 74.041 61.0203 74.1055 60.5477 74.1055C60.0633 74.1055 59.5867 74.0469 59.118 73.9297C58.6492 73.8164 58.2645 73.6914 57.9637 73.5547V72.3301H58.0516C58.3836 72.5488 58.7742 72.7305 59.2234 72.875C59.6727 73.0195 60.1063 73.0918 60.5242 73.0918C60.7703 73.0918 61.032 73.0508 61.3094 72.9688C61.5867 72.8867 61.8113 72.7656 61.9832 72.6055C62.1629 72.4336 62.2957 72.2441 62.3817 72.0371C62.4715 71.8301 62.5164 71.5684 62.5164 71.252C62.5164 70.9395 62.4656 70.6816 62.3641 70.4785C62.2664 70.2715 62.1297 70.1094 61.9539 69.9922C61.7781 69.8711 61.5652 69.7891 61.3152 69.7461C61.0652 69.6992 60.7957 69.6758 60.5067 69.6758H59.9793V68.7031H60.3895C60.9832 68.7031 61.4559 68.5801 61.8074 68.334C62.1629 68.084 62.3406 67.7207 62.3406 67.2441C62.3406 67.0332 62.2957 66.8496 62.2059 66.6934C62.116 66.5332 61.991 66.4023 61.8309 66.3008C61.6629 66.1992 61.4832 66.1289 61.2918 66.0898C61.1004 66.0508 60.8836 66.0312 60.6414 66.0312C60.2703 66.0312 59.8758 66.0977 59.4578 66.2305C59.0399 66.3633 58.6453 66.5508 58.2742 66.793H58.2156V65.5684C58.493 65.4316 58.8621 65.3066 59.3231 65.1934C59.7879 65.0762 60.2371 65.0176 60.6707 65.0176C61.0965 65.0176 61.4715 65.0566 61.7957 65.1348C62.1199 65.2129 62.4129 65.3379 62.6746 65.5098C62.9559 65.6973 63.1688 65.9238 63.3133 66.1895C63.4578 66.4551 63.5301 66.7656 63.5301 67.1211C63.5301 67.6055 63.3582 68.0293 63.0145 68.3926C62.6746 68.752 62.2723 68.9785 61.8074 69.0723V69.1543C61.9949 69.1855 62.2098 69.252 62.452 69.3535C62.6942 69.4512 62.8992 69.5742 63.0672 69.7227Z" fill="#8B8B8B"/>
<path d="M67.4969 73.9238H66.0965V72.2539H67.4969V73.9238Z" fill="#8B8B8B"/>
<path d="M75.8348 73.9238H69.9285V72.6992C70.3387 72.3477 70.7488 71.9961 71.159 71.6445C71.5731 71.293 71.9578 70.9434 72.3133 70.5957C73.0633 69.8691 73.577 69.293 73.8543 68.8672C74.1317 68.4375 74.2703 67.9746 74.2703 67.4785C74.2703 67.0254 74.1199 66.6719 73.8192 66.418C73.5223 66.1602 73.1063 66.0312 72.5711 66.0312C72.2156 66.0312 71.8309 66.0938 71.4168 66.2188C71.0027 66.3438 70.5984 66.5352 70.2039 66.793H70.1453V65.5625C70.4227 65.4258 70.7918 65.3008 71.2527 65.1875C71.7176 65.0742 72.1668 65.0176 72.6004 65.0176C73.4949 65.0176 74.1961 65.2344 74.7039 65.668C75.2117 66.0977 75.4656 66.6816 75.4656 67.4199C75.4656 67.752 75.4227 68.0625 75.3367 68.3516C75.2547 68.6367 75.1317 68.9082 74.9676 69.166C74.8152 69.4082 74.6356 69.6465 74.4285 69.8809C74.2254 70.1152 73.9774 70.375 73.6844 70.6602C73.2664 71.0703 72.8348 71.4688 72.3895 71.8555C71.9442 72.2383 71.5281 72.5938 71.1414 72.9219H75.8348V73.9238Z" fill="#8B8B8B"/>
</g>
<defs>
<clipPath id="clip0_10_3">
<rect width="110" height="80" fill="white"/>
</clipPath>
</defs>
</svg>
