<svg width="125" height="61" viewBox="0 0 125 61" fill="none" xmlns="http://www.w3.org/2000/svg">
<path d="M111.375 2H13.625C8.86154 2 5 5.82797 5 10.55V50.45C5 55.172 8.86154 59 13.625 59H111.375C116.138 59 120 55.172 120 50.45V10.55C120 5.82797 116.138 2 111.375 2Z" fill="black"/>
<path d="M111.302 4H13.6983C9.99892 4 7 6.96611 7 10.625V50.375C7 54.0339 9.99892 57 13.6983 57H111.302C115.001 57 118 54.0339 118 50.375V10.625C118 6.96611 115.001 4 111.302 4Z" fill="white"/>
<path fill-rule="evenodd" clip-rule="evenodd" d="M22.7892 28.9963C22.732 27.2138 20.8158 25.69 19.157 26.0348C17.4982 26.4663 16.3542 27.875 16.3828 29.3125C16.3828 31.3538 17.155 32.8488 22.1026 33.7688C40.8928 36.5575 54.4778 35.7238 58.196 31.7563C62.1426 27.7023 62.5716 22.47 59.34 19.25C54.907 15.34 49.616 14.8225 45.1544 16.72C41.751 18.1 38.09 20.2848 36.8888 28.9388H36.3742C34.315 18.5888 25.735 17.6113 23.2754 28.9963H22.7892ZM22.2744 24.54C21.4736 24.08 20.5582 23.8213 19.5574 23.8213C16.5544 23.8213 14.0948 26.2648 14.0948 29.3125C14.0948 32.3313 16.0968 34.8038 22.6462 36.04C41.0932 39.0013 55.965 37.9375 60.055 32.9638C64.3736 27.875 64.8884 21.2913 60.7986 17.5248C55.9365 13.1838 49.7016 12.7236 45.755 14.0461C42.0654 15.455 38.2332 17.87 36.1738 22.5275C32.9422 17.0361 25.3918 17.1513 22.3316 24.5973L22.2744 24.54ZM20.015 38.6563H22.017L19.1856 45.125H17.155L20.015 38.6563ZM28.595 41.5313H30.597L27.7656 48H25.735L28.595 41.5313ZM37.175 38.6563H39.177L36.3456 45.125H34.315L37.175 38.6563ZM45.755 41.5313H47.757L44.9254 48H42.895L45.755 41.5313ZM54.249 38.6563H56.2512L53.4484 45.125H51.389L54.249 38.6563Z" fill="black"/>
<path fill-rule="evenodd" clip-rule="evenodd" d="M88.2389 12.6663H90.7778V16.835L95.088 12.6663L97.007 14.5063L90.7778 20.3713V28.68L98.129 24.5113L100.373 16.375L102.912 16.9788L101.317 22.6711L104.978 20.6588L106.425 22.815L102.587 24.8273L108.491 26.3513L107.871 28.8237L99.3983 26.6675L92.0473 30.8362L99.3983 34.8325L107.871 32.6763L108.491 35.1487L102.587 36.6725L106.425 38.685L104.978 40.8412L101.317 38.8287L102.912 44.5213L100.373 45.125L98.129 36.9888L90.7778 32.9925V41.1287L97.007 46.9937L95.088 48.8338L90.7778 44.665V48.8338H88.2389V44.665L83.9285 48.8338L82.0095 46.9937L88.2389 41.1287V32.9925L80.8877 36.9888L78.644 45.125L76.105 44.5213L77.6992 38.8287L74.0384 40.8412L72.5919 38.685L76.4297 36.6725L70.5252 35.1487L71.1453 32.6763L79.6182 34.8325L86.9694 30.8362L79.6182 26.6675L71.1453 28.8237L70.5252 26.3513L76.4297 24.8273L72.5919 22.815L74.0384 20.6588L77.6992 22.6711L76.105 16.9788L78.644 16.375L80.8877 24.5113L88.2389 28.68V20.3713L82.0095 14.5063L83.9285 12.6663L88.2389 16.835V12.6663Z" fill="black"/>
</svg>
