<svg width="90" height="124" viewBox="0 0 90 124" fill="none" xmlns="http://www.w3.org/2000/svg">
<path d="M79 2H11C7.68629 2 5 4.68629 5 8V116C5 119.314 7.68629 122 11 122H79C82.3137 122 85 119.314 85 116V8C85 4.68629 82.3137 2 79 2Z" fill="white"/>
<path d="M73.4154 19.3459H15.5846C14.1572 19.3459 13 20.5031 13 21.9305V79.7613C13 81.1887 14.1572 82.3459 15.5846 82.3459H73.4154C74.8428 82.3459 76 81.1887 76 79.7613V21.9305C76 20.5031 74.8428 19.3459 73.4154 19.3459Z" fill="#0D69E1"/>
<path fill-rule="evenodd" clip-rule="evenodd" d="M66.7497 47.8038C66.614 46.8165 66.4214 45.864 66.1617 44.9543C65.9071 44.0445 65.5944 43.1812 65.2312 42.3761C64.8616 41.5645 64.4507 40.8163 63.9984 40.1288C63.5409 39.4426 63.0421 38.83 62.5006 38.2834C61.9656 37.738 61.3931 37.2702 60.7896 36.8851C60.1873 36.5 59.5528 36.204 58.8924 36.0012C58.2321 35.7931 57.5562 35.6884 56.8597 35.6884C56.1528 35.6884 55.4704 35.7931 54.8113 36.0012C54.1497 36.204 53.5165 36.5 52.9129 36.8851C52.3094 37.2702 51.7382 37.738 51.1968 38.2834C50.6617 38.83 50.1616 39.4426 49.7041 40.1288C49.2518 40.8163 48.8409 41.5645 48.4726 42.3761C48.1081 43.1812 47.7967 44.0445 47.5421 44.9543C47.2811 45.864 47.0898 46.8165 46.9541 47.8038C46.8184 48.7924 46.7512 49.8056 46.7512 50.8459C46.7512 51.9017 46.8184 52.9201 46.9541 53.9087C47.0898 54.896 47.2811 55.8433 47.5421 56.7479C47.7967 57.6577 48.1081 58.5106 48.4726 59.3208C48.8409 60.1324 49.2518 60.8755 49.7041 61.5617C50.1616 62.2544 50.6617 62.8669 51.1968 63.4136C51.7382 63.9589 52.3094 64.4216 52.9129 64.8119C53.5165 65.197 54.1497 65.4877 54.8113 65.6958C55.4704 65.8987 56.1528 66.0034 56.8597 66.0034C57.5562 66.0034 58.2321 65.8987 58.8924 65.6958C59.5528 65.4877 60.1873 65.197 60.7896 64.8119C61.3931 64.4216 61.9656 63.9589 62.5006 63.4136C63.0421 62.8669 63.5409 62.2544 63.9984 61.5617C64.4507 60.8755 64.8616 60.1324 65.2312 59.3208C65.5944 58.5106 65.9071 57.6577 66.1617 56.7479C66.4214 55.8433 66.614 54.896 66.7497 53.9087C66.8841 52.9201 66.9513 51.9017 66.9513 50.8459C66.9513 49.8056 66.8841 48.7924 66.7497 47.8038ZM61.7988 52.889C61.7316 53.5442 61.6321 54.1736 61.5029 54.7771C61.3724 55.3793 61.2212 55.9518 61.0403 56.4868C60.858 57.0283 60.6552 57.5271 60.4213 57.9898C60.1925 58.4524 59.9431 58.8685 59.6717 59.233C59.4016 59.6026 59.116 59.9088 58.8149 60.1583C58.5125 60.4077 58.2011 60.6054 57.8728 60.7463C57.5459 60.8858 57.2073 60.9595 56.8597 60.9595C56.5004 60.9595 56.1579 60.8858 55.8297 60.7463C55.5027 60.6054 55.19 60.4077 54.8889 60.1583C54.5865 59.9088 54.3009 59.6026 54.0308 59.233C53.7607 58.8685 53.5113 58.4524 53.2774 57.9898C53.0473 57.5271 52.8406 57.0283 52.6635 56.4868C52.4813 55.9518 52.3301 55.3793 52.2009 54.7771C52.0704 54.1736 51.9721 53.5442 51.9037 52.889C51.8313 52.2338 51.7951 51.5528 51.7951 50.8459C51.7951 50.1545 51.8313 49.4786 51.9037 48.8183C51.9721 48.1527 52.0704 47.5234 52.2009 46.9199C52.3301 46.3164 52.4813 45.7452 52.6635 45.2037C52.8406 44.6635 53.0473 44.1698 53.2774 43.7124C53.5113 43.2549 53.7607 42.8439 54.0308 42.4795C54.3009 42.1151 54.5865 41.8036 54.8889 41.5439C55.19 41.2893 55.5027 41.0916 55.8297 40.9559C56.1579 40.8202 56.5004 40.753 56.8597 40.753C57.2073 40.753 57.5459 40.8202 57.8728 40.9559C58.2011 41.0916 58.5125 41.2893 58.8149 41.5439C59.116 41.8036 59.4016 42.1151 59.6717 42.4795C59.9431 42.8439 60.1925 43.2549 60.4213 43.7124C60.6552 44.1698 60.858 44.6635 61.0403 45.2037C61.2212 45.7452 61.3724 46.3164 61.5029 46.9199C61.6321 47.5234 61.7316 48.1527 61.7988 48.8183C61.8712 49.4786 61.9087 50.1545 61.9087 50.8459C61.9087 51.5528 61.8712 52.2338 61.7988 52.889Z" fill="white"/>
<path fill-rule="evenodd" clip-rule="evenodd" d="M40.8234 55.1829V36.4018H35.7808L22.0475 55.1829V59.5134H35.7808V65.29H40.8234V59.5134H43.0023L44.4483 55.1829H40.8234ZM35.7808 55.1829H27.112L35.7808 43.6232V55.1829Z" fill="white"/>
<path fill-rule="evenodd" clip-rule="evenodd" d="M73.5782 101.369V104.137H15.4218V101.369H23.478C28.7649 100.109 30.5276 92.5564 44.6267 92.5564C58.2204 92.5564 60.4871 100.361 65.522 101.369H73.5782Z" fill="black"/>
<path d="M79 2.13333H11C7.75993 2.13333 5.13333 4.75993 5.13333 8V116C5.13333 119.24 7.75993 121.867 11 121.867H79C82.2401 121.867 84.8667 119.24 84.8667 116V8C84.8667 4.75993 82.2401 2.13333 79 2.13333Z" stroke="black" stroke-width="0.266667" stroke-miterlimit="10"/>
<path fill-rule="evenodd" clip-rule="evenodd" d="M7.66666 7.99999C7.66666 6.15892 9.15892 4.66666 11 4.66666H79C80.8409 4.66666 82.3333 6.15892 82.3333 7.99999V116C82.3333 117.841 80.8409 119.333 79 119.333H11C9.15892 119.333 7.66666 117.841 7.66666 116V7.99999ZM8.99999 7.99999C8.99999 6.89532 9.89532 5.99999 11 5.99999H79C80.1045 5.99999 81 6.89532 81 7.99999V116C81 117.105 80.1045 118 79 118H11C9.89532 118 8.99999 117.105 8.99999 116V7.99999Z" fill="black"/>
</svg>
