<?xml version="1.0" encoding="UTF-8"?><svg id="_Слой_1" xmlns="http://www.w3.org/2000/svg" width="173" height="107" viewBox="0 0 173 107"><defs><style>.cls-1,.cls-2{fill:none;}.cls-3{fill:#fff;}.cls-4{fill:#8b8b8b;}.cls-5{fill:#0d69e1;}.cls-2{stroke:#000;}</style></defs><path class="cls-1" d="M0,0H173V107H0V0Z"/><path class="cls-2" d="M6.6,5.6H77.4c2.2,0,4,1.8,4,4h0V80.4c0,2.2-1.8,4-4,4H6.6c-2.2,0-4-1.8-4-4V9.6c0-2.2,1.8-4,4-4Z"/><path class="cls-5" d="M5,79.2c0,1.5,1.3,2.8,2.8,2.8H76.2c1.5,0,2.8-1.3,2.8-2.8h0V10.8c0-1.5-1.3-2.8-2.8-2.8H7.8c-1.5,0-2.8,1.3-2.8,2.8h0V79.2Z"/><path class="cls-3" d="M59.1,21.4c3.5,3.3,5.3,7.7,5.3,13s-1.8,9.7-5.3,13-8.1,5-13.7,5h-13.5v23.3h-9V16.4h22.5c5.6,0,10.2,1.7,13.7,5Zm-6.6,20.3c1.9-1.8,2.9-4.2,2.9-7.3s-.9-5.5-2.8-7.3c-1.9-1.8-4.5-2.7-7.8-2.7h-12.9v19.8h12.9c3.2,.1,5.8-.7,7.7-2.5Z"/><path class="cls-2" d="M95.6,5.6h70.8c2.2,0,4,1.8,4,4h0V80.4c0,2.2-1.8,4-4,4H95.6c-2.2,0-4-1.8-4-4V9.6c0-2.2,1.8-4,4-4Z"/><path class="cls-5" d="M94,79.2c0,1.5,1.3,2.8,2.8,2.8h68.4c1.5,0,2.8-1.3,2.8-2.8h0V10.8c0-1.5-1.3-2.8-2.8-2.8H96.8c-1.5,0-2.8,1.3-2.8,2.8h0V79.2Z"/><path class="cls-3" d="M148.1,21.4c3.5,3.3,5.3,7.7,5.3,13s-1.8,9.7-5.3,13-8.1,5-13.7,5h-13.5v23.3h-9V16.4h22.5c5.6,0,10.2,1.7,13.7,5Zm-6.6,20.3c1.9-1.8,2.9-4.2,2.9-7.3s-.9-5.5-2.8-7.3c-1.9-1.8-4.5-2.7-7.8-2.7h-12.9v19.8h12.9c3.2,.1,5.8-.7,7.7-2.5Z"/><circle class="cls-3" cx="43.1" cy="67.6" r="5"/><circle class="cls-3" cx="52.8" cy="67.6" r="6.7"/><circle class="cls-3" cx="65.8" cy="67.6" r="8"/><g><path class="cls-3" d="M148.7,59.2c1,0,1.8-.8,1.8-1.8s-.8-1.8-1.8-1.8-1.8,.8-1.8,1.8c0,.9,.8,1.8,1.8,1.8Z"/><path class="cls-3" d="M157.5,72.6c.3,.5,.9,.7,1.4,.4,.5-.3,.6-.9,.4-1.4l-3.1-5.3c-.2-.3-.5-.5-.9-.5h-4.5v-1.4h3.3c.4,0,.8-.4,.8-.8,0-.5-.4-.8-.8-.8h-3.4l-.1-1.5c-.1-.9-.9-1.7-1.8-1.6-1,.1-1.7,.9-1.6,1.8l.3,5.5c.1,1,.9,1.6,1.8,1.6h5.9l2.3,4Z"/><path class="cls-3" d="M149.9,74.7c-3,0-5.4-2.4-5.4-5.4,0-1.6,.7-3.1,1.9-4.1l-.1-1.7c-1.9,1.2-3.2,3.3-3.2,5.7,0,3.7,3,6.8,6.8,6.8,2.8,0,5.1-1.7,6.2-4l-1-1.7c-.5,2.5-2.6,4.4-5.2,4.4Z"/></g><g><path class="cls-4" d="M84.28,99.35c0,.45-.07,.86-.22,1.24s-.35,.7-.6,.95c-.26,.27-.55,.47-.88,.61s-.68,.21-1.07,.21-.75-.07-1.08-.2-.61-.33-.85-.59c-.3-.32-.54-.74-.71-1.27s-.25-1.18-.25-1.95,.08-1.44,.23-2.05,.4-1.14,.72-1.6c.32-.44,.72-.79,1.22-1.03s1.08-.37,1.73-.37c.2,0,.38,0,.54,.03s.32,.05,.45,.09v1.12h-.05c-.11-.06-.26-.11-.46-.16s-.41-.07-.64-.07c-.73,0-1.31,.25-1.76,.74s-.71,1.22-.79,2.18c.28-.2,.56-.35,.86-.45s.61-.16,.96-.16,.64,.03,.89,.1,.52,.21,.8,.41c.32,.24,.56,.55,.71,.92s.23,.81,.23,1.31Zm-1.19,.05c0-.36-.05-.66-.14-.9s-.25-.45-.46-.62c-.15-.12-.33-.21-.52-.25s-.39-.06-.59-.06c-.27,0-.54,.04-.8,.12s-.51,.2-.76,.36c0,.09-.01,.17-.02,.25s0,.18,0,.3c0,.61,.06,1.09,.18,1.46s.27,.65,.44,.84c.17,.18,.34,.31,.52,.39s.37,.11,.58,.11c.47,0,.85-.17,1.14-.5s.44-.84,.44-1.51Z"/><path class="cls-4" d="M87.19,102.18h-1.4v-1.67h1.4v1.67Z"/><path class="cls-4" d="M94.56,99.18h-1.04v3h-1.12v-3h-3.86v-1.23l3.9-4.49h1.08v4.79h1.04v.94Zm-2.16-.94v-3.41l-2.94,3.41h2.94Z"/></g><g><path d="M42.03,69.38h-.69v-2.59c-.25,.23-.55,.41-.89,.52v-.62c.18-.06,.37-.17,.58-.33,.21-.16,.35-.35,.43-.57h.56v3.59Z"/><path d="M44.21,65.79c.35,0,.62,.12,.81,.37,.23,.29,.35,.78,.35,1.46s-.12,1.16-.35,1.46c-.19,.24-.46,.37-.81,.37s-.63-.13-.84-.4-.32-.75-.32-1.43,.12-1.16,.35-1.46c.19-.24,.46-.37,.81-.37Zm0,.57c-.08,0-.16,.03-.22,.08s-.12,.15-.15,.28c-.05,.18-.07,.48-.07,.9s.02,.71,.06,.87,.1,.26,.16,.31c.06,.05,.14,.08,.22,.08s.16-.03,.22-.08,.12-.15,.15-.28c.05-.18,.07-.47,.07-.89s-.02-.71-.06-.87-.1-.26-.16-.31c-.06-.05-.14-.08-.22-.08Z"/></g><g><path d="M51.2,70.72h-1.1v-4.14c-.4,.38-.87,.65-1.42,.83v-1c.29-.09,.6-.27,.93-.53s.57-.57,.69-.92h.89v5.75Z"/><path d="M52.86,69.25l1.09-.11c.03,.25,.12,.44,.28,.59s.33,.22,.53,.22c.23,0,.42-.09,.58-.28s.24-.47,.24-.84c0-.35-.08-.62-.24-.79s-.36-.26-.62-.26c-.31,0-.6,.14-.85,.42l-.89-.13,.56-2.98h2.9v1.03h-2.07l-.17,.97c.24-.12,.49-.18,.75-.18,.49,0,.9,.18,1.24,.53s.51,.81,.51,1.38c0,.47-.14,.89-.41,1.26-.37,.5-.89,.76-1.55,.76-.53,0-.96-.14-1.29-.43s-.53-.67-.6-1.14Z"/></g><g><path d="M65.61,69.71v1.27h-4.81c.05-.48,.21-.94,.47-1.37,.26-.43,.77-1,1.54-1.72,.62-.58,1-.97,1.14-1.17,.19-.28,.28-.56,.28-.84,0-.31-.08-.54-.25-.71-.16-.17-.39-.25-.68-.25s-.51,.09-.68,.26-.27,.46-.29,.86l-1.37-.14c.08-.75,.34-1.3,.77-1.63s.97-.49,1.61-.49c.71,0,1.26,.19,1.67,.57s.61,.85,.61,1.42c0,.32-.06,.63-.17,.92-.12,.29-.3,.6-.55,.92-.17,.21-.47,.52-.9,.91s-.71,.66-.82,.79-.21,.26-.28,.38h2.72Z"/><path d="M68.86,63.8c.69,0,1.24,.25,1.63,.74,.47,.59,.7,1.56,.7,2.92s-.23,2.33-.7,2.92c-.39,.49-.93,.73-1.62,.73s-1.26-.27-1.68-.8c-.43-.54-.64-1.49-.64-2.86s.23-2.32,.7-2.91c.39-.49,.93-.73,1.62-.73Zm0,1.14c-.17,0-.31,.05-.44,.16-.13,.11-.23,.29-.3,.57-.09,.35-.14,.95-.14,1.79s.04,1.42,.13,1.73c.08,.31,.19,.52,.32,.63s.28,.16,.44,.16,.31-.05,.44-.16c.13-.11,.23-.3,.3-.57,.09-.35,.14-.95,.14-1.79s-.04-1.42-.13-1.73c-.08-.31-.19-.52-.32-.63-.13-.11-.28-.16-.44-.16Z"/></g></svg>