<svg width="100" height="86" viewBox="0 0 100 86" fill="none" xmlns="http://www.w3.org/2000/svg">
<path d="M84 3H16C12.6863 3 10 5.68629 10 9V77C10 80.3137 12.6863 83 16 83H84C87.3137 83 90 80.3137 90 77V9C90 5.68629 87.3137 3 84 3Z" fill="white"/>
<path d="M84 3.13333H16C12.7599 3.13333 10.1333 5.75993 10.1333 9V77C10.1333 80.2401 12.7599 82.8667 16 82.8667H84C87.2401 82.8667 89.8667 80.2401 89.8667 77V9C89.8667 5.75993 87.2401 3.13333 84 3.13333Z" stroke="black"/>
<path d="M84 5.66666H16C14.1591 5.66666 12.6667 7.15904 12.6667 8.99999V77C12.6667 78.8409 14.1591 80.3333 16 80.3333H84C85.841 80.3333 87.3333 78.8409 87.3333 77V8.99999C87.3333 7.15904 85.841 5.66666 84 5.66666Z" fill="#0D69E1"/>
<path fill-rule="evenodd" clip-rule="evenodd" d="M50 13.6667H28.6667V72.3334H36.6667V51H50C60.32 51 68.6667 42.6534 68.6667 32.3334C68.6667 22.0134 60.32 13.6667 50 13.6667ZM50 43.0267L36.6667 43V21.6667H50C55.92 21.64 60.6933 26.4134 60.6933 32.3334C60.6933 38.2534 55.92 43.0267 50 43.0267Z" fill="white"/>
<path fill-rule="evenodd" clip-rule="evenodd" d="M40.6667 72.3333V70.3333H71.3333V68.3333H82V72.3333H40.6667Z" fill="white"/>
<path fill-rule="evenodd" clip-rule="evenodd" d="M66.4655 65.2637C67.4541 65.2637 68.2593 66.0547 68.2593 67.0576C68.2593 68.0463 67.4541 68.8515 66.4655 68.8515C65.4625 68.8515 64.6716 68.0463 64.6716 67.0576C64.6716 66.0547 65.4625 65.2637 66.4655 65.2637ZM66.4655 64.0772C68.104 64.0772 69.4317 65.4049 69.4317 67.0576C69.4317 68.696 68.104 70.0239 66.4655 70.0239C64.8128 70.0239 63.4851 68.696 63.4851 67.0576C63.4851 65.4049 64.8128 64.0772 66.4655 64.0772ZM46.4644 63.9641C48.1029 63.9641 49.4307 65.306 49.4307 66.9445C49.4307 68.5972 48.1029 69.9249 46.4644 69.9249C44.8119 69.9249 43.484 68.5972 43.484 66.9445C43.484 65.306 44.8119 63.9641 46.4644 63.9641ZM46.4644 65.1507C47.4532 65.1507 48.2583 65.9559 48.2583 66.9445C48.2583 67.9332 47.4532 68.7384 46.4644 68.7384C45.4616 68.7384 44.6705 67.9333 44.6705 66.9445C44.6705 65.9557 45.4616 65.1507 46.4644 65.1507ZM62.8919 67.0576C62.8919 65.08 64.488 63.484 66.4655 63.484C68.1745 63.484 69.6153 64.6987 69.9543 66.3089C70.6747 66.1112 71.0984 65.7863 71.0984 65.2072V62.3399C71.0984 61.69 70.59 61.3793 69.6153 61.224L62.2139 60.094L57.3124 54.8819C56.9593 54.5145 56.6061 54.3875 55.9 54.3875H46.8317C46.5068 54.3875 46.1396 54.6135 45.7864 54.9948L41.1252 60.4188C40.6732 60.9132 40.5743 61.3087 40.6873 61.916L41.3795 65.3343C41.4641 65.8004 41.8597 66.1677 42.9191 66.5067C43.1309 64.7411 44.6281 63.3709 46.4644 63.3709C48.4279 63.3709 50.024 64.9812 50.024 66.9445L62.8919 67.0576ZM58.7249 60.2493C59.4877 60.2493 60.4764 59.656 59.8973 59.1052L56.8745 55.8564C56.6344 55.6021 56.3379 55.4327 55.9 55.4327H47.4249C46.6904 55.4327 46.182 55.588 46.0124 56.2237L45.4051 58.6249C45.2356 59.5148 45.6028 60.2493 46.3232 60.2493H58.7249Z" fill="white"/>
</svg>
