<svg width="100" height="86" viewBox="0 0 100 86" fill="none" xmlns="http://www.w3.org/2000/svg">
<path d="M84 3H16C12.6863 3 10 5.68629 10 9V77C10 80.3137 12.6863 83 16 83H84C87.3137 83 90 80.3137 90 77V9C90 5.68629 87.3137 3 84 3Z" fill="white"/>
<path d="M84 3.13333H16C12.7599 3.13333 10.1333 5.75993 10.1333 9V77C10.1333 80.2401 12.7599 82.8667 16 82.8667H84C87.2401 82.8667 89.8667 80.2401 89.8667 77V9C89.8667 5.75993 87.2401 3.13333 84 3.13333Z" stroke="black"/>
<path d="M84 5.66666H16C14.1591 5.66666 12.6667 7.15904 12.6667 8.99999V77C12.6667 78.8409 14.1591 80.3333 16 80.3333H84C85.841 80.3333 87.3333 78.8409 87.3333 77V8.99999C87.3333 7.15904 85.841 5.66666 84 5.66666Z" fill="#0D69E1"/>
<path fill-rule="evenodd" clip-rule="evenodd" d="M50 13.6667H28.6667V72.3334H36.6667V51H50C60.32 51 68.6667 42.6534 68.6667 32.3334C68.6667 22.0134 60.32 13.6667 50 13.6667ZM50 43.0267L36.6667 43V21.6667H50C55.92 21.64 60.6933 26.4134 60.6933 32.3334C60.6933 38.2534 55.92 43.0267 50 43.0267Z" fill="white"/>
<path fill-rule="evenodd" clip-rule="evenodd" d="M40.6667 72.3333V70.3333H63.3333V68.3333H82V72.3333H40.6667Z" fill="white"/>
<path fill-rule="evenodd" clip-rule="evenodd" d="M72.8203 63.2229C73.8036 63.1196 74.6871 63.8221 74.7919 64.8195C74.8952 65.8028 74.1787 66.6877 73.1953 66.7911C72.1979 66.8959 71.3271 66.1779 71.2237 65.1945C71.1189 64.1971 71.8229 63.3277 72.8203 63.2229ZM72.6963 62.0429C74.3257 61.8717 75.7851 63.0533 75.9577 64.6969C76.1291 66.3264 74.9473 67.7857 73.3179 67.9569C71.6743 68.1297 70.2151 66.948 70.0437 65.3185C69.8709 63.6749 71.0527 62.2157 72.6963 62.0429ZM52.7931 64.0212C54.4225 63.85 55.8833 65.0457 56.0545 66.6752C56.2273 68.3188 55.0456 69.778 53.4161 69.9493C51.7725 70.1221 50.3132 68.9404 50.1405 67.2968C49.9692 65.6673 51.1495 64.194 52.7931 64.0212ZM52.9171 65.2012C53.9004 65.0979 54.7852 65.8144 54.8885 66.7977C54.992 67.7811 54.2753 68.666 53.292 68.7693C52.2947 68.8741 51.4239 68.1561 51.3205 67.1728C51.2172 66.1895 51.9196 65.306 52.9171 65.2012ZM69.4537 65.3805C69.2471 63.4139 70.6676 61.6596 72.6343 61.4529C74.334 61.2743 75.8939 62.3317 76.3993 63.8977C77.0951 63.6259 77.4825 63.2584 77.422 62.6825L77.1223 59.8308C77.0544 59.1847 76.5161 58.9287 75.5307 58.8761L68.0516 58.5259L62.6323 53.8547C62.2427 53.5264 61.8781 53.4368 61.1757 53.5107L52.1572 54.4585C51.8341 54.4925 51.4925 54.7557 51.1812 55.1719L47.1124 61.0533C46.7145 61.5923 46.6576 61.996 46.8335 62.5883L47.8791 65.9153C48.0121 66.3701 48.4439 66.694 49.5328 66.9204C49.5589 65.1423 50.9048 63.6232 52.7309 63.4312C54.6836 63.226 56.4393 64.6605 56.6445 66.6132L69.4537 65.3805ZM64.598 59.0452C65.3567 58.9655 66.2779 58.272 65.6444 57.7848L62.2987 54.8697C62.0332 54.642 61.7205 54.5044 61.2851 54.5501L52.8564 55.4361C52.126 55.5128 51.6365 55.7205 51.5344 56.3704L51.1813 58.822C51.1057 59.7247 51.5477 60.4168 52.2643 60.3415L64.598 59.0452Z" fill="white"/>
</svg>
