<?xml version="1.0" encoding="UTF-8"?>
<svg id="_Слой_1" data-name=" Слой 1" xmlns="http://www.w3.org/2000/svg" width="116" height="159" viewBox="0 0 116 159">
  <defs>
    <style>
      .cls-1, .cls-2 {
        fill: none;
      }

      .cls-3, .cls-4 {
        fill: #fff;
      }

      .cls-5 {
        fill: #8b8b8b;
      }

      .cls-6 {
        fill: #609c58;
      }

      .cls-2 {
        stroke-miterlimit: 10;
      }

      .cls-2, .cls-4 {
        stroke: #000;
        stroke-width: .99px;
      }
    </style>
  </defs>
  <path class="cls-4" d="m10.88,3.55h94.88c2.19,0,3.95,1.79,3.95,3.99v128.93c0,2.21-1.77,3.99-3.95,3.99H10.88c-2.19,0-3.95-1.79-3.95-3.99V7.54c0-2.21,1.77-3.99,3.95-3.99Z"/>
  <g>
    <path class="cls-5" d="m52.87,153.15c0,.42-.06.81-.2,1.17s-.32.67-.56.93c-.24.27-.55.47-.91.64s-.76.23-1.21.23c-.42,0-.82-.05-1.22-.14-.4-.09-.75-.22-1.03-.36v-1.23h.08c.09.08.22.14.38.23.17.08.34.17.55.24.23.08.43.15.62.19s.4.08.64.08.46-.04.68-.13.41-.22.56-.41c.14-.17.25-.37.33-.6s.11-.5.11-.81-.04-.56-.11-.76-.2-.36-.36-.5c-.17-.15-.37-.25-.61-.31s-.51-.09-.8-.09-.62.03-.94.08-.56.09-.75.14v-4.49h4.74v1.03h-3.61v2.32c.14-.03.28-.03.41-.04s.25,0,.37,0c.43,0,.82.04,1.11.11.31.08.6.22.88.43.29.22.51.5.66.81s.23.76.23,1.28h0v-.03s-.03-.03-.03-.03Z"/>
    <path class="cls-5" d="m55.98,155.92h-1.38v-1.67h1.38v1.67Z"/>
    <path class="cls-5" d="m60.03,148.02c-.2,0-.42.03-.62.08s-.42.11-.61.2c-.19.08-.34.17-.48.25s-.25.17-.37.24h-.06v-1.23c.25-.14.59-.25,1.02-.37s.84-.17,1.24-.17.73.04,1.02.11.56.2.79.37c.25.19.45.41.57.67s.19.59.19.93c0,.48-.15.9-.47,1.27-.31.36-.69.59-1.12.69v.08c.18.04.38.1.57.18s.4.22.57.38.32.38.43.65c.11.25.17.59.17.95s-.06.76-.2,1.09-.32.62-.56.88c-.25.27-.56.47-.91.6s-.75.22-1.21.22-.87-.05-1.29-.17c-.43-.11-.79-.23-1.07-.38v-1.23h.08c.24.18.56.36.97.52.41.17.82.25,1.22.25.24,0,.47-.04.7-.11s.43-.2.6-.37c.15-.17.27-.36.34-.57s.11-.47.11-.79-.05-.59-.14-.78-.22-.36-.38-.48-.36-.2-.57-.24-.46-.08-.71-.08h-.48v-.97h.38c.52,0,.94-.11,1.27-.38s.48-.61.48-1.09c0-.22-.04-.41-.13-.57s-.19-.28-.33-.38c-.15-.1-.31-.17-.48-.22-.18-.04-.37-.06-.56-.06h.03v.03h.01Z"/>
    <path class="cls-5" d="m69.59,148.51l-3.73,7.42h-1.24l3.95-7.7h-4.46v-1.03h5.47v1.31h.01Z"/>
  </g>
  <path class="cls-1" d="m-.01,0h116v159H-.01V0Z"/>
  <path class="cls-2" d="m11.11,5.62h94.51c1.11,0,2.01.9,2.01,2.01v128.76c0,1.11-.91,2.01-2.01,2.01H11.11c-1.11,0-2.01-.9-2.01-2.01V7.63c0-1.11.91-2.01,2.01-2.01h0Z"/>
  <g>
    <path d="m42.63,16.96c0-.57-.22-1.03-.65-1.37s-1.02-.51-1.75-.51c-.62,0-1.16.17-1.58.51s-.64.78-.64,1.31h-2.19c0-.7.19-1.32.57-1.86s.92-.97,1.59-1.27,1.43-.45,2.24-.45c1.45,0,2.57.32,3.38.95s1.2,1.53,1.2,2.68c0,.59-.17,1.11-.52,1.6s-.84.86-1.47,1.14c.7.25,1.25.62,1.62,1.12.37.5.56,1.12.56,1.87,0,1.14-.43,2.06-1.3,2.73s-2.03,1.02-3.47,1.02c-.89,0-1.7-.17-2.42-.48s-1.26-.76-1.62-1.32-.55-1.2-.55-1.92h2.19c0,.55.23,1.02.68,1.39.45.38,1.02.57,1.72.57.78,0,1.4-.18,1.87-.55s.7-.85.7-1.44c0-.73-.2-1.23-.61-1.56s-1.02-.5-1.82-.5h-1.48v-1.76h1.4c1.56,0,2.33-.64,2.33-1.91v-.03h0Z"/>
    <path d="m57.16,20.2c0,1.25-.22,2.35-.65,3.29-.43.95-1.05,1.67-1.84,2.18s-1.71.76-2.74.76-1.94-.25-2.74-.76-1.43-1.23-1.86-2.18-.66-2.02-.66-3.24v-.73c0-1.25.22-2.35.66-3.29s1.06-1.69,1.85-2.19,1.71-.76,2.74-.76,1.94.25,2.74.75,1.41,1.22,1.85,2.16.66,2.04.66,3.28v.71h-.01Zm-2.19-.67c0-1.42-.27-2.49-.79-3.26s-1.29-1.13-2.26-1.13-1.7.38-2.23,1.13-.8,1.82-.83,3.19v.74c0,1.41.27,2.49.82,3.26.54.78,1.29,1.14,2.26,1.14s1.72-.38,2.24-1.12.79-1.84.79-3.29v-.67h0Z"/>
    <path d="m69.37,26.25h-2.19v-5.67h-5.65v5.67h-2.19v-12.8h2.19v5.33h5.65v-5.33h2.19v12.8Z"/>
    <path d="m79.21,23.28h-4.89l-1.02,2.98h-2.29l4.78-12.8h1.98l4.78,12.8h-2.29l-1.03-2.98h0Zm-4.28-1.79h3.66l-1.84-5.3-1.84,5.3h.01Z"/>
  </g>
  <ellipse class="cls-6" cx="58.42" cy="56.65" rx="31.46" ry="15.48"/>
  <ellipse class="cls-3" cx="58.44" cy="56.71" rx="26.09" ry="12.15"/>
  <path d="m54.4,56.76l.85-8.05h8.49v2.3h-6.28l-.43,3.82c.73-.42,1.56-.64,2.47-.64,1.5,0,2.68.5,3.52,1.46.84.97,1.25,2.28,1.25,3.93s-.46,2.91-1.39,3.88c-.93.95-2.19,1.44-3.81,1.44-1.44,0-2.65-.42-3.59-1.25-.96-.83-1.47-1.93-1.54-3.29h2.55c.1.78.38,1.37.83,1.78s1.03.62,1.76.62c.8,0,1.44-.29,1.89-.88s.68-1.37.68-2.39-.25-1.74-.75-2.32-1.19-.85-2.07-.85c-.47,0-.88.06-1.21.19s-.7.38-1.08.75l-2.1-.53-.03.03h.01Z"/>
  <path d="m33.02,95.93c-1.13,0-2.19.56-2.83,1.5l-5.34,7.9c-.38.56-.59,1.22-.59,1.9v8.2c0,1.88,1.52,3.4,3.4,3.4h3.07c.18-3.78,3.3-6.79,7.14-6.79s6.96,3.01,7.14,6.79h26.58c.13-2.65,1.7-5,4.1-6.12h-29.64v-13.38c0-1.88-1.52-3.4-3.4-3.4h-9.64Zm.18,2.04h7.76c.93,0,1.7.76,1.7,1.7v4.76c0,.94-.75,1.7-1.7,1.7h-10.98c-.93,0-1.7-.76-1.7-1.69h0c0-.34.1-.67.29-.95l3.21-4.76c.32-.47.84-.75,1.41-.75h-.01,0Z"/>
  <path d="m51.5,89.73c-1.87,0-3.39,1.5-3.4,3.38v18.34h44.26v-18.32c0-1.88-1.52-3.4-3.4-3.4h-37.46.01Zm27.24,23.67c-3.2,0-5.79,2.58-5.79,5.77s2.59,5.77,5.79,5.77,5.79-2.58,5.79-5.77-2.59-5.77-5.79-5.77Zm0,2.72c1.7,0,3.06,1.37,3.06,3.05s-1.38,3.05-3.06,3.05-3.06-1.36-3.06-3.05h0c0-1.7,1.38-3.05,3.06-3.05h0Z"/>
  <path d="m85.87,118.83c-.13-2.71-1.77-5.01-4.1-6.12h10.58v6.12h-6.48Zm-47.99-5.43c-3.2,0-5.79,2.58-5.79,5.77s2.59,5.77,5.79,5.77,5.79-2.58,5.79-5.77-2.59-5.77-5.79-5.77Zm0,2.72c1.7,0,3.06,1.37,3.06,3.05s-1.38,3.05-3.06,3.05-3.06-1.36-3.06-3.05h0c0-1.7,1.38-3.05,3.06-3.05h0Z"/>
  <g>
    <path class="cls-3" d="m64.9,105.42c-.43,0-.83-.06-1.17-.19s-.66-.31-.91-.56c-.25-.23-.43-.51-.56-.83s-.19-.66-.19-1.02c0-.47.13-.92.38-1.3s.61-.71,1.1-.95v-.04c-.43-.25-.75-.52-.96-.81s-.31-.67-.31-1.11c0-.66.25-1.2.74-1.64s1.11-.66,1.89-.66,1.43.2,1.9.62.71.95.71,1.6c0,.39-.11.78-.34,1.16s-.56.67-.98.9v.04c.51.24.88.53,1.15.86s.38.78.38,1.31c0,.75-.27,1.37-.8,1.88s-1.21.76-2.01.76v-.03h-.01Zm1.63-2.52c0-.36-.06-.64-.2-.86s-.41-.43-.8-.64c-.13-.06-.31-.15-.52-.24s-.47-.19-.75-.31c-.32.2-.56.48-.74.79s-.25.67-.25,1.08c0,.53.15.95.47,1.31.32.34.71.52,1.2.52s.88-.15,1.17-.45.45-.7.45-1.2v-.03h-.01Zm-.17-4.36c0-.39-.13-.73-.38-.98s-.61-.39-1.08-.39c-.43,0-.76.11-1.05.34s-.41.55-.41.95c0,.29.06.53.2.73s.34.38.61.53c.11.06.31.17.55.28s.47.2.68.28c.34-.25.56-.53.69-.81s.18-.59.18-.95h0v.03h.01Z"/>
    <path class="cls-3" d="m77.43,99.65h-2.22v5.57h-1.1v-5.57h-2.22v-.97h5.52v.97h.01Z"/>
  </g>
</svg>